Bungee_Layers_Rotated-Outline.ufo
<glyph name="numbersign" format="1">
  <advance width="880"/>
  <unicode hex="0023"/>
  <outline>
    <contour>
      <point x="476.0" y="308" type="line"/>
      <point x="399.0" y="320" type="line"/>
      <point x="399.0" y="412" type="line"/>
      <point x="476.0" y="401" type="line"/>
    </contour>
    <contour>
      <point x="629.0" y="10" type="line"/>
      <point x="662.0" y="10"/>
      <point x="675.0" y="24"/>
      <point x="675.0" y="56" type="curve" smooth="yes"/>
      <point x="675.0" y="83" type="line"/>
      <point x="763.0" y="70" type="line" smooth="yes"/>
      <point x="795.0" y="66"/>
      <point x="810.0" y="83"/>
      <point x="810.0" y="116" type="curve" smooth="yes"/>
      <point x="810.0" y="221" type="line" smooth="yes"/>
      <point x="810.0" y="252"/>
      <point x="797.0" y="263"/>
      <point x="765.0" y="267" type="curve" smooth="yes"/>
      <point x="675.0" y="280" type="line"/>
      <point x="675.0" y="373" type="line"/>
      <point x="763.0" y="360" type="line" smooth="yes"/>
      <point x="795.0" y="356"/>
      <point x="810.0" y="373"/>
      <point x="810.0" y="406" type="curve" smooth="yes"/>
      <point x="810.0" y="511" type="line" smooth="yes"/>
      <point x="810.0" y="542"/>
      <point x="797.0" y="553"/>
      <point x="765.0" y="557" type="curve" smooth="yes"/>
      <point x="675.0" y="570" type="line"/>
      <point x="675.0" y="628" type="line" smooth="yes"/>
      <point x="675.0" y="660"/>
      <point x="662.0" y="674"/>
      <point x="629.0" y="674" type="curve" smooth="yes"/>
      <point x="522.0" y="674" type="line" smooth="yes"/>
      <point x="489.0" y="674"/>
      <point x="476.0" y="660"/>
      <point x="476.0" y="628" type="curve" smooth="yes"/>
      <point x="476.0" y="598" type="line"/>
      <point x="399.0" y="610" type="line"/>
      <point x="399.0" y="664" type="line" smooth="yes"/>
      <point x="399.0" y="696"/>
      <point x="386.0" y="710"/>
      <point x="353.0" y="710" type="curve" smooth="yes"/>
      <point x="246.0" y="710" type="line" smooth="yes"/>
      <point x="213.0" y="710"/>
      <point x="200.0" y="696"/>
      <point x="200.0" y="664" type="curve" smooth="yes"/>
      <point x="200.0" y="638" type="line"/>
      <point x="117.0" y="650" type="line" smooth="yes"/>
      <point x="85.0" y="654"/>
      <point x="70.0" y="637"/>
      <point x="70.0" y="604" type="curve" smooth="yes"/>
      <point x="70.0" y="499" type="line" smooth="yes"/>
      <point x="70.0" y="468"/>
      <point x="83.0" y="457"/>
      <point x="115.0" y="453" type="curve" smooth="yes"/>
      <point x="200.0" y="441" type="line"/>
      <point x="200.0" y="348" type="line"/>
      <point x="117.0" y="360" type="line" smooth="yes"/>
      <point x="85.0" y="364"/>
      <point x="70.0" y="347"/>
      <point x="70.0" y="314" type="curve" smooth="yes"/>
      <point x="70.0" y="209" type="line" smooth="yes"/>
      <point x="70.0" y="178"/>
      <point x="83.0" y="167"/>
      <point x="115.0" y="163" type="curve" smooth="yes"/>
      <point x="200.0" y="151" type="line"/>
      <point x="200.0" y="92" type="line" smooth="yes"/>
      <point x="200.0" y="60"/>
      <point x="214.0" y="46"/>
      <point x="246.0" y="46" type="curve" smooth="yes"/>
      <point x="353.0" y="46" type="line" smooth="yes"/>
      <point x="386.0" y="46"/>
      <point x="399.0" y="60"/>
      <point x="399.0" y="92" type="curve" smooth="yes"/>
      <point x="399.0" y="122" type="line"/>
      <point x="476.0" y="111" type="line"/>
      <point x="476.0" y="56" type="line" smooth="yes"/>
      <point x="476.0" y="24"/>
      <point x="490.0" y="10"/>
      <point x="522.0" y="10" type="curve" smooth="yes"/>
    </contour>
  </outline>
</glyph>
<glyph name="parenleft" format="1">
  <advance width="429"/>
  <unicode hex="0028"/>
  <outline>
    <contour>
      <point x="38.0" y="597" type="curve" smooth="yes"/>
      <point x="38.0" y="126" type="line" smooth="yes"/>
      <point x="38.0" y="-1"/>
      <point x="96.0" y="-90"/>
      <point x="294.0" y="-90" type="curve" smooth="yes"/>
      <point x="348.0" y="-90" type="line" smooth="yes"/>
      <point x="380.0" y="-90"/>
      <point x="394.0" y="-76"/>
      <point x="394.0" y="-44" type="curve" smooth="yes"/>
      <point x="394.0" y="78" type="line" smooth="yes"/>
      <point x="394.0" y="110"/>
      <point x="380.0" y="124"/>
      <point x="348.0" y="124" type="curve" smooth="yes"/>
      <point x="317.0" y="124" type="line" smooth="yes"/>
      <point x="291.0" y="124"/>
      <point x="286.0" y="138"/>
      <point x="286.0" y="164" type="curve" smooth="yes"/>
      <point x="286.0" y="560" type="line" smooth="yes"/>
      <point x="286.0" y="586"/>
      <point x="291.0" y="600"/>
      <point x="317.0" y="600" type="curve" smooth="yes"/>
      <point x="348.0" y="600" type="line" smooth="yes"/>
      <point x="380.0" y="600"/>
      <point x="394.0" y="614"/>
      <point x="394.0" y="646" type="curve" smooth="yes"/>
      <point x="394.0" y="765" type="line" smooth="yes"/>
      <point x="394.0" y="797"/>
      <point x="380.0" y="811"/>
      <point x="348.0" y="811" type="curve" smooth="yes"/>
      <point x="294.0" y="811" type="line" smooth="yes"/>
      <point x="96.0" y="811"/>
      <point x="38.0" y="723"/>
    </contour>
  </outline>
</glyph>
<glyph name="hyphen" format="1">
  <advance width="420"/>
  <unicode hex="002D"/>
  <outline>
    <contour>
      <point x="344.0" y="248" type="line" smooth="yes"/>
      <point x="376.0" y="248"/>
      <point x="390.0" y="261"/>
      <point x="390.0" y="294" type="curve" smooth="yes"/>
      <point x="390.0" y="428" type="line" smooth="yes"/>
      <point x="390.0" y="461"/>
      <point x="376.0" y="474"/>
      <point x="344.0" y="474" type="curve" smooth="yes"/>
      <point x="76.0" y="474" type="line" smooth="yes"/>
      <point x="44.0" y="474"/>
      <point x="30.0" y="460"/>
      <point x="30.0" y="428" type="curve" smooth="yes"/>
      <point x="30.0" y="294" type="line" smooth="yes"/>
      <point x="30.0" y="261"/>
      <point x="44.0" y="248"/>
      <point x="76.0" y="248" type="curve" smooth="yes"/>
    </contour>
  </outline>
</glyph>
<glyph name="slash" format="1">
  <advance width="909"/>
  <unicode hex="002F"/>
  <outline>
    <contour>
      <point x="915.0" y="227" type="curve" smooth="yes"/>
      <point x="915.0" y="372" type="line" smooth="yes"/>
      <point x="915.0" y="403"/>
      <point x="902.0" y="414"/>
      <point x="870.0" y="418" type="curve" smooth="yes"/>
      <point x="42.0" y="538" type="line" smooth="yes"/>
      <point x="10.0" y="542"/>
      <point x="-5.0" y="525"/>
      <point x="-5.0" y="492" type="curve" smooth="yes"/>
      <point x="-5.0" y="347" type="line" smooth="yes"/>
      <point x="-5.0" y="316"/>
      <point x="8.0" y="305"/>
      <point x="40.0" y="301" type="curve" smooth="yes"/>
      <point x="868.0" y="181" type="line" smooth="yes"/>
      <point x="900.0" y="177"/>
      <point x="915.0" y="194"/>
    </contour>
  </outline>
</glyph>
<glyph name="zero" format="1">
  <advance width="864"/>
  <unicode hex="0030"/>
  <outline>
    <contour>
      <point x="262.0" y="670" type="line" smooth="yes"/>
      <point x="136.0" y="670"/>
      <point x="47.0" y="610"/>
      <point x="47.0" y="360" type="curve" smooth="yes"/>
      <point x="47.0" y="110"/>
      <point x="136.0" y="50"/>
      <point x="262.0" y="50" type="curve" smooth="yes"/>
      <point x="603.0" y="50" type="line" smooth="yes"/>
      <point x="729.0" y="50"/>
      <point x="817.0" y="110"/>
      <point x="817.0" y="360" type="curve" smooth="yes"/>
      <point x="817.0" y="610"/>
      <point x="729.0" y="670"/>
      <point x="603.0" y="670" type="curve" smooth="yes"/>
    </contour>
    <contour>
      <point x="298.0" y="296" type="line" smooth="yes"/>
      <point x="276.0" y="296"/>
      <point x="262.0" y="313"/>
      <point x="262.0" y="360" type="curve" smooth="yes"/>
      <point x="262.0" y="407"/>
      <point x="275.0" y="425"/>
      <point x="298.0" y="425" type="curve" smooth="yes"/>
      <point x="567.0" y="425" type="line" smooth="yes"/>
      <point x="590.0" y="425"/>
      <point x="604.0" y="407"/>
      <point x="604.0" y="360" type="curve" smooth="yes"/>
      <point x="604.0" y="313"/>
      <point x="590.0" y="296"/>
      <point x="567.0" y="296" type="curve" smooth="yes"/>
    </contour>
    <contour>
      <point x="45.0" y="365.0" type="move" name="top"/>
    </contour>
    <contour>
      <point x="792.0" y="365.0" type="move" name="bottom"/>
    </contour>
  </outline>
</glyph>
<glyph name="one" format="1">
  <advance width="872"/>
  <unicode hex="0031"/>
  <unicode hex="FF11"/>
  <outline>
    <contour>
      <point x="635.0" y="50" type="curve" smooth="yes"/>
      <point x="756.0" y="50" type="line" smooth="yes"/>
      <point x="788.0" y="50"/>
      <point x="802.0" y="64"/>
      <point x="802.0" y="96" type="curve" smooth="yes"/>
      <point x="802.0" y="623" type="line" smooth="yes"/>
      <point x="802.0" y="655"/>
      <point x="788.0" y="669"/>
      <point x="756.0" y="669" type="curve" smooth="yes"/>
      <point x="635.0" y="669" type="line" smooth="yes"/>
      <point x="603.0" y="669"/>
      <point x="589.0" y="655"/>
      <point x="589.0" y="623" type="curve" smooth="yes"/>
      <point x="589.0" y="499" type="line"/>
      <point x="108.0" y="499" type="line" smooth="yes"/>
      <point x="76.0" y="499"/>
      <point x="62.0" y="485"/>
      <point x="62.0" y="453" type="curve" smooth="yes"/>
      <point x="62.0" y="113" type="line" smooth="yes"/>
      <point x="62.0" y="81"/>
      <point x="76.0" y="67"/>
      <point x="108.0" y="67" type="curve" smooth="yes"/>
      <point x="229.0" y="67" type="line" smooth="yes"/>
      <point x="261.0" y="67"/>
      <point x="275.0" y="81"/>
      <point x="275.0" y="113" type="curve" smooth="yes"/>
      <point x="275.0" y="245" type="line"/>
      <point x="589.0" y="245" type="line"/>
      <point x="589.0" y="96" type="line" smooth="yes"/>
      <point x="589.0" y="64"/>
      <point x="603.0" y="50"/>
    </contour>
  </outline>
</glyph>
<glyph name="two" format="1">
  <advance width="872"/>
  <unicode hex="0032"/>
  <outline>
    <contour>
      <point x="579.0" y="50" type="curve" smooth="yes"/>
      <point x="756.0" y="50" type="line" smooth="yes"/>
      <point x="788.0" y="50"/>
      <point x="802.0" y="64"/>
      <point x="802.0" y="96" type="curve" smooth="yes"/>
      <point x="802.0" y="624" type="line" smooth="yes"/>
      <point x="802.0" y="656"/>
      <point x="788.0" y="670"/>
      <point x="756.0" y="670" type="curve" smooth="yes"/>
      <point x="639.0" y="670" type="line" smooth="yes"/>
      <point x="607.0" y="670"/>
      <point x="593.0" y="656"/>
      <point x="593.0" y="624" type="curve" smooth="yes"/>
      <point x="593.0" y="297" type="line"/>
      <point x="577.0" y="297" type="line" smooth="yes"/>
      <point x="561.0" y="297"/>
      <point x="561.0" y="302"/>
      <point x="557.0" y="316" type="curve"/>
      <point x="514.0" y="505" type="line" smooth="yes"/>
      <point x="491.0" y="610"/>
      <point x="433.0" y="669"/>
      <point x="327.0" y="669" type="curve" smooth="yes"/>
      <point x="238.0" y="669" type="line" smooth="yes"/>
      <point x="124.0" y="669"/>
      <point x="62.0" y="604"/>
      <point x="62.0" y="483" type="curve" smooth="yes"/>
      <point x="62.0" y="116" type="line" smooth="yes"/>
      <point x="62.0" y="84"/>
      <point x="76.0" y="70"/>
      <point x="108.0" y="70" type="curve" smooth="yes"/>
      <point x="227.0" y="70" type="line" smooth="yes"/>
      <point x="259.0" y="70"/>
      <point x="273.0" y="84"/>
      <point x="273.0" y="116" type="curve" smooth="yes"/>
      <point x="273.0" y="405" type="line" smooth="yes"/>
      <point x="273.0" y="417"/>
      <point x="274.0" y="422"/>
      <point x="287.0" y="422" type="curve" smooth="yes"/>
      <point x="303.0" y="422"/>
      <point x="304.0" y="417"/>
      <point x="308.0" y="402" type="curve"/>
      <point x="350.0" y="215" type="line"/>
      <point x="380.0" y="118"/>
      <point x="417.0" y="50"/>
    </contour>
  </outline>
</glyph>
<glyph name="three" format="1">
  <advance width="864"/>
  <unicode hex="0033"/>
  <unicode hex="FF13"/>
  <outline>
    <contour>
      <point x="227.0" y="50" type="line" smooth="yes"/>
      <point x="259.0" y="50"/>
      <point x="273.0" y="64"/>
      <point x="273.0" y="96" type="curve" smooth="yes"/>
      <point x="273.0" y="338" type="line" smooth="yes"/>
      <point x="273.0" y="359"/>
      <point x="281.0" y="366"/>
      <point x="293.0" y="366" type="curve" smooth="yes"/>
      <point x="308.0" y="366" type="line" smooth="yes"/>
      <point x="320.0" y="366"/>
      <point x="328.0" y="359"/>
      <point x="328.0" y="338" type="curve" smooth="yes"/>
      <point x="328.0" y="177" type="line" smooth="yes"/>
      <point x="328.0" y="145"/>
      <point x="342.0" y="131"/>
      <point x="374.0" y="131" type="curve" smooth="yes"/>
      <point x="481.0" y="131" type="line" smooth="yes"/>
      <point x="513.0" y="131"/>
      <point x="527.0" y="145"/>
      <point x="527.0" y="177" type="curve" smooth="yes"/>
      <point x="527.0" y="403" type="line" smooth="yes"/>
      <point x="527.0" y="424"/>
      <point x="534.0" y="431"/>
      <point x="546.0" y="431" type="curve" smooth="yes"/>
      <point x="573.0" y="431" type="line" smooth="yes"/>
      <point x="585.0" y="431"/>
      <point x="593.0" y="424"/>
      <point x="593.0" y="403" type="curve" smooth="yes"/>
      <point x="593.0" y="96" type="line" smooth="yes"/>
      <point x="593.0" y="64"/>
      <point x="607.0" y="50"/>
      <point x="639.0" y="50" type="curve" smooth="yes"/>
      <point x="756.0" y="50" type="line" smooth="yes"/>
      <point x="788.0" y="50"/>
      <point x="802.0" y="64"/>
      <point x="802.0" y="96" type="curve" smooth="yes"/>
      <point x="802.0" y="468" type="line" smooth="yes"/>
      <point x="802.0" y="604"/>
      <point x="734.0" y="672"/>
      <point x="626.0" y="672" type="curve" smooth="yes"/>
      <point x="526.0" y="672" type="line" smooth="yes"/>
      <point x="441.0" y="672"/>
      <point x="393.0" y="645"/>
      <point x="376.0" y="565" type="curve"/>
      <point x="353.0" y="594"/>
      <point x="318.0" y="605"/>
      <point x="273.0" y="605" type="curve" smooth="yes"/>
      <point x="215.0" y="605" type="line" smooth="yes"/>
      <point x="122.0" y="605"/>
      <point x="62.0" y="550"/>
      <point x="62.0" y="431" type="curve" smooth="yes"/>
      <point x="62.0" y="96" type="line" smooth="yes"/>
      <point x="62.0" y="64"/>
      <point x="76.0" y="50"/>
      <point x="108.0" y="50" type="curve" smooth="yes"/>
    </contour>
  </outline>
</glyph>
<glyph name="less" format="1">
  <advance width="726"/>
  <unicode hex="003C"/>
  <outline>
    <contour>
      <point x="632.0" y="637" type="curve" smooth="yes"/>
      <point x="500.0" y="637" type="line" smooth="yes"/>
      <point x="468.0" y="637"/>
      <point x="454.0" y="624"/>
      <point x="449.0" y="593" type="curve"/>
      <point x="449.0" y="594" type="line"/>
      <point x="372.0" y="307" type="line" smooth="yes"/>
      <point x="371.0" y="299"/>
      <point x="369.0" y="297"/>
      <point x="363.0" y="297" type="curve" smooth="yes"/>
      <point x="357.0" y="297"/>
      <point x="355.0" y="299"/>
      <point x="354.0" y="306" type="curve"/>
      <point x="277.0" y="594" type="line"/>
      <point x="277.0" y="593" type="line"/>
      <point x="272.0" y="624"/>
      <point x="258.0" y="637"/>
      <point x="226.0" y="637" type="curve" smooth="yes"/>
      <point x="94.0" y="637" type="line" smooth="yes"/>
      <point x="59.0" y="637"/>
      <point x="47.0" y="622"/>
      <point x="53.0" y="589" type="curve"/>
      <point x="162.0" y="207" type="line" smooth="yes"/>
      <point x="188.0" y="119"/>
      <point x="222.0" y="73"/>
      <point x="327.0" y="73" type="curve" smooth="yes"/>
      <point x="399.0" y="73" type="line" smooth="yes"/>
      <point x="504.0" y="73"/>
      <point x="538.0" y="119"/>
      <point x="564.0" y="207" type="curve" smooth="yes"/>
      <point x="673.0" y="588" type="line"/>
      <point x="673.0" y="589" type="line" smooth="yes"/>
      <point x="679.0" y="622"/>
      <point x="667.0" y="637"/>
    </contour>
  </outline>
</glyph>
<glyph name="greater" format="1">
  <advance width="726"/>
  <unicode hex="003E"/>
  <outline>
    <contour>
      <point x="226.0" y="83" type="line" smooth="yes"/>
      <point x="258.0" y="83"/>
      <point x="272.0" y="96"/>
      <point x="277.0" y="127" type="curve"/>
      <point x="277.0" y="126" type="line"/>
      <point x="354.0" y="413" type="line" smooth="yes"/>
      <point x="355.0" y="421"/>
      <point x="357.0" y="423"/>
      <point x="363.0" y="423" type="curve" smooth="yes"/>
      <point x="369.0" y="423"/>
      <point x="371.0" y="421"/>
      <point x="372.0" y="414" type="curve"/>
      <point x="449.0" y="126" type="line"/>
      <point x="449.0" y="127" type="line"/>
      <point x="454.0" y="96"/>
      <point x="468.0" y="83"/>
      <point x="500.0" y="83" type="curve" smooth="yes"/>
      <point x="632.0" y="83" type="line" smooth="yes"/>
      <point x="667.0" y="83"/>
      <point x="679.0" y="98"/>
      <point x="673.0" y="131" type="curve"/>
      <point x="564.0" y="513" type="line" smooth="yes"/>
      <point x="538.0" y="601"/>
      <point x="504.0" y="647"/>
      <point x="399.0" y="647" type="curve" smooth="yes"/>
      <point x="327.0" y="647" type="line" smooth="yes"/>
      <point x="222.0" y="647"/>
      <point x="188.0" y="601"/>
      <point x="162.0" y="513" type="curve" smooth="yes"/>
      <point x="53.0" y="132" type="line"/>
      <point x="47.0" y="98"/>
      <point x="59.0" y="83"/>
      <point x="94.0" y="83" type="curve" smooth="yes"/>
    </contour>
  </outline>
</glyph>
<glyph name="A" format="1">
  <advance width="849"/>
  <unicode hex="0041"/>
  <unicode hex="FF21"/>
  <outline>
    <contour>
      <point x="482.0" y="49" type="curve" smooth="yes"/>
      <point x="746.0" y="49" type="line" smooth="yes"/>
      <point x="778.0" y="49"/>
      <point x="792.0" y="62"/>
      <point x="792.0" y="95" type="curve" smooth="yes"/>
      <point x="792.0" y="242" type="line" smooth="yes"/>
      <point x="792.0" y="274"/>
      <point x="778.0" y="288"/>
      <point x="746.0" y="288" type="curve" smooth="yes"/>
      <point x="616.0" y="288" type="line"/>
      <point x="616.0" y="425" type="line"/>
      <point x="746.0" y="425" type="line" smooth="yes"/>
      <point x="777.0" y="425"/>
      <point x="792.0" y="442"/>
      <point x="792.0" y="474" type="curve" smooth="yes"/>
      <point x="792.0" y="625" type="line" smooth="yes"/>
      <point x="792.0" y="657"/>
      <point x="778.0" y="671"/>
      <point x="746.0" y="671" type="curve" smooth="yes"/>
      <point x="482.0" y="671" type="line" smooth="yes"/>
      <point x="411.0" y="671"/>
      <point x="396.0" y="661"/>
      <point x="318.0" y="631" type="curve" smooth="yes"/>
      <point x="91.0" y="544" type="line" smooth="yes"/>
      <point x="62.0" y="534"/>
      <point x="52.0" y="516"/>
      <point x="52.0" y="485" type="curve" smooth="yes"/>
      <point x="52.0" y="226" type="line" smooth="yes"/>
      <point x="52.0" y="195"/>
      <point x="62.0" y="176"/>
      <point x="92.0" y="166" type="curve" smooth="yes"/>
      <point x="319.0" y="89" type="line" smooth="yes"/>
      <point x="396.0" y="59"/>
      <point x="411.0" y="49"/>
    </contour>
    <contour>
      <point x="275.0" y="345" type="line"/>
      <point x="276.0" y="344" type="line"/>
      <point x="269.0" y="347"/>
      <point x="265.0" y="347"/>
      <point x="265.0" y="354" type="curve" smooth="yes"/>
      <point x="265.0" y="359" type="line" smooth="yes"/>
      <point x="265.0" y="366"/>
      <point x="269.0" y="366"/>
      <point x="276.0" y="369" type="curve"/>
      <point x="275.0" y="368" type="line"/>
      <point x="414.0" y="411" type="line"/>
      <point x="414.0" y="301" type="line"/>
    </contour>
  </outline>
</glyph>
<glyph name="C" format="1">
  <advance width="864"/>
  <unicode hex="0043"/>
  <unicode hex="FF23"/>
  <outline>
    <contour>
      <point x="756.0" y="661" type="curve" smooth="yes"/>
      <point x="637.0" y="661" type="line" smooth="yes"/>
      <point x="605.0" y="661"/>
      <point x="591.0" y="647"/>
      <point x="591.0" y="615" type="curve" smooth="yes"/>
      <point x="591.0" y="345" type="line" smooth="yes"/>
      <point x="591.0" y="304"/>
      <point x="576.0" y="294"/>
      <point x="553.0" y="294" type="curve" smooth="yes"/>
      <point x="315.0" y="294" type="line" smooth="yes"/>
      <point x="293.0" y="294"/>
      <point x="275.0" y="303"/>
      <point x="275.0" y="345" type="curve" smooth="yes"/>
      <point x="275.0" y="615" type="line" smooth="yes"/>
      <point x="275.0" y="647"/>
      <point x="261.0" y="661"/>
      <point x="229.0" y="661" type="curve" smooth="yes"/>
      <point x="108.0" y="661" type="line" smooth="yes"/>
      <point x="76.0" y="661"/>
      <point x="62.0" y="647"/>
      <point x="62.0" y="615" type="curve" smooth="yes"/>
      <point x="62.0" y="302" type="line" smooth="yes"/>
      <point x="62.0" y="104"/>
      <point x="150.0" y="46"/>
      <point x="277.0" y="46" type="curve" smooth="yes"/>
      <point x="588.0" y="46" type="line" smooth="yes"/>
      <point x="714.0" y="46"/>
      <point x="802.0" y="104"/>
      <point x="802.0" y="302" type="curve" smooth="yes"/>
      <point x="802.0" y="615" type="line" smooth="yes"/>
      <point x="802.0" y="647"/>
      <point x="788.0" y="661"/>
    </contour>
  </outline>
</glyph>
<glyph name="D" format="1">
  <advance width="864"/>
  <unicode hex="0044"/>
  <unicode hex="FF24"/>
  <outline>
    <contour>
      <point x="588.0" y="675" type="curve" smooth="yes"/>
      <point x="276.0" y="675" type="line" smooth="yes"/>
      <point x="150.0" y="675"/>
      <point x="62.0" y="617"/>
      <point x="62.0" y="419" type="curve" smooth="yes"/>
      <point x="62.0" y="96" type="line" smooth="yes"/>
      <point x="62.0" y="64"/>
      <point x="76.0" y="50"/>
      <point x="108.0" y="50" type="curve" smooth="yes"/>
      <point x="756.0" y="50" type="line" smooth="yes"/>
      <point x="788.0" y="50"/>
      <point x="802.0" y="64"/>
      <point x="802.0" y="96" type="curve" smooth="yes"/>
      <point x="802.0" y="419" type="line" smooth="yes"/>
      <point x="802.0" y="617"/>
      <point x="714.0" y="675"/>
    </contour>
    <contour>
      <point x="273.0" y="392" type="line" smooth="yes"/>
      <point x="273.0" y="424"/>
      <point x="291.0" y="429"/>
      <point x="311.0" y="429" type="curve" smooth="yes"/>
      <point x="554.0" y="429" type="line" smooth="yes"/>
      <point x="575.0" y="429"/>
      <point x="593.0" y="424"/>
      <point x="593.0" y="392" type="curve" smooth="yes"/>
      <point x="593.0" y="297" type="line"/>
      <point x="273.0" y="297" type="line"/>
    </contour>
  </outline>
</glyph>
<glyph name="E" format="1">
  <advance width="880"/>
  <unicode hex="0045"/>
  <unicode hex="FF25"/>
  <outline>
    <contour>
      <point x="116.0" y="51" type="curve" smooth="yes"/>
      <point x="764.0" y="51" type="line" smooth="yes"/>
      <point x="796.0" y="51"/>
      <point x="810.0" y="65"/>
      <point x="810.0" y="97" type="curve" smooth="yes"/>
      <point x="810.0" y="615" type="line" smooth="yes"/>
      <point x="810.0" y="647"/>
      <point x="796.0" y="661"/>
      <point x="764.0" y="661" type="curve" smooth="yes"/>
      <point x="647.0" y="661" type="line" smooth="yes"/>
      <point x="615.0" y="661"/>
      <point x="601.0" y="647"/>
      <point x="601.0" y="615" type="curve" smooth="yes"/>
      <point x="601.0" y="295" type="line"/>
      <point x="535.0" y="295" type="line"/>
      <point x="535.0" y="534" type="line" smooth="yes"/>
      <point x="535.0" y="566"/>
      <point x="521.0" y="580"/>
      <point x="489.0" y="580" type="curve" smooth="yes"/>
      <point x="382.0" y="580" type="line" smooth="yes"/>
      <point x="349.0" y="580"/>
      <point x="336.0" y="566"/>
      <point x="336.0" y="534" type="curve" smooth="yes"/>
      <point x="336.0" y="295" type="line"/>
      <point x="279.0" y="295" type="line"/>
      <point x="279.0" y="615" type="line" smooth="yes"/>
      <point x="279.0" y="647"/>
      <point x="265.0" y="661"/>
      <point x="233.0" y="661" type="curve" smooth="yes"/>
      <point x="116.0" y="661" type="line" smooth="yes"/>
      <point x="84.0" y="661"/>
      <point x="70.0" y="647"/>
      <point x="70.0" y="615" type="curve" smooth="yes"/>
      <point x="70.0" y="97" type="line" smooth="yes"/>
      <point x="70.0" y="65"/>
      <point x="84.0" y="51"/>
    </contour>
  </outline>
</glyph>
<glyph name="G" format="1">
  <advance width="859"/>
  <unicode hex="0047"/>
  <outline>
    <contour>
      <point x="271.0" y="45" type="curve" smooth="yes"/>
      <point x="583.0" y="45" type="line" smooth="yes"/>
      <point x="709.0" y="45"/>
      <point x="797.0" y="103"/>
      <point x="797.0" y="301" type="curve" smooth="yes"/>
      <point x="797.0" y="624" type="line" smooth="yes"/>
      <point x="797.0" y="656"/>
      <point x="783.0" y="670"/>
      <point x="751.0" y="670" type="curve" smooth="yes"/>
      <point x="442.0" y="670" type="line" smooth="yes"/>
      <point x="410.0" y="670"/>
      <point x="396.0" y="656"/>
      <point x="396.0" y="624" type="curve" smooth="yes"/>
      <point x="396.0" y="469" type="line" smooth="yes"/>
      <point x="396.0" y="437"/>
      <point x="410.0" y="423"/>
      <point x="442.0" y="423" type="curve" smooth="yes"/>
      <point x="588.0" y="423" type="line"/>
      <point x="588.0" y="328" type="line" smooth="yes"/>
      <point x="588.0" y="296"/>
      <point x="570.0" y="292"/>
      <point x="549.0" y="292" type="curve" smooth="yes"/>
      <point x="310.0" y="292" type="line" smooth="yes"/>
      <point x="288.0" y="292"/>
      <point x="270.0" y="301"/>
      <point x="270.0" y="343" type="curve" smooth="yes"/>
      <point x="270.0" y="559" type="line" smooth="yes"/>
      <point x="270.0" y="591"/>
      <point x="256.0" y="605"/>
      <point x="224.0" y="605" type="curve" smooth="yes"/>
      <point x="103.0" y="605" type="line" smooth="yes"/>
      <point x="71.0" y="605"/>
      <point x="57.0" y="591"/>
      <point x="57.0" y="559" type="curve" smooth="yes"/>
      <point x="57.0" y="301" type="line" smooth="yes"/>
      <point x="57.0" y="103"/>
      <point x="145.0" y="45"/>
    </contour>
    <contour>
      <point x="40.0" y="351.0" type="move" name="top"/>
    </contour>
    <contour>
      <point x="787.0" y="351.0" type="move" name="bottom"/>
    </contour>
  </outline>
</glyph>
<glyph name="M" format="1">
  <advance width="854"/>
  <unicode hex="004D"/>
  <outline>
    <contour>
      <point x="751.0" y="29" type="line" smooth="yes"/>
      <point x="783.0" y="29"/>
      <point x="797.0" y="43"/>
      <point x="797.0" y="75" type="curve" smooth="yes"/>
      <point x="797.0" y="207" type="line" smooth="yes"/>
      <point x="797.0" y="239"/>
      <point x="783.0" y="253"/>
      <point x="751.0" y="253" type="curve" smooth="yes"/>
      <point x="473.0" y="256" type="line"/>
      <point x="530.0" y="276" type="line"/>
      <point x="531.0" y="276" type="line" smooth="yes"/>
      <point x="558.0" y="291"/>
      <point x="568.0" y="308"/>
      <point x="568.0" y="338" type="curve" smooth="yes"/>
      <point x="568.0" y="365" type="line" smooth="yes"/>
      <point x="568.0" y="395"/>
      <point x="558.0" y="412"/>
      <point x="531.0" y="427" type="curve" smooth="yes"/>
      <point x="530.0" y="427" type="line"/>
      <point x="474.0" y="446" type="line"/>
      <point x="751.0" y="450" type="line"/>
      <point x="783.0" y="450"/>
      <point x="797.0" y="464"/>
      <point x="797.0" y="496" type="curve" smooth="yes"/>
      <point x="797.0" y="647" type="line" smooth="yes"/>
      <point x="797.0" y="680"/>
      <point x="783.0" y="693"/>
      <point x="751.0" y="693" type="curve" smooth="yes"/>
      <point x="103.0" y="689" type="line" smooth="yes"/>
      <point x="71.0" y="689"/>
      <point x="57.0" y="676"/>
      <point x="57.0" y="643" type="curve" smooth="yes"/>
      <point x="57.0" y="503" type="line" smooth="yes"/>
      <point x="57.0" y="473"/>
      <point x="66.0" y="455"/>
      <point x="92.0" y="439" type="curve" smooth="yes"/>
      <point x="92.0" y="438" type="line"/>
      <point x="263.0" y="363" type="line"/>
      <point x="263.0" y="352" type="line"/>
      <point x="93.0" y="284" type="line"/>
      <point x="92.0" y="284" type="line" smooth="yes"/>
      <point x="66.0" y="269"/>
      <point x="57.0" y="240"/>
      <point x="57.0" y="210" type="curve" smooth="yes"/>
      <point x="57.0" y="79" type="line" smooth="yes"/>
      <point x="57.0" y="47"/>
      <point x="71.0" y="33"/>
      <point x="103.0" y="33" type="curve"/>
    </contour>
  </outline>
</glyph>
<glyph name="U" format="1">
  <advance width="859"/>
  <unicode hex="0055"/>
  <outline>
    <contour>
      <point x="103" y="670" type="line" smooth="yes"/>
      <point x="71" y="670"/>
      <point x="57" y="656"/>
      <point x="57" y="624" type="curve" smooth="yes"/>
      <point x="57" y="472" type="line" smooth="yes"/>
      <point x="57" y="439"/>
      <point x="71" y="426"/>
      <point x="103" y="426" type="curve" smooth="yes"/>
      <point x="559" y="426" type="line" smooth="yes"/>
      <point x="582" y="426"/>
      <point x="596" y="411"/>
      <point x="596" y="362" type="curve" smooth="yes"/>
      <point x="596" y="314"/>
      <point x="582" y="299"/>
      <point x="559" y="299" type="curve" smooth="yes"/>
      <point x="103" y="299" type="line" smooth="yes"/>
      <point x="71" y="299"/>
      <point x="57" y="285"/>
      <point x="57" y="253" type="curve" smooth="yes"/>
      <point x="57" y="96" type="line" smooth="yes"/>
      <point x="57" y="64"/>
      <point x="71" y="50"/>
      <point x="103" y="50" type="curve" smooth="yes"/>
      <point x="598" y="50" type="line" smooth="yes"/>
      <point x="724" y="50"/>
      <point x="812" y="108"/>
      <point x="812" y="360" type="curve" smooth="yes"/>
      <point x="812" y="612"/>
      <point x="724" y="670"/>
      <point x="598" y="670" type="curve" smooth="yes"/>
    </contour>
  </outline>
</glyph>
<glyph name="Y" format="1">
  <advance width="842"/>
  <unicode hex="0059"/>
  <outline>
    <contour>
      <point x="103.0" y="49" type="curve" smooth="yes"/>
      <point x="295.0" y="49" type="line" smooth="yes"/>
      <point x="350.0" y="49"/>
      <point x="381.0" y="57"/>
      <point x="424.0" y="89" type="curve" smooth="yes"/>
      <point x="625.0" y="233" type="line"/>
      <point x="751.0" y="233" type="line" smooth="yes"/>
      <point x="783.0" y="233"/>
      <point x="797.0" y="246"/>
      <point x="797.0" y="279" type="curve" smooth="yes"/>
      <point x="797.0" y="441" type="line" smooth="yes"/>
      <point x="797.0" y="473"/>
      <point x="783.0" y="487"/>
      <point x="751.0" y="487" type="curve" smooth="yes"/>
      <point x="626.0" y="487" type="line"/>
      <point x="424.0" y="631" type="line" smooth="yes"/>
      <point x="381.0" y="663"/>
      <point x="350.0" y="671"/>
      <point x="295.0" y="671" type="curve" smooth="yes"/>
      <point x="103.0" y="671" type="line" smooth="yes"/>
      <point x="71.0" y="671"/>
      <point x="57.0" y="657"/>
      <point x="57.0" y="625" type="curve" smooth="yes"/>
      <point x="57.0" y="476" type="line" smooth="yes"/>
      <point x="57.0" y="444"/>
      <point x="71.0" y="430"/>
      <point x="103.0" y="430" type="curve" smooth="yes"/>
      <point x="267.0" y="430" type="line" smooth="yes"/>
      <point x="279.0" y="430"/>
      <point x="291.0" y="430"/>
      <point x="304.0" y="423" type="curve"/>
      <point x="376.0" y="382" type="line" smooth="yes"/>
      <point x="384.0" y="378"/>
      <point x="388.0" y="374"/>
      <point x="388.0" y="367" type="curve" smooth="yes"/>
      <point x="388.0" y="357" type="line" smooth="yes"/>
      <point x="388.0" y="350"/>
      <point x="384.0" y="346"/>
      <point x="376.0" y="342" type="curve" smooth="yes"/>
      <point x="304.0" y="303" type="line"/>
      <point x="291.0" y="295"/>
      <point x="279.0" y="295"/>
      <point x="267.0" y="295" type="curve" smooth="yes"/>
      <point x="103.0" y="295" type="line" smooth="yes"/>
      <point x="71.0" y="295"/>
      <point x="57.0" y="281"/>
      <point x="57.0" y="249" type="curve" smooth="yes"/>
      <point x="57.0" y="95" type="line" smooth="yes"/>
      <point x="57.0" y="63"/>
      <point x="71.0" y="49"/>
    </contour>
    <contour>
      <point x="40.0" y="212.0" type="move" name="top"/>
    </contour>
    <contour>
      <point x="40.0" y="212.0" type="move" name="top"/>
    </contour>
    <contour>
      <point x="787.0" y="212.0" type="move" name="bottom"/>
    </contour>
    <contour>
      <point x="787.0" y="212.0" type="move" name="bottom"/>
    </contour>
  </outline>
</glyph>
<glyph name="bracketleft" format="1">
  <advance width="429"/>
  <unicode hex="005B"/>
  <outline>
    <contour>
      <point x="84.0" y="-90" type="curve" smooth="yes"/>
      <point x="348.0" y="-90" type="line" smooth="yes"/>
      <point x="380.0" y="-90"/>
      <point x="394.0" y="-76"/>
      <point x="394.0" y="-44" type="curve" smooth="yes"/>
      <point x="394.0" y="78" type="line" smooth="yes"/>
      <point x="394.0" y="110"/>
      <point x="380.0" y="124"/>
      <point x="348.0" y="124" type="curve" smooth="yes"/>
      <point x="286.0" y="124" type="line"/>
      <point x="286.0" y="600" type="line"/>
      <point x="348.0" y="600" type="line" smooth="yes"/>
      <point x="380.0" y="600"/>
      <point x="394.0" y="614"/>
      <point x="394.0" y="646" type="curve" smooth="yes"/>
      <point x="394.0" y="765" type="line" smooth="yes"/>
      <point x="394.0" y="797"/>
      <point x="380.0" y="811"/>
      <point x="348.0" y="811" type="curve" smooth="yes"/>
      <point x="84.0" y="811" type="line" smooth="yes"/>
      <point x="52.0" y="811"/>
      <point x="38.0" y="797"/>
      <point x="38.0" y="765" type="curve" smooth="yes"/>
      <point x="38.0" y="-44" type="line" smooth="yes"/>
      <point x="38.0" y="-76"/>
      <point x="52.0" y="-90"/>
    </contour>
  </outline>
</glyph>
<glyph name="bracketright" format="1">
  <advance width="429"/>
  <unicode hex="005D"/>
  <outline>
    <contour>
      <point x="81.0" y="-90" type="curve" smooth="yes"/>
      <point x="345.0" y="-90" type="line" smooth="yes"/>
      <point x="377.0" y="-90"/>
      <point x="391.0" y="-76"/>
      <point x="391.0" y="-44" type="curve" smooth="yes"/>
      <point x="391.0" y="765" type="line" smooth="yes"/>
      <point x="391.0" y="797"/>
      <point x="377.0" y="811"/>
      <point x="345.0" y="811" type="curve" smooth="yes"/>
      <point x="81.0" y="811" type="line" smooth="yes"/>
      <point x="49.0" y="811"/>
      <point x="35.0" y="797"/>
      <point x="35.0" y="765" type="curve" smooth="yes"/>
      <point x="35.0" y="646" type="line" smooth="yes"/>
      <point x="35.0" y="614"/>
      <point x="49.0" y="600"/>
      <point x="81.0" y="600" type="curve" smooth="yes"/>
      <point x="143.0" y="600" type="line"/>
      <point x="143.0" y="124" type="line"/>
      <point x="81.0" y="124" type="line" smooth="yes"/>
      <point x="49.0" y="124"/>
      <point x="35.0" y="110"/>
      <point x="35.0" y="78" type="curve" smooth="yes"/>
      <point x="35.0" y="-44" type="line" smooth="yes"/>
      <point x="35.0" y="-76"/>
      <point x="49.0" y="-90"/>
    </contour>
  </outline>
</glyph>
<glyph name="asciicircum" format="1">
  <advance width="686"/>
  <unicode hex="005E"/>
  <outline>
    <contour>
      <point x="615.0" y="73" type="curve"/>
      <point x="616.0" y="205" type="line" smooth="yes"/>
      <point x="617.0" y="237"/>
      <point x="603.0" y="252"/>
      <point x="572.0" y="256" type="curve"/>
      <point x="574.0" y="256" type="line"/>
      <point x="285.0" y="334" type="line"/>
      <point x="278.0" y="335"/>
      <point x="274.0" y="335"/>
      <point x="275.0" y="342" type="curve" smooth="yes"/>
      <point x="275.0" y="344" type="line" smooth="yes"/>
      <point x="274.0" y="350"/>
      <point x="278.0" y="350"/>
      <point x="284.0" y="351" type="curve"/>
      <point x="574.0" y="429" type="line"/>
      <point x="572.0" y="429" type="line"/>
      <point x="603.0" y="433"/>
      <point x="617.0" y="448"/>
      <point x="616.0" y="480" type="curve" smooth="yes"/>
      <point x="615.0" y="612" type="line" smooth="yes"/>
      <point x="615.0" y="645"/>
      <point x="600.0" y="658"/>
      <point x="567.0" y="652" type="curve"/>
      <point x="185.0" y="544" type="line" smooth="yes"/>
      <point x="97.0" y="517"/>
      <point x="50.0" y="484"/>
      <point x="50.0" y="379" type="curve" smooth="yes"/>
      <point x="50.0" y="306" type="line" smooth="yes"/>
      <point x="50.0" y="201"/>
      <point x="97.0" y="167"/>
      <point x="185.0" y="141" type="curve" smooth="yes"/>
      <point x="566.0" y="33" type="line"/>
      <point x="567.0" y="33" type="line" smooth="yes"/>
      <point x="600.0" y="27"/>
      <point x="615.0" y="40"/>
    </contour>
  </outline>
</glyph>
<glyph name="underscore" format="1">
  <advance width="346"/>
  <unicode hex="005F"/>
  <outline>
    <contour>
      <point x="286.0" y="621" type="line" smooth="yes"/>
      <point x="286.0" y="653"/>
      <point x="273.0" y="667"/>
      <point x="240.0" y="667" type="curve" smooth="yes"/>
      <point x="106.0" y="667" type="line" smooth="yes"/>
      <point x="73.0" y="667"/>
      <point x="60.0" y="653"/>
      <point x="60.0" y="621" type="curve" smooth="yes"/>
      <point x="60.0" y="99" type="line" smooth="yes"/>
      <point x="60.0" y="67"/>
      <point x="74.0" y="53"/>
      <point x="106.0" y="53" type="curve" smooth="yes"/>
      <point x="240.0" y="53" type="line" smooth="yes"/>
      <point x="273.0" y="53"/>
      <point x="286.0" y="67"/>
      <point x="286.0" y="99" type="curve" smooth="yes"/>
    </contour>
  </outline>
</glyph>
<glyph name="braceright" format="1">
  <advance width="455"/>
  <unicode hex="007D"/>
  <outline>
    <contour>
      <point x="81.0" y="-90" type="curve" smooth="yes"/>
      <point x="125.0" y="-90" type="line" smooth="yes"/>
      <point x="323.0" y="-90"/>
      <point x="381.0" y="-1"/>
      <point x="381.0" y="126" type="curve" smooth="yes"/>
      <point x="381.0" y="251" type="line"/>
      <point x="424.0" y="267"/>
      <point x="445.0" y="295"/>
      <point x="445.0" y="345" type="curve" smooth="yes"/>
      <point x="445.0" y="380" type="line" smooth="yes"/>
      <point x="445.0" y="430"/>
      <point x="424.0" y="459"/>
      <point x="381.0" y="475" type="curve"/>
      <point x="381.0" y="597" type="line" smooth="yes"/>
      <point x="381.0" y="723"/>
      <point x="323.0" y="811"/>
      <point x="125.0" y="811" type="curve" smooth="yes"/>
      <point x="81.0" y="811" type="line" smooth="yes"/>
      <point x="49.0" y="811"/>
      <point x="35.0" y="797"/>
      <point x="35.0" y="765" type="curve" smooth="yes"/>
      <point x="35.0" y="646" type="line" smooth="yes"/>
      <point x="35.0" y="614"/>
      <point x="49.0" y="600"/>
      <point x="81.0" y="600" type="curve" smooth="yes"/>
      <point x="102.0" y="600" type="line" smooth="yes"/>
      <point x="128.0" y="600"/>
      <point x="133.0" y="586"/>
      <point x="133.0" y="560" type="curve" smooth="yes"/>
      <point x="133.0" y="445" type="line" smooth="yes"/>
      <point x="133.0" y="398"/>
      <point x="146.0" y="380"/>
      <point x="186.0" y="373" type="curve" smooth="yes"/>
      <point x="219.0" y="367" type="line" smooth="yes"/>
      <point x="222.0" y="367"/>
      <point x="224.0" y="366"/>
      <point x="224.0" y="363" type="curve" smooth="yes"/>
      <point x="224.0" y="360"/>
      <point x="223.0" y="359"/>
      <point x="220.0" y="359" type="curve" smooth="yes"/>
      <point x="186.0" y="353" type="line" smooth="yes"/>
      <point x="146.0" y="346"/>
      <point x="133.0" y="328"/>
      <point x="133.0" y="281" type="curve" smooth="yes"/>
      <point x="133.0" y="164" type="line" smooth="yes"/>
      <point x="133.0" y="138"/>
      <point x="128.0" y="124"/>
      <point x="102.0" y="124" type="curve" smooth="yes"/>
      <point x="81.0" y="124" type="line" smooth="yes"/>
      <point x="49.0" y="124"/>
      <point x="35.0" y="110"/>
      <point x="35.0" y="78" type="curve" smooth="yes"/>
      <point x="35.0" y="-44" type="line" smooth="yes"/>
      <point x="35.0" y="-76"/>
      <point x="49.0" y="-90"/>
    </contour>
  </outline>
</glyph>
<glyph name="asciitilde" format="1">
  <advance width="363"/>
  <unicode hex="007E"/>
  <outline>
    <contour>
      <point x="151.0" y="53" type="curve" smooth="yes"/>
      <point x="257.0" y="53" type="line" smooth="yes"/>
      <point x="285.0" y="53"/>
      <point x="304.0" y="69"/>
      <point x="292.0" y="117" type="curve" smooth="yes"/>
      <point x="269.0" y="190"/>
      <point x="263.0" y="213"/>
      <point x="279.0" y="319" type="curve" smooth="yes"/>
      <point x="284.0" y="359" type="line"/>
      <point x="287.0" y="382" type="line" smooth="yes"/>
      <point x="304.0" y="497"/>
      <point x="311.0" y="518"/>
      <point x="274.0" y="623" type="curve" smooth="yes"/>
      <point x="266.0" y="645"/>
      <point x="253.0" y="667"/>
      <point x="212.0" y="667" type="curve" smooth="yes"/>
      <point x="113.0" y="667" type="line" smooth="yes"/>
      <point x="76.0" y="667"/>
      <point x="59.0" y="648"/>
      <point x="72.0" y="602" type="curve" smooth="yes"/>
      <point x="97.0" y="521"/>
      <point x="101.0" y="515"/>
      <point x="83.0" y="392" type="curve" smooth="yes"/>
      <point x="79.0" y="361" type="line"/>
      <point x="76.0" y="337" type="line" smooth="yes"/>
      <point x="59.0" y="221"/>
      <point x="52.0" y="202"/>
      <point x="89.0" y="97" type="curve" smooth="yes"/>
      <point x="97.0" y="73"/>
      <point x="110.0" y="53"/>
    </contour>
  </outline>
</glyph>
<glyph name="cent" format="1">
  <advance width="930"/>
  <unicode hex="00A2"/>
  <outline>
    <contour>
      <point x="350.0" y="94" type="curve" smooth="yes"/>
      <point x="581.0" y="94" type="line" smooth="yes"/>
      <point x="693.0" y="94"/>
      <point x="775.0" y="140"/>
      <point x="792.0" y="290" type="curve"/>
      <point x="839.0" y="290" type="line" smooth="yes"/>
      <point x="871.0" y="290"/>
      <point x="885.0" y="304"/>
      <point x="885.0" y="336" type="curve" smooth="yes"/>
      <point x="885.0" y="481" type="line" smooth="yes"/>
      <point x="885.0" y="513"/>
      <point x="871.0" y="527"/>
      <point x="839.0" y="527" type="curve" smooth="yes"/>
      <point x="795.0" y="527" type="line"/>
      <point x="795.0" y="594" type="line" smooth="yes"/>
      <point x="795.0" y="626"/>
      <point x="781.0" y="640"/>
      <point x="749.0" y="640" type="curve" smooth="yes"/>
      <point x="630.0" y="640" type="line" smooth="yes"/>
      <point x="598.0" y="640"/>
      <point x="584.0" y="626"/>
      <point x="584.0" y="594" type="curve" smooth="yes"/>
      <point x="584.0" y="393" type="line" smooth="yes"/>
      <point x="584.0" y="352"/>
      <point x="569.0" y="342"/>
      <point x="546.0" y="342" type="curve" smooth="yes"/>
      <point x="388.0" y="342" type="line" smooth="yes"/>
      <point x="366.0" y="342"/>
      <point x="348.0" y="351"/>
      <point x="348.0" y="393" type="curve" smooth="yes"/>
      <point x="348.0" y="594" type="line" smooth="yes"/>
      <point x="348.0" y="626"/>
      <point x="334.0" y="640"/>
      <point x="302.0" y="640" type="curve" smooth="yes"/>
      <point x="181.0" y="640" type="line" smooth="yes"/>
      <point x="149.0" y="640"/>
      <point x="135.0" y="626"/>
      <point x="135.0" y="594" type="curve" smooth="yes"/>
      <point x="135.0" y="527" type="line"/>
      <point x="91.0" y="527" type="line" smooth="yes"/>
      <point x="59.0" y="527"/>
      <point x="45.0" y="513"/>
      <point x="45.0" y="481" type="curve" smooth="yes"/>
      <point x="45.0" y="336" type="line" smooth="yes"/>
      <point x="45.0" y="304"/>
      <point x="59.0" y="290"/>
      <point x="91.0" y="290" type="curve" smooth="yes"/>
      <point x="138.0" y="290" type="line"/>
      <point x="155.0" y="140"/>
      <point x="237.0" y="94"/>
    </contour>
  </outline>
</glyph>
<glyph name="sterling" format="1">
  <advance width="880"/>
  <unicode hex="00A3"/>
  <outline>
    <contour>
      <point x="392.0" y="22" type="curve" smooth="yes"/>
      <point x="499.0" y="22" type="line"/>
      <point x="532.0" y="22"/>
      <point x="545.0" y="36"/>
      <point x="545.0" y="68" type="curve" smooth="yes"/>
      <point x="545.0" y="71" type="line"/>
      <point x="764.0" y="71" type="line" smooth="yes"/>
      <point x="796.0" y="71"/>
      <point x="810.0" y="85"/>
      <point x="810.0" y="117" type="curve" smooth="yes"/>
      <point x="810.0" y="626" type="line" smooth="yes"/>
      <point x="810.0" y="658"/>
      <point x="796.0" y="672"/>
      <point x="764.0" y="672" type="curve" smooth="yes"/>
      <point x="509.0" y="672" type="line" smooth="yes"/>
      <point x="477.0" y="672"/>
      <point x="463.0" y="658"/>
      <point x="463.0" y="626" type="curve" smooth="yes"/>
      <point x="463.0" y="481" type="line" smooth="yes"/>
      <point x="463.0" y="449"/>
      <point x="477.0" y="435"/>
      <point x="509.0" y="435" type="curve" smooth="yes"/>
      <point x="601.0" y="435" type="line"/>
      <point x="601.0" y="318" type="line"/>
      <point x="545.0" y="318" type="line"/>
      <point x="545.0" y="356" type="line" smooth="yes"/>
      <point x="545.0" y="388"/>
      <point x="532.0" y="402"/>
      <point x="499.0" y="402" type="curve" smooth="yes"/>
      <point x="392.0" y="402" type="line" smooth="yes"/>
      <point x="359.0" y="402"/>
      <point x="346.0" y="388"/>
      <point x="346.0" y="356" type="curve" smooth="yes"/>
      <point x="346.0" y="318" type="line"/>
      <point x="323.0" y="318" type="line" smooth="yes"/>
      <point x="301.0" y="318"/>
      <point x="283.0" y="327"/>
      <point x="283.0" y="369" type="curve" smooth="yes"/>
      <point x="283.0" y="517" type="line" smooth="yes"/>
      <point x="283.0" y="549"/>
      <point x="269.0" y="563"/>
      <point x="237.0" y="563" type="curve" smooth="yes"/>
      <point x="116.0" y="563" type="line" smooth="yes"/>
      <point x="84.0" y="563"/>
      <point x="70.0" y="549"/>
      <point x="70.0" y="517" type="curve" smooth="yes"/>
      <point x="70.0" y="327" type="line" smooth="yes"/>
      <point x="70.0" y="129"/>
      <point x="158.0" y="71"/>
      <point x="284.0" y="71" type="curve" smooth="yes"/>
      <point x="346.0" y="71" type="line"/>
      <point x="346.0" y="68" type="line" smooth="yes"/>
      <point x="346.0" y="36"/>
      <point x="360.0" y="22"/>
    </contour>
  </outline>
</glyph>
<glyph name="ordfeminine" format="1">
  <advance width="880"/>
  <unicode hex="00AA"/>
  <outline>
    <contour>
      <point x="810.0" y="548" type="line" smooth="yes"/>
      <point x="810.0" y="580"/>
      <point x="797.0" y="594"/>
      <point x="764.0" y="594" type="curve" smooth="yes"/>
      <point x="697.0" y="594" type="line" smooth="yes"/>
      <point x="664.0" y="594"/>
      <point x="651.0" y="580"/>
      <point x="651.0" y="548" type="curve" smooth="yes"/>
      <point x="651.0" y="172" type="line" smooth="yes"/>
      <point x="651.0" y="140"/>
      <point x="665.0" y="126"/>
      <point x="697.0" y="126" type="curve" smooth="yes"/>
      <point x="764.0" y="126" type="line"/>
      <point x="797.0" y="126"/>
      <point x="810.0" y="140"/>
      <point x="810.0" y="172" type="curve" smooth="yes"/>
    </contour>
    <contour>
      <point x="389.0" y="126" type="curve" smooth="yes"/>
      <point x="568.0" y="126" type="line"/>
      <point x="595.0" y="126"/>
      <point x="608.0" y="139"/>
      <point x="608.0" y="166" type="curve" smooth="yes"/>
      <point x="608.0" y="269" type="line" smooth="yes"/>
      <point x="608.0" y="297"/>
      <point x="595.0" y="309"/>
      <point x="568.0" y="309" type="curve" smooth="yes"/>
      <point x="483.0" y="309" type="line"/>
      <point x="483.0" y="406" type="line"/>
      <point x="568.0" y="406" type="line" smooth="yes"/>
      <point x="595.0" y="406"/>
      <point x="608.0" y="419"/>
      <point x="608.0" y="446" type="curve" smooth="yes"/>
      <point x="608.0" y="554" type="line" smooth="yes"/>
      <point x="608.0" y="583"/>
      <point x="595.0" y="594"/>
      <point x="568.0" y="594" type="curve" smooth="yes"/>
      <point x="389.0" y="594" type="line" smooth="yes"/>
      <point x="348.0" y="594"/>
      <point x="310.0" y="585"/>
      <point x="278.0" y="573" type="curve" smooth="yes"/>
      <point x="109.0" y="511" type="line"/>
      <point x="81.0" y="499"/>
      <point x="70.0" y="486"/>
      <point x="70.0" y="455" type="curve" smooth="yes"/>
      <point x="70.0" y="266" type="line" smooth="yes"/>
      <point x="70.0" y="234"/>
      <point x="81.0" y="221"/>
      <point x="108.0" y="209" type="curve"/>
      <point x="163.0" y="190"/>
      <point x="223.0" y="167"/>
      <point x="278.0" y="148" type="curve" smooth="yes"/>
      <point x="309.0" y="135"/>
      <point x="348.0" y="126"/>
    </contour>
    <contour>
      <point x="235.0" y="353" type="line"/>
      <point x="234.0" y="353" type="line"/>
      <point x="235.0" y="353"/>
      <point x="232.0" y="350"/>
      <point x="232.0" y="351" type="curve" smooth="yes"/>
      <point x="232.0" y="364" type="line" smooth="yes"/>
      <point x="232.0" y="365"/>
      <point x="236.0" y="364"/>
      <point x="236.0" y="364" type="curve"/>
      <point x="327.0" y="393" type="line"/>
      <point x="327.0" y="322" type="line"/>
    </contour>
    <contour>
      <point x="55.0" y="123.0" type="move" name="top"/>
    </contour>
    <contour>
      <point x="593.0" y="123.0" type="move" name="bottom"/>
    </contour>
  </outline>
</glyph>
<glyph name="logicalnot" format="1">
  <advance width="574"/>
  <unicode hex="00AC"/>
  <outline>
    <contour>
      <point x="108.0" y="53" type="curve" smooth="yes"/>
      <point x="222.0" y="53" type="line" smooth="yes"/>
      <point x="255.0" y="53"/>
      <point x="268.0" y="67"/>
      <point x="268.0" y="99" type="curve" smooth="yes"/>
      <point x="268.0" y="451" type="line"/>
      <point x="466.0" y="451" type="line" smooth="yes"/>
      <point x="498.0" y="451"/>
      <point x="512.0" y="464"/>
      <point x="512.0" y="497" type="curve" smooth="yes"/>
      <point x="512.0" y="621" type="line" smooth="yes"/>
      <point x="512.0" y="654"/>
      <point x="498.0" y="667"/>
      <point x="466.0" y="667" type="curve" smooth="yes"/>
      <point x="108.0" y="667" type="line" smooth="yes"/>
      <point x="75.0" y="667"/>
      <point x="62.0" y="653"/>
      <point x="62.0" y="621" type="curve" smooth="yes"/>
      <point x="62.0" y="99" type="line" smooth="yes"/>
      <point x="62.0" y="67"/>
      <point x="76.0" y="53"/>
    </contour>
  </outline>
</glyph>
<glyph name="degree" format="1">
  <advance width="540"/>
  <unicode hex="00B0"/>
  <outline>
    <contour>
      <point x="178.0" y="566" type="line" smooth="yes"/>
      <point x="105.0" y="566"/>
      <point x="52.0" y="532"/>
      <point x="52.0" y="360" type="curve" smooth="yes"/>
      <point x="52.0" y="188"/>
      <point x="105.0" y="153"/>
      <point x="178.0" y="153" type="curve" smooth="yes"/>
      <point x="362.0" y="153" type="line" smooth="yes"/>
      <point x="435.0" y="153"/>
      <point x="488.0" y="188"/>
      <point x="488.0" y="360" type="curve" smooth="yes"/>
      <point x="488.0" y="532"/>
      <point x="435.0" y="566"/>
      <point x="362.0" y="566" type="curve" smooth="yes"/>
    </contour>
    <contour>
      <point x="228.0" y="320" type="line" smooth="yes"/>
      <point x="216.0" y="320"/>
      <point x="210.0" y="333"/>
      <point x="210.0" y="360" type="curve" smooth="yes"/>
      <point x="210.0" y="388"/>
      <point x="216.0" y="400"/>
      <point x="228.0" y="400" type="curve" smooth="yes"/>
      <point x="313.0" y="400" type="line" smooth="yes"/>
      <point x="326.0" y="400"/>
      <point x="330.0" y="386"/>
      <point x="330.0" y="360" type="curve" smooth="yes"/>
      <point x="330.0" y="334"/>
      <point x="326.0" y="320"/>
      <point x="313.0" y="320" type="curve" smooth="yes"/>
    </contour>
  </outline>
</glyph>
<glyph name="mu" format="1">
  <advance width="794"/>
  <unicode hex="00B5"/>
  <outline>
    <contour>
      <point x="103.0" y="54" type="curve" smooth="yes"/>
      <point x="691.0" y="54" type="line" smooth="yes"/>
      <point x="723.0" y="54"/>
      <point x="737.0" y="68"/>
      <point x="737.0" y="100" type="curve" smooth="yes"/>
      <point x="737.0" y="255" type="line" smooth="yes"/>
      <point x="737.0" y="287"/>
      <point x="723.0" y="301"/>
      <point x="691.0" y="301" type="curve" smooth="yes"/>
      <point x="656.0" y="301" type="line"/>
      <point x="660.0" y="324"/>
      <point x="662.0" y="351"/>
      <point x="662.0" y="381" type="curve" smooth="yes"/>
      <point x="662.0" y="616"/>
      <point x="574.0" y="670"/>
      <point x="448.0" y="670" type="curve" smooth="yes"/>
      <point x="103.0" y="670" type="line" smooth="yes"/>
      <point x="71.0" y="670"/>
      <point x="57.0" y="656"/>
      <point x="57.0" y="624" type="curve" smooth="yes"/>
      <point x="57.0" y="472" type="line" smooth="yes"/>
      <point x="57.0" y="439"/>
      <point x="71.0" y="426"/>
      <point x="103.0" y="426" type="curve" smooth="yes"/>
      <point x="419.0" y="426" type="line" smooth="yes"/>
      <point x="442.0" y="426"/>
      <point x="456.0" y="412"/>
      <point x="456.0" y="363" type="curve" smooth="yes"/>
      <point x="456.0" y="315"/>
      <point x="442.0" y="301"/>
      <point x="419.0" y="301" type="curve" smooth="yes"/>
      <point x="93.0" y="301" type="line"/>
      <point x="93.0" y="300" type="line"/>
      <point x="68.0" y="298"/>
      <point x="57.0" y="283"/>
      <point x="57.0" y="255" type="curve" smooth="yes"/>
      <point x="57.0" y="100" type="line" smooth="yes"/>
      <point x="57.0" y="68"/>
      <point x="71.0" y="54"/>
    </contour>
  </outline>
</glyph>
<glyph name="cedilla" format="1">
  <advance width="301"/>
  <unicode hex="00B8"/>
  <outline>
    <contour>
      <point x="247.0" y="428" type="curve" smooth="yes"/>
      <point x="70.0" y="491" type="line" smooth="yes"/>
      <point x="46.0" y="501"/>
      <point x="28.0" y="495"/>
      <point x="18.0" y="465" type="curve" smooth="yes"/>
      <point x="-25.0" y="349" type="line" smooth="yes"/>
      <point x="-37.0" y="318"/>
      <point x="-28.0" y="303"/>
      <point x="1.0" y="293" type="curve" smooth="yes"/>
      <point x="231.0" y="208" type="line" smooth="yes"/>
      <point x="262.0" y="196"/>
      <point x="284.0" y="201"/>
      <point x="284.0" y="247" type="curve" smooth="yes"/>
      <point x="284.0" y="373" type="line" smooth="yes"/>
      <point x="284.0" y="405"/>
      <point x="272.0" y="420"/>
    </contour>
    <contour>
      <point x="-599.0" y="360.0" type="move" name="_top"/>
    </contour>
    <contour>
      <point x="148.0" y="360.0" type="move" name="_bottom"/>
    </contour>
  </outline>
</glyph>
<glyph name="AE" format="1">
  <advance width="872"/>
  <unicode hex="00C6"/>
  <outline>
    <contour>
      <point x="502.0" y="19" type="curve" smooth="yes"/>
      <point x="756.0" y="19" type="line" smooth="yes"/>
      <point x="788.0" y="19"/>
      <point x="802.0" y="33"/>
      <point x="802.0" y="65" type="curve" smooth="yes"/>
      <point x="802.0" y="196" type="line" smooth="yes"/>
      <point x="802.0" y="228"/>
      <point x="788.0" y="242"/>
      <point x="756.0" y="242" type="curve" smooth="yes"/>
      <point x="626.0" y="242" type="line"/>
      <point x="626.0" y="320" type="line"/>
      <point x="756.0" y="320" type="line" smooth="yes"/>
      <point x="788.0" y="320"/>
      <point x="802.0" y="334"/>
      <point x="802.0" y="366" type="curve" smooth="yes"/>
      <point x="802.0" y="635" type="line" smooth="yes"/>
      <point x="802.0" y="667"/>
      <point x="788.0" y="681"/>
      <point x="756.0" y="681" type="curve" smooth="yes"/>
      <point x="639.0" y="681" type="line" smooth="yes"/>
      <point x="607.0" y="681"/>
      <point x="593.0" y="667"/>
      <point x="593.0" y="635" type="curve" smooth="yes"/>
      <point x="593.0" y="542" type="line"/>
      <point x="527.0" y="542" type="line"/>
      <point x="527.0" y="634" type="line" smooth="yes"/>
      <point x="527.0" y="666"/>
      <point x="513.0" y="680"/>
      <point x="481.0" y="680" type="curve" smooth="yes"/>
      <point x="374.0" y="680" type="line" smooth="yes"/>
      <point x="341.0" y="680"/>
      <point x="328.0" y="666"/>
      <point x="328.0" y="634" type="curve" smooth="yes"/>
      <point x="328.0" y="542" type="line"/>
      <point x="271.0" y="542" type="line"/>
      <point x="271.0" y="635" type="line" smooth="yes"/>
      <point x="271.0" y="667"/>
      <point x="257.0" y="681"/>
      <point x="225.0" y="681" type="curve" smooth="yes"/>
      <point x="108.0" y="681" type="line" smooth="yes"/>
      <point x="76.0" y="681"/>
      <point x="62.0" y="667"/>
      <point x="62.0" y="635" type="curve" smooth="yes"/>
      <point x="62.0" y="215" type="line" smooth="yes"/>
      <point x="62.0" y="176"/>
      <point x="74.0" y="156"/>
      <point x="110.0" y="144" type="curve" smooth="yes"/>
      <point x="348.0" y="49" type="line" smooth="yes"/>
      <point x="400.0" y="29"/>
      <point x="442.0" y="19"/>
    </contour>
    <contour>
      <point x="282.0" y="311" type="line" smooth="yes"/>
      <point x="276.0" y="314"/>
      <point x="272.0" y="315"/>
      <point x="271.0" y="320" type="curve"/>
      <point x="424.0" y="320" type="line"/>
      <point x="424.0" y="258" type="line"/>
    </contour>
  </outline>
</glyph>
<glyph name="Ccedilla" format="1">
  <advance width="905"/>
  <unicode hex="00C7"/>
  <outline>
    <contour>
      <point x="835" y="228" type="line" smooth="yes"/>
      <point x="866" y="216"/>
      <point x="888" y="221"/>
      <point x="888" y="267" type="curve" smooth="yes"/>
      <point x="888" y="393" type="line" smooth="yes"/>
      <point x="888" y="425"/>
      <point x="876" y="440"/>
      <point x="851" y="448" type="curve" smooth="yes"/>
      <point x="762" y="480" type="line"/>
      <point x="762" y="615" type="line" smooth="yes"/>
      <point x="762" y="647"/>
      <point x="748" y="661"/>
      <point x="716" y="661" type="curve" smooth="yes"/>
      <point x="597" y="661" type="line" smooth="yes"/>
      <point x="565" y="661"/>
      <point x="551" y="647"/>
      <point x="551" y="615" type="curve" smooth="yes"/>
      <point x="551" y="345" type="line" smooth="yes"/>
      <point x="551" y="304"/>
      <point x="536" y="294"/>
      <point x="513" y="294" type="curve" smooth="yes"/>
      <point x="315" y="294" type="line" smooth="yes"/>
      <point x="293" y="294"/>
      <point x="275" y="303"/>
      <point x="275" y="345" type="curve" smooth="yes"/>
      <point x="275" y="615" type="line" smooth="yes"/>
      <point x="275" y="647"/>
      <point x="261" y="661"/>
      <point x="229" y="661" type="curve" smooth="yes"/>
      <point x="108" y="661" type="line" smooth="yes"/>
      <point x="76" y="661"/>
      <point x="62" y="647"/>
      <point x="62" y="615" type="curve" smooth="yes"/>
      <point x="62" y="302" type="line" smooth="yes"/>
      <point x="62" y="104"/>
      <point x="150" y="46"/>
      <point x="277" y="46" type="curve" smooth="yes"/>
      <point x="548" y="46" type="line" smooth="yes"/>
      <point x="664" y="46"/>
      <point x="747" y="95"/>
      <point x="760" y="256" type="curve"/>
    </contour>
  </outline>
</glyph>
<glyph name="multiply" format="1">
  <advance width="692"/>
  <unicode hex="00D7"/>
  <outline>
    <contour>
      <point x="215.0" y="82" type="curve"/>
      <point x="347.0" y="214" type="line"/>
      <point x="479.0" y="82" type="line" smooth="yes"/>
      <point x="500.0" y="59"/>
      <point x="521.0" y="59"/>
      <point x="544.0" y="82" type="curve" smooth="yes"/>
      <point x="624.0" y="162" type="line" smooth="yes"/>
      <point x="648.0" y="186"/>
      <point x="647.0" y="206"/>
      <point x="624.0" y="227" type="curve"/>
      <point x="492.0" y="359" type="line"/>
      <point x="624.0" y="491" type="line" smooth="yes"/>
      <point x="647.0" y="512"/>
      <point x="648.0" y="532"/>
      <point x="624.0" y="556" type="curve" smooth="yes"/>
      <point x="544.0" y="636" type="line" smooth="yes"/>
      <point x="520.0" y="660"/>
      <point x="500.0" y="659"/>
      <point x="479.0" y="636" type="curve" smooth="yes"/>
      <point x="347.0" y="504" type="line"/>
      <point x="215.0" y="636" type="line" smooth="yes"/>
      <point x="194.0" y="659"/>
      <point x="174.0" y="660"/>
      <point x="150.0" y="636" type="curve" smooth="yes"/>
      <point x="70.0" y="556" type="line" smooth="yes"/>
      <point x="46.0" y="532"/>
      <point x="47.0" y="512"/>
      <point x="70.0" y="491" type="curve" smooth="yes"/>
      <point x="202.0" y="359" type="line"/>
      <point x="70.0" y="227" type="line" smooth="yes"/>
      <point x="47.0" y="206"/>
      <point x="47.0" y="185"/>
      <point x="70.0" y="162" type="curve" smooth="yes"/>
      <point x="150.0" y="82" type="line" smooth="yes"/>
      <point x="174.0" y="58"/>
      <point x="194.0" y="59"/>
    </contour>
  </outline>
</glyph>
<glyph name="Aogonek" format="1">
  <advance width="945"/>
  <unicode hex="0104"/>
  <outline>
    <contour>
      <point x="706" y="51" type="line" smooth="yes"/>
      <point x="738" y="51"/>
      <point x="752" y="64"/>
      <point x="752" y="97" type="curve" smooth="yes"/>
      <point x="752" y="244" type="line" smooth="yes"/>
      <point x="752" y="276"/>
      <point x="738" y="290"/>
      <point x="706" y="290" type="curve" smooth="yes"/>
      <point x="596" y="290" type="line"/>
      <point x="596" y="427" type="line"/>
      <point x="676" y="427" type="line"/>
      <point x="791" y="406" type="line" smooth="yes"/>
      <point x="894" y="391"/>
      <point x="938" y="424"/>
      <point x="938" y="517" type="curve" smooth="yes"/>
      <point x="938" y="628" type="line" smooth="yes"/>
      <point x="938" y="662"/>
      <point x="928" y="671"/>
      <point x="894" y="671" type="curve" smooth="yes"/>
      <point x="822" y="671" type="line" smooth="yes"/>
      <point x="789" y="671"/>
      <point x="778" y="661"/>
      <point x="778" y="625" type="curve" smooth="yes"/>
      <point x="778" y="596" type="line"/>
      <point x="752" y="600" type="line"/>
      <point x="752" y="627" type="line" smooth="yes"/>
      <point x="752" y="659"/>
      <point x="738" y="673"/>
      <point x="706" y="673" type="curve" smooth="yes"/>
      <point x="462" y="673" type="line" smooth="yes"/>
      <point x="391" y="673"/>
      <point x="376" y="663"/>
      <point x="298" y="633" type="curve" smooth="yes"/>
      <point x="91" y="546" type="line"/>
      <point x="62" y="536"/>
      <point x="52" y="518"/>
      <point x="52" y="487" type="curve" smooth="yes"/>
      <point x="52" y="228" type="line" smooth="yes"/>
      <point x="52" y="197"/>
      <point x="62" y="178"/>
      <point x="92" y="168" type="curve" smooth="yes"/>
      <point x="299" y="91" type="line" smooth="yes"/>
      <point x="376" y="61"/>
      <point x="391" y="51"/>
      <point x="462" y="51" type="curve" smooth="yes"/>
    </contour>
    <contour>
      <point x="275" y="346" type="line"/>
      <point x="276" y="346" type="line"/>
      <point x="269" y="349"/>
      <point x="265" y="349"/>
      <point x="265" y="356" type="curve" smooth="yes"/>
      <point x="265" y="361" type="line" smooth="yes"/>
      <point x="265" y="368"/>
      <point x="269" y="368"/>
      <point x="276" y="371" type="curve"/>
      <point x="275" y="371" type="line"/>
      <point x="394" y="414" type="line"/>
      <point x="394" y="304" type="line"/>
    </contour>
  </outline>
</glyph>
<glyph name="Eogonek" format="1">
  <advance width="963"/>
  <unicode hex="0118"/>
  <outline>
    <contour>
      <point x="724" y="50" type="line" smooth="yes"/>
      <point x="756" y="50"/>
      <point x="770" y="64"/>
      <point x="770" y="96" type="curve" smooth="yes"/>
      <point x="770" y="402" type="line"/>
      <point x="809" y="395" type="line" smooth="yes"/>
      <point x="912" y="380"/>
      <point x="956" y="413"/>
      <point x="956" y="506" type="curve" smooth="yes"/>
      <point x="956" y="617" type="line" smooth="yes"/>
      <point x="956" y="651"/>
      <point x="946" y="660"/>
      <point x="912" y="660" type="curve" smooth="yes"/>
      <point x="840" y="660" type="line" smooth="yes"/>
      <point x="807" y="660"/>
      <point x="796" y="650"/>
      <point x="796" y="614" type="curve" smooth="yes"/>
      <point x="796" y="585" type="line"/>
      <point x="770" y="589" type="line"/>
      <point x="770" y="614" type="line" smooth="yes"/>
      <point x="770" y="646"/>
      <point x="756" y="660"/>
      <point x="724" y="660" type="curve" smooth="yes"/>
      <point x="611" y="660" type="line" smooth="yes"/>
      <point x="579" y="660"/>
      <point x="565" y="646"/>
      <point x="565" y="614" type="curve" smooth="yes"/>
      <point x="565" y="294" type="line"/>
      <point x="509" y="294" type="line"/>
      <point x="509" y="533" type="line" smooth="yes"/>
      <point x="509" y="565"/>
      <point x="495" y="579"/>
      <point x="463" y="579" type="curve" smooth="yes"/>
      <point x="368" y="579" type="line" smooth="yes"/>
      <point x="335" y="579"/>
      <point x="322" y="565"/>
      <point x="322" y="533" type="curve" smooth="yes"/>
      <point x="322" y="294" type="line"/>
      <point x="275" y="294" type="line"/>
      <point x="275" y="614" type="line" smooth="yes"/>
      <point x="275" y="646"/>
      <point x="261" y="660"/>
      <point x="229" y="660" type="curve" smooth="yes"/>
      <point x="116" y="660" type="line" smooth="yes"/>
      <point x="84" y="660"/>
      <point x="70" y="646"/>
      <point x="70" y="614" type="curve" smooth="yes"/>
      <point x="70" y="96" type="line" smooth="yes"/>
      <point x="70" y="64"/>
      <point x="84" y="50"/>
      <point x="116" y="50" type="curve" smooth="yes"/>
    </contour>
  </outline>
</glyph>
<glyph name="Iogonek" format="1">
  <advance width="963"/>
  <unicode hex="012E"/>
  <outline>
    <contour>
      <point x="283" y="105" type="curve" smooth="yes"/>
      <point x="283" y="229" type="line"/>
      <point x="559" y="229" type="line"/>
      <point x="559" y="105" type="line" smooth="yes"/>
      <point x="559" y="73"/>
      <point x="573" y="59"/>
      <point x="605" y="59" type="curve" smooth="yes"/>
      <point x="724" y="59" type="line" smooth="yes"/>
      <point x="756" y="59"/>
      <point x="770" y="73"/>
      <point x="770" y="105" type="curve" smooth="yes"/>
      <point x="770" y="403" type="line"/>
      <point x="809" y="396" type="line" smooth="yes"/>
      <point x="912" y="381"/>
      <point x="956" y="414"/>
      <point x="956" y="507" type="curve" smooth="yes"/>
      <point x="956" y="618" type="line" smooth="yes"/>
      <point x="956" y="652"/>
      <point x="946" y="661"/>
      <point x="912" y="661" type="curve" smooth="yes"/>
      <point x="840" y="661" type="line" smooth="yes"/>
      <point x="807" y="661"/>
      <point x="796" y="651"/>
      <point x="796" y="615" type="curve" smooth="yes"/>
      <point x="796" y="586" type="line"/>
      <point x="770" y="590" type="line"/>
      <point x="770" y="615" type="line" smooth="yes"/>
      <point x="770" y="647"/>
      <point x="756" y="661"/>
      <point x="724" y="661" type="curve" smooth="yes"/>
      <point x="605" y="661" type="line" smooth="yes"/>
      <point x="573" y="661"/>
      <point x="559" y="647"/>
      <point x="559" y="615" type="curve" smooth="yes"/>
      <point x="559" y="491" type="line"/>
      <point x="283" y="491" type="line"/>
      <point x="283" y="615" type="line" smooth="yes"/>
      <point x="283" y="647"/>
      <point x="269" y="661"/>
      <point x="237" y="661" type="curve" smooth="yes"/>
      <point x="116" y="661" type="line" smooth="yes"/>
      <point x="84" y="661"/>
      <point x="70" y="647"/>
      <point x="70" y="615" type="curve" smooth="yes"/>
      <point x="70" y="105" type="line" smooth="yes"/>
      <point x="70" y="73"/>
      <point x="84" y="59"/>
      <point x="116" y="59" type="curve" smooth="yes"/>
      <point x="237" y="59" type="line" smooth="yes"/>
      <point x="269" y="59"/>
      <point x="283" y="73"/>
    </contour>
  </outline>
</glyph>
<glyph name="IJ" format="1">
  <advance width="859"/>
  <unicode hex="0132"/>
  <outline>
    <contour>
      <point x="797.0" y="96" type="curve" smooth="yes"/>
      <point x="797.0" y="447" type="line" smooth="yes"/>
      <point x="797.0" y="585"/>
      <point x="715.0" y="670"/>
      <point x="577.0" y="670" type="curve" smooth="yes"/>
      <point x="103.0" y="670" type="line" smooth="yes"/>
      <point x="71.0" y="670"/>
      <point x="57.0" y="656"/>
      <point x="57.0" y="624" type="curve" smooth="yes"/>
      <point x="57.0" y="469" type="line" smooth="yes"/>
      <point x="57.0" y="437"/>
      <point x="71.0" y="423"/>
      <point x="103.0" y="423" type="curve" smooth="yes"/>
      <point x="527.0" y="423" type="line" smooth="yes"/>
      <point x="568.0" y="423"/>
      <point x="584.0" y="401"/>
      <point x="584.0" y="360" type="curve" smooth="yes"/>
      <point x="584.0" y="96" type="line" smooth="yes"/>
      <point x="584.0" y="64"/>
      <point x="598.0" y="50"/>
      <point x="630.0" y="50" type="curve" smooth="yes"/>
      <point x="751.0" y="50" type="line" smooth="yes"/>
      <point x="783.0" y="50"/>
      <point x="797.0" y="64"/>
    </contour>
    <contour>
      <point x="421.0" y="297" type="curve" smooth="yes"/>
      <point x="103.0" y="297" type="line" smooth="yes"/>
      <point x="71.0" y="297"/>
      <point x="57.0" y="283"/>
      <point x="57.0" y="251" type="curve" smooth="yes"/>
      <point x="57.0" y="96" type="line" smooth="yes"/>
      <point x="57.0" y="64"/>
      <point x="71.0" y="50"/>
      <point x="103.0" y="50" type="curve" smooth="yes"/>
      <point x="421.0" y="50" type="line" smooth="yes"/>
      <point x="453.0" y="50"/>
      <point x="467.0" y="64"/>
      <point x="467.0" y="96" type="curve" smooth="yes"/>
      <point x="467.0" y="251" type="line" smooth="yes"/>
      <point x="467.0" y="283"/>
      <point x="453.0" y="297"/>
    </contour>
  </outline>
</glyph>
<glyph name="Ldot" format="1">
  <advance width="1012"/>
  <unicode hex="013F"/>
  <outline>
    <contour>
      <point x="91" y="50" type="curve" smooth="yes"/>
      <point x="699" y="50" type="line" smooth="yes"/>
      <point x="731" y="50"/>
      <point x="745" y="64"/>
      <point x="745" y="96" type="curve" smooth="yes"/>
      <point x="745" y="624" type="line" smooth="yes"/>
      <point x="745" y="656"/>
      <point x="731" y="670"/>
      <point x="699" y="670" type="curve" smooth="yes"/>
      <point x="394" y="670" type="line" smooth="yes"/>
      <point x="362" y="670"/>
      <point x="348" y="656"/>
      <point x="348" y="624" type="curve" smooth="yes"/>
      <point x="348" y="479" type="line" smooth="yes"/>
      <point x="348" y="447"/>
      <point x="362" y="433"/>
      <point x="394" y="433" type="curve" smooth="yes"/>
      <point x="536" y="433" type="line"/>
      <point x="536" y="297" type="line"/>
      <point x="91" y="297" type="line" smooth="yes"/>
      <point x="59" y="297"/>
      <point x="45" y="283"/>
      <point x="45" y="251" type="curve" smooth="yes"/>
      <point x="45" y="96" type="line" smooth="yes"/>
      <point x="45" y="64"/>
      <point x="59" y="50"/>
    </contour>
    <contour>
      <point x="959" y="502" type="curve" smooth="yes"/>
      <point x="832" y="502" type="line" smooth="yes"/>
      <point x="800" y="502"/>
      <point x="786" y="488"/>
      <point x="786" y="456" type="curve" smooth="yes"/>
      <point x="786" y="298" type="line" smooth="yes"/>
      <point x="786" y="266"/>
      <point x="800" y="252"/>
      <point x="832" y="252" type="curve" smooth="yes"/>
      <point x="959" y="252" type="line" smooth="yes"/>
      <point x="991" y="252"/>
      <point x="1005" y="266"/>
      <point x="1005" y="298" type="curve" smooth="yes"/>
      <point x="1005" y="456" type="line" smooth="yes"/>
      <point x="1005" y="488"/>
      <point x="991" y="502"/>
    </contour>
  </outline>
</glyph>
<glyph name="Lslash" format="1">
  <advance width="855"/>
  <unicode hex="0141"/>
  <outline>
    <contour>
      <point x="502" y="40" type="curve" smooth="yes"/>
      <point x="500" y="51" type="line"/>
      <point x="739" y="51" type="line" smooth="yes"/>
      <point x="771" y="51"/>
      <point x="785" y="65"/>
      <point x="785" y="97" type="curve" smooth="yes"/>
      <point x="785" y="625" type="line" smooth="yes"/>
      <point x="785" y="657"/>
      <point x="771" y="671"/>
      <point x="739" y="671" type="curve" smooth="yes"/>
      <point x="424" y="671" type="line" smooth="yes"/>
      <point x="392" y="671"/>
      <point x="378" y="657"/>
      <point x="378" y="625" type="curve" smooth="yes"/>
      <point x="378" y="480" type="line" smooth="yes"/>
      <point x="378" y="448"/>
      <point x="392" y="434"/>
      <point x="424" y="434" type="curve" smooth="yes"/>
      <point x="576" y="434" type="line"/>
      <point x="576" y="298" type="line"/>
      <point x="460" y="298" type="line"/>
      <point x="452" y="348" type="line" smooth="yes"/>
      <point x="447" y="379"/>
      <point x="438" y="392"/>
      <point x="406" y="392" type="curve" smooth="yes"/>
      <point x="299" y="392" type="line" smooth="yes"/>
      <point x="264" y="392"/>
      <point x="248" y="376"/>
      <point x="253" y="344" type="curve" smooth="yes"/>
      <point x="260" y="298" type="line"/>
      <point x="91" y="298" type="line" smooth="yes"/>
      <point x="59" y="298"/>
      <point x="45" y="284"/>
      <point x="45" y="252" type="curve" smooth="yes"/>
      <point x="45" y="97" type="line" smooth="yes"/>
      <point x="45" y="65"/>
      <point x="59" y="51"/>
      <point x="91" y="51" type="curve" smooth="yes"/>
      <point x="301" y="51" type="line"/>
      <point x="303" y="36" type="line" smooth="yes"/>
      <point x="308" y="5"/>
      <point x="318" y="-8"/>
      <point x="349" y="-8" type="curve" smooth="yes"/>
      <point x="456" y="-8" type="line" smooth="yes"/>
      <point x="491" y="-8"/>
      <point x="507" y="8"/>
    </contour>
  </outline>
</glyph>
<glyph name="Scedilla" format="1">
  <advance width="905"/>
  <unicode hex="015E"/>
  <outline>
    <contour>
      <point x="514" y="214" type="curve" smooth="yes"/>
      <point x="525" y="406" type="line"/>
      <point x="526" y="417"/>
      <point x="529" y="423"/>
      <point x="544" y="423" type="curve" smooth="yes"/>
      <point x="554" y="423"/>
      <point x="563" y="418"/>
      <point x="563" y="407" type="curve" smooth="yes"/>
      <point x="563" y="96" type="line" smooth="yes"/>
      <point x="563" y="64"/>
      <point x="577" y="50"/>
      <point x="609" y="50" type="curve" smooth="yes"/>
      <point x="716" y="50" type="line" smooth="yes"/>
      <point x="748" y="50"/>
      <point x="762" y="64"/>
      <point x="762" y="96" type="curve" smooth="yes"/>
      <point x="762" y="219" type="line"/>
      <point x="835" y="192" type="line" smooth="yes"/>
      <point x="866" y="180"/>
      <point x="888" y="185"/>
      <point x="888" y="231" type="curve" smooth="yes"/>
      <point x="888" y="357" type="line" smooth="yes"/>
      <point x="888" y="389"/>
      <point x="876" y="404"/>
      <point x="851" y="412" type="curve" smooth="yes"/>
      <point x="762" y="444" type="line"/>
      <point x="762" y="454" type="line" smooth="yes"/>
      <point x="762" y="590"/>
      <point x="696" y="671"/>
      <point x="576" y="671" type="curve" smooth="yes"/>
      <point x="481" y="671" type="line" smooth="yes"/>
      <point x="363" y="671"/>
      <point x="325" y="606"/>
      <point x="310" y="506" type="curve" smooth="yes"/>
      <point x="300" y="315" type="line"/>
      <point x="299" y="304"/>
      <point x="295" y="297"/>
      <point x="283" y="297" type="curve" smooth="yes"/>
      <point x="272" y="297"/>
      <point x="263" y="303"/>
      <point x="263" y="314" type="curve" smooth="yes"/>
      <point x="263" y="599" type="line" smooth="yes"/>
      <point x="263" y="631"/>
      <point x="249" y="645"/>
      <point x="217" y="645" type="curve" smooth="yes"/>
      <point x="108" y="645" type="line" smooth="yes"/>
      <point x="76" y="645"/>
      <point x="62" y="631"/>
      <point x="62" y="599" type="curve" smooth="yes"/>
      <point x="62" y="267" type="line" smooth="yes"/>
      <point x="62" y="130"/>
      <point x="128" y="50"/>
      <point x="248" y="50" type="curve" smooth="yes"/>
      <point x="343" y="50" type="line" smooth="yes"/>
      <point x="461" y="50"/>
      <point x="499" y="114"/>
    </contour>
  </outline>
</glyph>
<glyph name="Tcommaaccent" format="1">
  <advance width="1002"/>
  <unicode hex="0162"/>
  <outline>
    <contour>
      <point x="116" y="50" type="curve" smooth="yes"/>
      <point x="237" y="50" type="line" smooth="yes"/>
      <point x="269" y="50"/>
      <point x="283" y="64"/>
      <point x="283" y="96" type="curve" smooth="yes"/>
      <point x="283" y="230" type="line"/>
      <point x="644" y="230" type="line" smooth="yes"/>
      <point x="676" y="230"/>
      <point x="690" y="244"/>
      <point x="690" y="276" type="curve" smooth="yes"/>
      <point x="690" y="444" type="line" smooth="yes"/>
      <point x="690" y="476"/>
      <point x="676" y="490"/>
      <point x="644" y="490" type="curve" smooth="yes"/>
      <point x="283" y="490" type="line"/>
      <point x="283" y="624" type="line" smooth="yes"/>
      <point x="283" y="656"/>
      <point x="269" y="670"/>
      <point x="237" y="670" type="curve" smooth="yes"/>
      <point x="116" y="670" type="line" smooth="yes"/>
      <point x="84" y="670"/>
      <point x="70" y="656"/>
      <point x="70" y="624" type="curve" smooth="yes"/>
      <point x="70" y="96" type="line" smooth="yes"/>
      <point x="70" y="64"/>
      <point x="84" y="50"/>
    </contour>
    <contour>
      <point x="829" y="234" type="line" smooth="yes"/>
      <point x="867" y="234"/>
      <point x="878" y="246"/>
      <point x="878" y="281" type="curve" smooth="yes"/>
      <point x="878" y="357" type="line"/>
      <point x="881" y="357" type="line" smooth="yes"/>
      <point x="889" y="357"/>
      <point x="895" y="353"/>
      <point x="895" y="344" type="curve" smooth="yes"/>
      <point x="895" y="285" type="line" smooth="yes"/>
      <point x="895" y="257"/>
      <point x="907" y="245"/>
      <point x="935" y="245" type="curve" smooth="yes"/>
      <point x="959" y="245" type="line" smooth="yes"/>
      <point x="988" y="245"/>
      <point x="1000" y="257"/>
      <point x="1000" y="285" type="curve" smooth="yes"/>
      <point x="1000" y="351" type="line" smooth="yes"/>
      <point x="1000" y="433"/>
      <point x="955" y="486"/>
      <point x="862" y="486" type="curve" smooth="yes"/>
      <point x="750" y="486" type="line" smooth="yes"/>
      <point x="711" y="486"/>
      <point x="700" y="474"/>
      <point x="700" y="439" type="curve" smooth="yes"/>
      <point x="700" y="281" type="line" smooth="yes"/>
      <point x="700" y="246"/>
      <point x="711" y="234"/>
      <point x="750" y="234" type="curve" smooth="yes"/>
    </contour>
  </outline>
</glyph>
<glyph name="Uogonek" format="1">
  <advance width="961"/>
  <unicode hex="0172"/>
  <outline>
    <contour>
      <point x="807" y="245" type="line" smooth="yes"/>
      <point x="910" y="230"/>
      <point x="954" y="263"/>
      <point x="954" y="356" type="curve" smooth="yes"/>
      <point x="954" y="467" type="line" smooth="yes"/>
      <point x="954" y="501"/>
      <point x="944" y="510"/>
      <point x="910" y="510" type="curve" smooth="yes"/>
      <point x="838" y="510" type="line" smooth="yes"/>
      <point x="805" y="510"/>
      <point x="794" y="500"/>
      <point x="794" y="464" type="curve" smooth="yes"/>
      <point x="794" y="435" type="line"/>
      <point x="769" y="439" type="line"/>
      <point x="751" y="624"/>
      <point x="670" y="670"/>
      <point x="558" y="670" type="curve" smooth="yes"/>
      <point x="103" y="670" type="line" smooth="yes"/>
      <point x="71" y="670"/>
      <point x="57" y="656"/>
      <point x="57" y="624" type="curve" smooth="yes"/>
      <point x="57" y="472" type="line" smooth="yes"/>
      <point x="57" y="439"/>
      <point x="71" y="426"/>
      <point x="103" y="426" type="curve" smooth="yes"/>
      <point x="519" y="426" type="line" smooth="yes"/>
      <point x="542" y="426"/>
      <point x="556" y="411"/>
      <point x="556" y="362" type="curve" smooth="yes"/>
      <point x="556" y="314"/>
      <point x="542" y="299"/>
      <point x="519" y="299" type="curve" smooth="yes"/>
      <point x="103" y="299" type="line" smooth="yes"/>
      <point x="71" y="299"/>
      <point x="57" y="285"/>
      <point x="57" y="253" type="curve" smooth="yes"/>
      <point x="57" y="96" type="line" smooth="yes"/>
      <point x="57" y="64"/>
      <point x="71" y="50"/>
      <point x="103" y="50" type="curve" smooth="yes"/>
      <point x="558" y="50" type="line" smooth="yes"/>
      <point x="664" y="50"/>
      <point x="743" y="91"/>
      <point x="765" y="253" type="curve"/>
    </contour>
  </outline>
</glyph>
<glyph name="florin" format="1">
  <advance width="844"/>
  <unicode hex="0192"/>
  <outline>
    <contour>
      <point x="476.0" y="108" type="line" smooth="yes"/>
      <point x="509.0" y="108"/>
      <point x="522.0" y="122"/>
      <point x="522.0" y="154" type="curve" smooth="yes"/>
      <point x="522.0" y="236" type="line"/>
      <point x="539.0" y="236" type="line" smooth="yes"/>
      <point x="559.0" y="236"/>
      <point x="579.0" y="233"/>
      <point x="579.0" y="205" type="curve" smooth="yes"/>
      <point x="579.0" y="154" type="line" smooth="yes"/>
      <point x="579.0" y="122"/>
      <point x="593.0" y="108"/>
      <point x="625.0" y="108" type="curve" smooth="yes"/>
      <point x="746.0" y="108" type="line" smooth="yes"/>
      <point x="778.0" y="108"/>
      <point x="792.0" y="122"/>
      <point x="792.0" y="154" type="curve" smooth="yes"/>
      <point x="792.0" y="228" type="line" smooth="yes"/>
      <point x="792.0" y="426"/>
      <point x="704.0" y="484"/>
      <point x="577.0" y="484" type="curve" smooth="yes"/>
      <point x="522.0" y="484" type="line"/>
      <point x="522.0" y="566" type="line" smooth="yes"/>
      <point x="522.0" y="598"/>
      <point x="509.0" y="612"/>
      <point x="476.0" y="612" type="curve" smooth="yes"/>
      <point x="369.0" y="612" type="line" smooth="yes"/>
      <point x="336.0" y="612"/>
      <point x="323.0" y="598"/>
      <point x="323.0" y="566" type="curve" smooth="yes"/>
      <point x="323.0" y="484" type="line"/>
      <point x="305.0" y="484" type="line" smooth="yes"/>
      <point x="285.0" y="484"/>
      <point x="265.0" y="487"/>
      <point x="265.0" y="515" type="curve" smooth="yes"/>
      <point x="265.0" y="566" type="line" smooth="yes"/>
      <point x="265.0" y="598"/>
      <point x="251.0" y="612"/>
      <point x="219.0" y="612" type="curve" smooth="yes"/>
      <point x="98.0" y="612" type="line" smooth="yes"/>
      <point x="66.0" y="612"/>
      <point x="52.0" y="598"/>
      <point x="52.0" y="566" type="curve" smooth="yes"/>
      <point x="52.0" y="492" type="line" smooth="yes"/>
      <point x="52.0" y="294"/>
      <point x="140.0" y="236"/>
      <point x="267.0" y="236" type="curve" smooth="yes"/>
      <point x="323.0" y="236" type="line"/>
      <point x="323.0" y="154" type="line" smooth="yes"/>
      <point x="323.0" y="122"/>
      <point x="337.0" y="108"/>
      <point x="369.0" y="108" type="curve" smooth="yes"/>
    </contour>
  </outline>
</glyph>
<glyph name="circumflex" format="1">
  <advance width="269"/>
  <unicode hex="02C6"/>
  <outline>
    <contour>
      <point x="125.0" y="140" type="curve" smooth="yes"/>
      <point x="206.0" y="140" type="line"/>
      <point x="254.0" y="140"/>
      <point x="261.0" y="150"/>
      <point x="247.0" y="194" type="curve" smooth="yes"/>
      <point x="207.0" y="331" type="line"/>
      <point x="201.0" y="352"/>
      <point x="201.0" y="366"/>
      <point x="207.0" y="387" type="curve" smooth="yes"/>
      <point x="247.0" y="524" type="line" smooth="yes"/>
      <point x="261.0" y="570"/>
      <point x="253.0" y="579"/>
      <point x="206.0" y="579" type="curve" smooth="yes"/>
      <point x="125.0" y="579" type="line" smooth="yes"/>
      <point x="83.0" y="579"/>
      <point x="78.0" y="571"/>
      <point x="63.0" y="531" type="curve" smooth="yes"/>
      <point x="13.0" y="393" type="line" smooth="yes"/>
      <point x="8.0" y="383"/>
      <point x="7.0" y="371"/>
      <point x="7.0" y="358" type="curve"/>
      <point x="8.0" y="344"/>
      <point x="11.0" y="328"/>
      <point x="17.0" y="315" type="curve" smooth="yes"/>
      <point x="63.0" y="188" type="line" smooth="yes"/>
      <point x="78.0" y="150"/>
      <point x="83.0" y="140"/>
    </contour>
    <contour>
      <point x="247.0" y="360.0" type="move" name="_top"/>
    </contour>
    <contour>
      <point x="994.0" y="360.0" type="move" name="_bottom"/>
    </contour>
  </outline>
</glyph>
<glyph name="caron" format="1">
  <advance width="269"/>
  <unicode hex="02C7"/>
  <outline>
    <contour>
      <point x="64.0" y="140" type="curve" smooth="yes"/>
      <point x="145.0" y="140" type="line"/>
      <point x="187.0" y="140"/>
      <point x="192.0" y="148"/>
      <point x="207.0" y="188" type="curve" smooth="yes"/>
      <point x="257.0" y="326" type="line" smooth="yes"/>
      <point x="262.0" y="336"/>
      <point x="263.0" y="348"/>
      <point x="263.0" y="361" type="curve"/>
      <point x="262.0" y="375"/>
      <point x="259.0" y="391"/>
      <point x="253.0" y="404" type="curve" smooth="yes"/>
      <point x="207.0" y="531" type="line" smooth="yes"/>
      <point x="192.0" y="569"/>
      <point x="187.0" y="579"/>
      <point x="145.0" y="579" type="curve" smooth="yes"/>
      <point x="64.0" y="579" type="line" smooth="yes"/>
      <point x="16.0" y="579"/>
      <point x="9.0" y="569"/>
      <point x="23.0" y="525" type="curve" smooth="yes"/>
      <point x="63.0" y="388" type="line"/>
      <point x="69.0" y="367"/>
      <point x="69.0" y="353"/>
      <point x="63.0" y="332" type="curve" smooth="yes"/>
      <point x="23.0" y="195" type="line" smooth="yes"/>
      <point x="9.0" y="149"/>
      <point x="17.0" y="140"/>
    </contour>
    <contour>
      <point x="257.0" y="360.0" type="move" name="_top"/>
    </contour>
    <contour>
      <point x="1004.0" y="360.0" type="move" name="_bottom"/>
    </contour>
  </outline>
</glyph>
<glyph name="breve" format="1">
  <advance width="267"/>
  <unicode hex="02D8"/>
  <outline>
    <contour>
      <point x="63.0" y="587" type="line" smooth="yes"/>
      <point x="31.0" y="587"/>
      <point x="17.0" y="573"/>
      <point x="17.0" y="541" type="curve" smooth="yes"/>
      <point x="17.0" y="450" type="line" smooth="yes"/>
      <point x="17.0" y="420"/>
      <point x="26.0" y="410"/>
      <point x="58.0" y="410" type="curve" smooth="yes"/>
      <point x="79.0" y="410" type="line" smooth="yes"/>
      <point x="95.0" y="410"/>
      <point x="102.0" y="396"/>
      <point x="102.0" y="361" type="curve" smooth="yes"/>
      <point x="102.0" y="327"/>
      <point x="95.0" y="314"/>
      <point x="79.0" y="314" type="curve" smooth="yes"/>
      <point x="58.0" y="314" type="line" smooth="yes"/>
      <point x="26.0" y="314"/>
      <point x="17.0" y="303"/>
      <point x="17.0" y="275" type="curve" smooth="yes"/>
      <point x="17.0" y="179" type="line" smooth="yes"/>
      <point x="17.0" y="147"/>
      <point x="31.0" y="133"/>
      <point x="63.0" y="133" type="curve" smooth="yes"/>
      <point x="107.0" y="133" type="line"/>
      <point x="196.0" y="133"/>
      <point x="260.0" y="174"/>
      <point x="260.0" y="360" type="curve" smooth="yes"/>
      <point x="260.0" y="546"/>
      <point x="196.0" y="587"/>
      <point x="107.0" y="587" type="curve" smooth="yes"/>
    </contour>
    <contour>
      <point x="257.0" y="360.0" type="move" name="_top"/>
    </contour>
    <contour>
      <point x="1004.0" y="360.0" type="move" name="_bottom"/>
    </contour>
  </outline>
</glyph>
<glyph name="dotaccent" format="1">
  <advance width="233"/>
  <unicode hex="02D9"/>
  <outline>
    <contour>
      <point x="180.0" y="486" type="curve" smooth="yes"/>
      <point x="53.0" y="486" type="line" smooth="yes"/>
      <point x="21.0" y="486"/>
      <point x="7.0" y="472"/>
      <point x="7.0" y="440" type="curve" smooth="yes"/>
      <point x="7.0" y="282" type="line" smooth="yes"/>
      <point x="7.0" y="250"/>
      <point x="21.0" y="236"/>
      <point x="53.0" y="236" type="curve" smooth="yes"/>
      <point x="180.0" y="236" type="line" smooth="yes"/>
      <point x="212.0" y="236"/>
      <point x="226.0" y="250"/>
      <point x="226.0" y="282" type="curve" smooth="yes"/>
      <point x="226.0" y="440" type="line" smooth="yes"/>
      <point x="226.0" y="472"/>
      <point x="212.0" y="486"/>
    </contour>
    <contour>
      <point x="229.0" y="360.0" type="move" name="_top"/>
    </contour>
    <contour>
      <point x="976.0" y="360.0" type="move" name="_bottom"/>
    </contour>
  </outline>
</glyph>
<glyph name="hungarumlaut" format="1">
  <advance width="351"/>
  <unicode hex="02DD"/>
  <outline>
    <contour>
      <point x="324.0" y="398" type="curve" smooth="yes"/>
      <point x="324.0" y="504" type="line" smooth="yes"/>
      <point x="324.0" y="535"/>
      <point x="311.0" y="542"/>
      <point x="280.0" y="550" type="curve" smooth="yes"/>
      <point x="73.0" y="603" type="line" smooth="yes"/>
      <point x="45.0" y="610"/>
      <point x="27.0" y="592"/>
      <point x="27.0" y="560" type="curve" smooth="yes"/>
      <point x="27.0" y="454" type="line" smooth="yes"/>
      <point x="27.0" y="423"/>
      <point x="40.0" y="416"/>
      <point x="71.0" y="408" type="curve" smooth="yes"/>
      <point x="278.0" y="355" type="line"/>
      <point x="277.0" y="355" type="line"/>
      <point x="306.0" y="348"/>
      <point x="324.0" y="366"/>
    </contour>
    <contour>
      <point x="324.0" y="138" type="curve" smooth="yes"/>
      <point x="324.0" y="244" type="line" smooth="yes"/>
      <point x="324.0" y="275"/>
      <point x="311.0" y="282"/>
      <point x="280.0" y="290" type="curve" smooth="yes"/>
      <point x="73.0" y="343" type="line" smooth="yes"/>
      <point x="45.0" y="350"/>
      <point x="27.0" y="332"/>
      <point x="27.0" y="300" type="curve" smooth="yes"/>
      <point x="27.0" y="194" type="line" smooth="yes"/>
      <point x="27.0" y="163"/>
      <point x="40.0" y="156"/>
      <point x="71.0" y="148" type="curve" smooth="yes"/>
      <point x="278.0" y="95" type="line"/>
      <point x="277.0" y="95" type="line"/>
      <point x="306.0" y="88"/>
      <point x="324.0" y="106"/>
    </contour>
  </outline>
</glyph>
<glyph name="commaaccent" format="1">
  <advance width="309"/>
  <unicode hex="0326"/>
  <outline>
    <contour>
      <point x="136.0" y="235" type="line" smooth="yes"/>
      <point x="174.0" y="235"/>
      <point x="185.0" y="247"/>
      <point x="185.0" y="282" type="curve" smooth="yes"/>
      <point x="185.0" y="358" type="line"/>
      <point x="188.0" y="358" type="line" smooth="yes"/>
      <point x="196.0" y="358"/>
      <point x="202.0" y="354"/>
      <point x="202.0" y="345" type="curve" smooth="yes"/>
      <point x="202.0" y="286" type="line" smooth="yes"/>
      <point x="202.0" y="258"/>
      <point x="214.0" y="246"/>
      <point x="242.0" y="246" type="curve" smooth="yes"/>
      <point x="266.0" y="246" type="line" smooth="yes"/>
      <point x="295.0" y="246"/>
      <point x="307.0" y="258"/>
      <point x="307.0" y="286" type="curve" smooth="yes"/>
      <point x="307.0" y="352" type="line" smooth="yes"/>
      <point x="307.0" y="434"/>
      <point x="262.0" y="487"/>
      <point x="169.0" y="487" type="curve" smooth="yes"/>
      <point x="57.0" y="487" type="line" smooth="yes"/>
      <point x="18.0" y="487"/>
      <point x="7.0" y="475"/>
      <point x="7.0" y="440" type="curve" smooth="yes"/>
      <point x="7.0" y="282" type="line" smooth="yes"/>
      <point x="7.0" y="247"/>
      <point x="18.0" y="235"/>
      <point x="57.0" y="235" type="curve" smooth="yes"/>
    </contour>
  </outline>
</glyph>
<glyph name="perthousand" format="1">
  <advance width="890"/>
  <unicode hex="2030"/>
  <outline>
    <contour>
      <point x="582.0" y="577" type="line" smooth="yes"/>
      <point x="577.0" y="577"/>
      <point x="575.0" y="582"/>
      <point x="575.0" y="591" type="curve" smooth="yes"/>
      <point x="575.0" y="599"/>
      <point x="577.0" y="604"/>
      <point x="582.0" y="604" type="curve" smooth="yes"/>
      <point x="660.0" y="604" type="line" smooth="yes"/>
      <point x="666.0" y="604"/>
      <point x="668.0" y="600"/>
      <point x="668.0" y="591" type="curve" smooth="yes"/>
      <point x="668.0" y="582"/>
      <point x="666.0" y="577"/>
      <point x="660.0" y="577" type="curve" smooth="yes"/>
    </contour>
    <contour>
      <point x="582.0" y="385" type="line" smooth="yes"/>
      <point x="577.0" y="385"/>
      <point x="575.0" y="390"/>
      <point x="575.0" y="399" type="curve" smooth="yes"/>
      <point x="575.0" y="407"/>
      <point x="577.0" y="412"/>
      <point x="582.0" y="412" type="curve" smooth="yes"/>
      <point x="660.0" y="412" type="line" smooth="yes"/>
      <point x="666.0" y="412"/>
      <point x="668.0" y="408"/>
      <point x="668.0" y="399" type="curve" smooth="yes"/>
      <point x="668.0" y="390"/>
      <point x="666.0" y="385"/>
      <point x="660.0" y="385" type="curve" smooth="yes"/>
    </contour>
    <contour>
      <point x="339.0" y="-47" type="line" smooth="yes"/>
      <point x="414.0" y="-47"/>
      <point x="468.0" y="-14"/>
      <point x="468.0" y="132" type="curve" smooth="yes"/>
      <point x="468.0" y="142"/>
      <point x="468.0" y="152"/>
      <point x="467.0" y="160" type="curve"/>
      <point x="763.0" y="-37" type="line" smooth="yes"/>
      <point x="793.0" y="-57"/>
      <point x="815.0" y="-44"/>
      <point x="815.0" y="-8" type="curve" smooth="yes"/>
      <point x="815.0" y="77" type="line" smooth="yes"/>
      <point x="815.0" y="106"/>
      <point x="799.0" y="120"/>
      <point x="775.0" y="136" type="curve" smooth="yes"/>
      <point x="649.0" y="220" type="line"/>
      <point x="691.0" y="220" type="line" smooth="yes"/>
      <point x="767.0" y="220"/>
      <point x="820.0" y="250"/>
      <point x="820.0" y="379" type="curve" smooth="yes"/>
      <point x="820.0" y="436"/>
      <point x="810.0" y="472"/>
      <point x="792.0" y="493" type="curve"/>
      <point x="810.0" y="517"/>
      <point x="820.0" y="555"/>
      <point x="820.0" y="611" type="curve" smooth="yes"/>
      <point x="820.0" y="740"/>
      <point x="767.0" y="768"/>
      <point x="691.0" y="768" type="curve" smooth="yes"/>
      <point x="551.0" y="768" type="line" smooth="yes"/>
      <point x="475.0" y="768"/>
      <point x="422.0" y="740"/>
      <point x="422.0" y="611" type="curve" smooth="yes"/>
      <point x="422.0" y="553"/>
      <point x="433.0" y="515"/>
      <point x="452.0" y="491" type="curve"/>
      <point x="433.0" y="468"/>
      <point x="422.0" y="433"/>
      <point x="422.0" y="379" type="curve" smooth="yes"/>
      <point x="422.0" y="376"/>
      <point x="422.0" y="373"/>
      <point x="422.0" y="371" type="curve"/>
      <point x="127.0" y="568" type="line" smooth="yes"/>
      <point x="97.0" y="588"/>
      <point x="75.0" y="575"/>
      <point x="75.0" y="539" type="curve" smooth="yes"/>
      <point x="75.0" y="454" type="line" smooth="yes"/>
      <point x="75.0" y="425"/>
      <point x="91.0" y="411"/>
      <point x="115.0" y="395" type="curve" smooth="yes"/>
      <point x="244.0" y="309" type="line"/>
      <point x="199.0" y="309" type="line" smooth="yes"/>
      <point x="124.0" y="309"/>
      <point x="70.0" y="278"/>
      <point x="70.0" y="132" type="curve" smooth="yes"/>
      <point x="70.0" y="-14"/>
      <point x="124.0" y="-47"/>
      <point x="199.0" y="-47" type="curve" smooth="yes"/>
    </contour>
    <contour>
      <point x="230.0" y="118" type="line" smooth="yes"/>
      <point x="225.0" y="118"/>
      <point x="223.0" y="123"/>
      <point x="223.0" y="132" type="curve" smooth="yes"/>
      <point x="223.0" y="140"/>
      <point x="225.0" y="145"/>
      <point x="230.0" y="145" type="curve" smooth="yes"/>
      <point x="308.0" y="145" type="line" smooth="yes"/>
      <point x="314.0" y="145"/>
      <point x="316.0" y="141"/>
      <point x="316.0" y="132" type="curve" smooth="yes"/>
      <point x="316.0" y="123"/>
      <point x="314.0" y="118"/>
      <point x="308.0" y="118" type="curve" smooth="yes"/>
    </contour>
  </outline>
</glyph>
<glyph name="arrowup" format="1">
  <advance width="1000"/>
  <unicode hex="2191"/>
  <outline>
    <contour>
      <point x="620.0" y="100" type="curve" smooth="yes"/>
      <point x="620.0" y="261" type="line"/>
      <point x="789.0" y="251" type="line" smooth="yes"/>
      <point x="818.0" y="250"/>
      <point x="831.0" y="265"/>
      <point x="831.0" y="294" type="curve" smooth="yes"/>
      <point x="831.0" y="427" type="line" smooth="yes"/>
      <point x="831.0" y="456"/>
      <point x="818.0" y="471"/>
      <point x="790.0" y="470" type="curve" smooth="yes"/>
      <point x="789.0" y="470" type="line"/>
      <point x="620.0" y="460" type="line"/>
      <point x="620.0" y="621" type="line" smooth="yes"/>
      <point x="620.0" y="649"/>
      <point x="582.0" y="670"/>
      <point x="551.0" y="649" type="curve" smooth="yes"/>
      <point x="204.0" y="415" type="line" smooth="yes"/>
      <point x="182.0" y="401"/>
      <point x="169.0" y="385"/>
      <point x="169.0" y="361" type="curve" smooth="yes"/>
      <point x="169.0" y="335"/>
      <point x="182.0" y="320"/>
      <point x="205.0" y="306" type="curve" smooth="yes"/>
      <point x="551.0" y="72" type="line" smooth="yes"/>
      <point x="582.0" y="51"/>
      <point x="620.0" y="71"/>
    </contour>
  </outline>
</glyph>
<glyph name="uni21B0" format="1">
  <advance width="1020"/>
  <unicode hex="21B0"/>
  <outline>
    <contour>
      <point x="427.0" y="-2" type="curve" smooth="yes"/>
      <point x="451.0" y="-2"/>
      <point x="465.0" y="11"/>
      <point x="479.0" y="33" type="curve" smooth="yes"/>
      <point x="696.0" y="356" type="line" smooth="yes"/>
      <point x="718.0" y="391"/>
      <point x="693.0" y="426"/>
      <point x="668.0" y="424" type="curve" smooth="yes"/>
      <point x="667.0" y="424" type="line"/>
      <point x="520.0" y="386" type="line"/>
      <point x="520.0" y="439" type="line" smooth="yes"/>
      <point x="520.0" y="477"/>
      <point x="534.0" y="496"/>
      <point x="571.0" y="496" type="curve" smooth="yes"/>
      <point x="830.0" y="496" type="line"/>
      <point x="856.0" y="493"/>
      <point x="871.0" y="507"/>
      <point x="871.0" y="537" type="curve" smooth="yes"/>
      <point x="871.0" y="642" type="line" smooth="yes"/>
      <point x="871.0" y="671"/>
      <point x="857.0" y="683"/>
      <point x="831.0" y="683" type="curve" smooth="yes"/>
      <point x="522.0" y="683" type="line" smooth="yes"/>
      <point x="410.0" y="683"/>
      <point x="334.0" y="632"/>
      <point x="334.0" y="455" type="curve" smooth="yes"/>
      <point x="334.0" y="386" type="line"/>
      <point x="188.0" y="424" type="line"/>
      <point x="187.0" y="424" type="line" smooth="yes"/>
      <point x="162.0" y="426"/>
      <point x="135.0" y="391"/>
      <point x="159.0" y="356" type="curve" smooth="yes"/>
      <point x="377.0" y="32" type="line"/>
      <point x="388.0" y="11"/>
      <point x="403.0" y="-2"/>
    </contour>
  </outline>
</glyph>
<glyph name="product" format="1">
  <advance width="867"/>
  <unicode hex="220F"/>
  <outline>
    <contour>
      <point x="116.0" y="39" type="curve" smooth="yes"/>
      <point x="764.0" y="39" type="line" smooth="yes"/>
      <point x="796.0" y="39"/>
      <point x="810.0" y="53"/>
      <point x="810.0" y="85" type="curve" smooth="yes"/>
      <point x="810.0" y="240" type="line" smooth="yes"/>
      <point x="810.0" y="272"/>
      <point x="796.0" y="286"/>
      <point x="764.0" y="286" type="curve" smooth="yes"/>
      <point x="281.0" y="286" type="line"/>
      <point x="281.0" y="433" type="line"/>
      <point x="764.0" y="433" type="line" smooth="yes"/>
      <point x="796.0" y="433"/>
      <point x="810.0" y="447"/>
      <point x="810.0" y="479" type="curve" smooth="yes"/>
      <point x="810.0" y="634" type="line" smooth="yes"/>
      <point x="810.0" y="666"/>
      <point x="796.0" y="680"/>
      <point x="764.0" y="680" type="curve" smooth="yes"/>
      <point x="116.0" y="680" type="line" smooth="yes"/>
      <point x="84.0" y="680"/>
      <point x="70.0" y="666"/>
      <point x="70.0" y="634" type="curve" smooth="yes"/>
      <point x="70.0" y="85" type="line" smooth="yes"/>
      <point x="70.0" y="53"/>
      <point x="84.0" y="39"/>
    </contour>
  </outline>
</glyph>
<glyph name="minus" format="1">
  <advance width="346"/>
  <unicode hex="2212"/>
  <outline>
    <contour>
      <point x="276.0" y="621" type="line" smooth="yes"/>
      <point x="276.0" y="653"/>
      <point x="263.0" y="667"/>
      <point x="230.0" y="667" type="curve" smooth="yes"/>
      <point x="116.0" y="667" type="line" smooth="yes"/>
      <point x="83.0" y="667"/>
      <point x="70.0" y="653"/>
      <point x="70.0" y="621" type="curve" smooth="yes"/>
      <point x="70.0" y="99" type="line" smooth="yes"/>
      <point x="70.0" y="67"/>
      <point x="84.0" y="53"/>
      <point x="116.0" y="53" type="curve" smooth="yes"/>
      <point x="230.0" y="53" type="line" smooth="yes"/>
      <point x="263.0" y="53"/>
      <point x="276.0" y="67"/>
      <point x="276.0" y="99" type="curve" smooth="yes"/>
    </contour>
  </outline>
</glyph>
<glyph name="integral" format="1">
  <advance width="1004"/>
  <unicode hex="222B"/>
  <outline>
    <contour>
      <point x="709.0" y="236" type="line" smooth="yes"/>
      <point x="729.0" y="236"/>
      <point x="749.0" y="233"/>
      <point x="749.0" y="205" type="curve" smooth="yes"/>
      <point x="749.0" y="174" type="line" smooth="yes"/>
      <point x="749.0" y="142"/>
      <point x="763.0" y="128"/>
      <point x="795.0" y="128" type="curve"/>
      <point x="916.0" y="128" type="line"/>
      <point x="948.0" y="128"/>
      <point x="962.0" y="142"/>
      <point x="962.0" y="174" type="curve" smooth="yes"/>
      <point x="962.0" y="228" type="line" smooth="yes"/>
      <point x="962.0" y="426"/>
      <point x="874.0" y="484"/>
      <point x="747.0" y="484" type="curve" smooth="yes"/>
      <point x="295.0" y="484" type="line" smooth="yes"/>
      <point x="275.0" y="484"/>
      <point x="255.0" y="487"/>
      <point x="255.0" y="515" type="curve" smooth="yes"/>
      <point x="255.0" y="546" type="line" smooth="yes"/>
      <point x="255.0" y="578"/>
      <point x="241.0" y="592"/>
      <point x="209.0" y="592" type="curve" smooth="yes"/>
      <point x="88.0" y="592" type="line" smooth="yes"/>
      <point x="56.0" y="592"/>
      <point x="42.0" y="578"/>
      <point x="42.0" y="546" type="curve" smooth="yes"/>
      <point x="42.0" y="492" type="line" smooth="yes"/>
      <point x="42.0" y="294"/>
      <point x="130.0" y="236"/>
      <point x="257.0" y="236" type="curve" smooth="yes"/>
    </contour>
  </outline>
</glyph>
<glyph name="notequal" format="1">
  <advance width="784"/>
  <unicode hex="2260"/>
  <outline>
    <contour>
      <point x="299.0" y="53" type="line" smooth="yes"/>
      <point x="332.0" y="53"/>
      <point x="345.0" y="67"/>
      <point x="345.0" y="99" type="curve" smooth="yes"/>
      <point x="345.0" y="260" type="line"/>
      <point x="439.0" y="244" type="line"/>
      <point x="439.0" y="99" type="line" smooth="yes"/>
      <point x="439.0" y="67"/>
      <point x="453.0" y="53"/>
      <point x="485.0" y="53" type="curve" smooth="yes"/>
      <point x="599.0" y="53" type="line" smooth="yes"/>
      <point x="632.0" y="53"/>
      <point x="645.0" y="67"/>
      <point x="645.0" y="99" type="curve" smooth="yes"/>
      <point x="645.0" y="209" type="line"/>
      <point x="684.0" y="202" type="line"/>
      <point x="685.0" y="202" type="line" smooth="yes"/>
      <point x="717.0" y="198"/>
      <point x="732.0" y="215"/>
      <point x="732.0" y="248" type="curve" smooth="yes"/>
      <point x="732.0" y="373" type="line" smooth="yes"/>
      <point x="732.0" y="404"/>
      <point x="719.0" y="415"/>
      <point x="687.0" y="419" type="curve" smooth="yes"/>
      <point x="645.0" y="426" type="line"/>
      <point x="645.0" y="621" type="line" smooth="yes"/>
      <point x="645.0" y="653"/>
      <point x="632.0" y="667"/>
      <point x="599.0" y="667" type="curve" smooth="yes"/>
      <point x="485.0" y="667" type="line" smooth="yes"/>
      <point x="452.0" y="667"/>
      <point x="439.0" y="653"/>
      <point x="439.0" y="621" type="curve" smooth="yes"/>
      <point x="439.0" y="461" type="line"/>
      <point x="345.0" y="477" type="line"/>
      <point x="345.0" y="621" type="line" smooth="yes"/>
      <point x="345.0" y="653"/>
      <point x="332.0" y="667"/>
      <point x="299.0" y="667" type="curve" smooth="yes"/>
      <point x="185.0" y="667" type="line" smooth="yes"/>
      <point x="152.0" y="667"/>
      <point x="139.0" y="653"/>
      <point x="139.0" y="621" type="curve" smooth="yes"/>
      <point x="139.0" y="512" type="line"/>
      <point x="100.0" y="519" type="line" smooth="yes"/>
      <point x="68.0" y="524"/>
      <point x="52.0" y="506"/>
      <point x="52.0" y="473" type="curve" smooth="yes"/>
      <point x="52.0" y="348" type="line" smooth="yes"/>
      <point x="52.0" y="317"/>
      <point x="65.0" y="307"/>
      <point x="96.0" y="302" type="curve" smooth="yes"/>
      <point x="139.0" y="295" type="line"/>
      <point x="139.0" y="99" type="line" smooth="yes"/>
      <point x="139.0" y="67"/>
      <point x="153.0" y="53"/>
      <point x="185.0" y="53" type="curve" smooth="yes"/>
    </contour>
  </outline>
</glyph>
<glyph name="lessequal" format="1">
  <advance width="872"/>
  <unicode hex="2264"/>
  <outline>
    <contour>
      <point x="564" y="207" type="curve" smooth="yes"/>
      <point x="596" y="319" type="line"/>
      <point x="596" y="119" type="line" smooth="yes"/>
      <point x="596" y="87"/>
      <point x="610" y="73"/>
      <point x="642" y="73" type="curve" smooth="yes"/>
      <point x="756" y="73" type="line" smooth="yes"/>
      <point x="789" y="73"/>
      <point x="802" y="87"/>
      <point x="802" y="119" type="curve" smooth="yes"/>
      <point x="802" y="591" type="line" smooth="yes"/>
      <point x="802" y="623"/>
      <point x="789" y="637"/>
      <point x="756" y="637" type="curve" smooth="yes"/>
      <point x="500" y="637" type="line" smooth="yes"/>
      <point x="468" y="637"/>
      <point x="454" y="624"/>
      <point x="449" y="593" type="curve"/>
      <point x="449" y="594" type="line"/>
      <point x="372" y="307" type="line" smooth="yes"/>
      <point x="371" y="299"/>
      <point x="369" y="297"/>
      <point x="363" y="297" type="curve" smooth="yes"/>
      <point x="357" y="297"/>
      <point x="355" y="299"/>
      <point x="354" y="306" type="curve"/>
      <point x="277" y="594" type="line"/>
      <point x="277" y="593" type="line"/>
      <point x="272" y="624"/>
      <point x="258" y="637"/>
      <point x="226" y="637" type="curve" smooth="yes"/>
      <point x="94" y="637" type="line" smooth="yes"/>
      <point x="59" y="637"/>
      <point x="47" y="622"/>
      <point x="53" y="589" type="curve"/>
      <point x="162" y="207" type="line" smooth="yes"/>
      <point x="188" y="119"/>
      <point x="222" y="73"/>
      <point x="327" y="73" type="curve" smooth="yes"/>
      <point x="399" y="73" type="line" smooth="yes"/>
      <point x="504" y="73"/>
      <point x="538" y="119"/>
    </contour>
  </outline>
</glyph>
<glyph name="greaterequal" format="1">
  <advance width="872"/>
  <unicode hex="2265"/>
  <outline>
    <contour>
      <point x="277" y="127" type="curve"/>
      <point x="277" y="126" type="line"/>
      <point x="354" y="413" type="line" smooth="yes"/>
      <point x="355" y="421"/>
      <point x="357" y="423"/>
      <point x="363" y="423" type="curve" smooth="yes"/>
      <point x="369" y="423"/>
      <point x="371" y="421"/>
      <point x="372" y="414" type="curve"/>
      <point x="449" y="126" type="line"/>
      <point x="449" y="127" type="line"/>
      <point x="454" y="96"/>
      <point x="468" y="83"/>
      <point x="500" y="83" type="curve" smooth="yes"/>
      <point x="756" y="83" type="line" smooth="yes"/>
      <point x="789" y="83"/>
      <point x="802" y="97"/>
      <point x="802" y="129" type="curve" smooth="yes"/>
      <point x="802" y="601" type="line" smooth="yes"/>
      <point x="802" y="633"/>
      <point x="789" y="647"/>
      <point x="756" y="647" type="curve" smooth="yes"/>
      <point x="642" y="647" type="line" smooth="yes"/>
      <point x="609" y="647"/>
      <point x="596" y="633"/>
      <point x="596" y="601" type="curve" smooth="yes"/>
      <point x="596" y="401" type="line"/>
      <point x="564" y="513" type="line" smooth="yes"/>
      <point x="538" y="601"/>
      <point x="504" y="647"/>
      <point x="399" y="647" type="curve" smooth="yes"/>
      <point x="327" y="647" type="line" smooth="yes"/>
      <point x="222" y="647"/>
      <point x="188" y="601"/>
      <point x="162" y="513" type="curve" smooth="yes"/>
      <point x="53" y="132" type="line"/>
      <point x="47" y="98"/>
      <point x="59" y="83"/>
      <point x="94" y="83" type="curve" smooth="yes"/>
      <point x="226" y="83" type="line" smooth="yes"/>
      <point x="258" y="83"/>
      <point x="272" y="96"/>
    </contour>
  </outline>
</glyph>
<glyph name="uni25DC" format="1">
  <advance width="1000.0"/>
  <unicode hex="25DC"/>
  <outline>
    <contour>
      <point x="-50.0" y="864" type="curve" smooth="yes"/>
      <point x="-50.0" y="731" type="line" smooth="yes"/>
      <point x="-50.0" y="114"/>
      <point x="254.0" y="-190"/>
      <point x="871.0" y="-190" type="curve" smooth="yes"/>
      <point x="1004.0" y="-190" type="line" smooth="yes"/>
      <point x="1036.0" y="-190"/>
      <point x="1050.0" y="-176"/>
      <point x="1050.0" y="-144" type="curve" smooth="yes"/>
      <point x="1050.0" y="870" type="line" smooth="yes"/>
      <point x="1050.0" y="893"/>
      <point x="1033.0" y="910"/>
      <point x="1010.0" y="910" type="curve" smooth="yes"/>
      <point x="-4.0" y="910" type="line" smooth="yes"/>
      <point x="-36.0" y="910"/>
      <point x="-50.0" y="896"/>
    </contour>
  </outline>
</glyph>
<glyph name="uni25DF" format="1">
  <advance width="1280"/>
  <unicode hex="25DF"/>
  <outline>
    <contour>
      <point x="130.0" y="910.0" type="line" smooth="yes"/>
      <point x="107.0" y="910.0"/>
      <point x="90.0" y="893.0"/>
      <point x="90.0" y="870.0" type="curve" smooth="yes"/>
      <point x="90.0" y="-144.0" type="line" smooth="yes"/>
      <point x="90.0" y="-176.0"/>
      <point x="104.0" y="-190.0"/>
      <point x="136.0" y="-190.0" type="curve" smooth="yes"/>
      <point x="269.0" y="-190.0" type="line" smooth="yes"/>
      <point x="886.0" y="-190.0"/>
      <point x="1190.0" y="114.0"/>
      <point x="1190.0" y="731.0" type="curve" smooth="yes"/>
      <point x="1190.0" y="864.0" type="line" smooth="yes"/>
      <point x="1190.0" y="896.0"/>
      <point x="1176.0" y="910.0"/>
      <point x="1144.0" y="910.0" type="curve" smooth="yes"/>
    </contour>
  </outline>
</glyph>
<glyph name="uni261D" format="1">
  <advance width="999"/>
  <unicode hex="261D"/>
  <outline>
    <contour>
      <point x="788.0" y="596" type="line" smooth="yes"/>
      <point x="793.0" y="596"/>
      <point x="796.0" y="592"/>
      <point x="796.0" y="587" type="curve" smooth="yes"/>
      <point x="796.0" y="135" type="line" smooth="yes"/>
      <point x="796.0" y="130"/>
      <point x="793.0" y="126"/>
      <point x="788.0" y="126" type="curve" smooth="yes"/>
      <point x="755.0" y="126" type="line" smooth="yes"/>
      <point x="750.0" y="126"/>
      <point x="747.0" y="130"/>
      <point x="747.0" y="135" type="curve" smooth="yes"/>
      <point x="747.0" y="587" type="line" smooth="yes"/>
      <point x="747.0" y="592"/>
      <point x="750.0" y="596"/>
      <point x="755.0" y="596" type="curve" smooth="yes"/>
    </contour>
    <contour>
      <point x="466.0" y="165" type="curve" smooth="yes"/>
      <point x="172.0" y="186" type="line" smooth="yes"/>
      <point x="167.0" y="186"/>
      <point x="161.0" y="190"/>
      <point x="161.0" y="198" type="curve" smooth="yes"/>
      <point x="161.0" y="228" type="line" smooth="yes"/>
      <point x="161.0" y="236"/>
      <point x="167.0" y="238"/>
      <point x="175.0" y="238" type="curve" smooth="yes"/>
      <point x="453.0" y="238" type="line"/>
      <point x="453.0" y="279" type="line"/>
      <point x="355.0" y="279" type="line" smooth="yes"/>
      <point x="351.0" y="279"/>
      <point x="350.0" y="282"/>
      <point x="350.0" y="285" type="curve" smooth="yes"/>
      <point x="350.0" y="319" type="line" smooth="yes"/>
      <point x="350.0" y="327"/>
      <point x="356.0" y="329"/>
      <point x="363.0" y="329" type="curve" smooth="yes"/>
      <point x="461.0" y="336" type="line"/>
      <point x="470.0" y="337" type="line"/>
      <point x="470.0" y="378" type="line"/>
      <point x="379.0" y="371" type="line"/>
      <point x="375.0" y="372"/>
      <point x="375.0" y="376"/>
      <point x="375.0" y="381" type="curve" smooth="yes"/>
      <point x="375.0" y="417" type="line" smooth="yes"/>
      <point x="375.0" y="424"/>
      <point x="380.0" y="427"/>
      <point x="388.0" y="427" type="curve" smooth="yes"/>
      <point x="480.0" y="434" type="line"/>
      <point x="489.0" y="435" type="line"/>
      <point x="489.0" y="476" type="line"/>
      <point x="399.0" y="469" type="line"/>
      <point x="396.0" y="469"/>
      <point x="397.0" y="475"/>
      <point x="397.0" y="477" type="curve" smooth="yes"/>
      <point x="397.0" y="515" type="line" smooth="yes"/>
      <point x="397.0" y="521"/>
      <point x="402.0" y="524"/>
      <point x="407.0" y="524" type="curve" smooth="yes"/>
      <point x="639.0" y="535" type="line"/>
      <point x="654.0" y="535"/>
      <point x="667.0" y="530"/>
      <point x="675.0" y="526" type="curve" smooth="yes"/>
      <point x="706.0" y="508" type="line"/>
      <point x="706.0" y="202" type="line"/>
      <point x="518.0" y="166" type="line"/>
      <point x="505.0" y="164"/>
      <point x="484.0" y="164"/>
    </contour>
    <contour>
      <point x="755.0" y="85" type="curve" smooth="yes"/>
      <point x="830.0" y="85" type="line" smooth="yes"/>
      <point x="861.0" y="85"/>
      <point x="879.0" y="100"/>
      <point x="879.0" y="135" type="curve" smooth="yes"/>
      <point x="879.0" y="587" type="line" smooth="yes"/>
      <point x="879.0" y="620"/>
      <point x="861.0" y="637"/>
      <point x="830.0" y="637" type="curve" smooth="yes"/>
      <point x="755.0" y="637" type="line" smooth="yes"/>
      <point x="723.0" y="637"/>
      <point x="706.0" y="618"/>
      <point x="706.0" y="589" type="curve" smooth="yes"/>
      <point x="706.0" y="556" type="line"/>
      <point x="696.0" y="562" type="line" smooth="yes"/>
      <point x="685.0" y="567"/>
      <point x="663.0" y="576"/>
      <point x="639.0" y="576" type="curve" smooth="yes"/>
      <point x="406.0" y="566" type="line" smooth="yes"/>
      <point x="377.0" y="565"/>
      <point x="356.0" y="544"/>
      <point x="356.0" y="515" type="curve" smooth="yes"/>
      <point x="356.0" y="475" type="line" smooth="yes"/>
      <point x="356.0" y="470"/>
      <point x="356.0" y="466"/>
      <point x="357.0" y="462" type="curve"/>
      <point x="341.0" y="454"/>
      <point x="334.0" y="438"/>
      <point x="334.0" y="417" type="curve" smooth="yes"/>
      <point x="334.0" y="378" type="line" smooth="yes"/>
      <point x="334.0" y="373"/>
      <point x="334.0" y="368"/>
      <point x="335.0" y="365" type="curve"/>
      <point x="317.0" y="357"/>
      <point x="309.0" y="341"/>
      <point x="309.0" y="318" type="curve" smooth="yes"/>
      <point x="309.0" y="283" type="line" smooth="yes"/>
      <point x="309.0" y="281"/>
      <point x="309.0" y="280"/>
      <point x="309.0" y="279" type="curve"/>
      <point x="175.0" y="279" type="line" smooth="yes"/>
      <point x="138.0" y="279"/>
      <point x="120.0" y="260"/>
      <point x="120.0" y="228" type="curve" smooth="yes"/>
      <point x="120.0" y="198" type="line" smooth="yes"/>
      <point x="120.0" y="164"/>
      <point x="138.0" y="146"/>
      <point x="169.0" y="145" type="curve" smooth="yes"/>
      <point x="462.0" y="124" type="line" smooth="yes"/>
      <point x="484.0" y="123"/>
      <point x="509.0" y="123"/>
      <point x="526.0" y="126" type="curve" smooth="yes"/>
      <point x="706.0" y="159" type="line"/>
      <point x="706.0" y="133" type="line" smooth="yes"/>
      <point x="706.0" y="104"/>
      <point x="723.0" y="85"/>
    </contour>
  </outline>
</glyph>
<glyph name="uni261F" format="1">
  <advance width="999"/>
  <unicode hex="261F"/>
  <outline>
    <contour>
      <point x="211.0" y="126" type="line" smooth="yes"/>
      <point x="206.0" y="126"/>
      <point x="203.0" y="130"/>
      <point x="203.0" y="135" type="curve" smooth="yes"/>
      <point x="203.0" y="587" type="line" smooth="yes"/>
      <point x="203.0" y="592"/>
      <point x="206.0" y="596"/>
      <point x="211.0" y="596" type="curve" smooth="yes"/>
      <point x="244.0" y="596" type="line" smooth="yes"/>
      <point x="249.0" y="596"/>
      <point x="252.0" y="592"/>
      <point x="252.0" y="587" type="curve" smooth="yes"/>
      <point x="252.0" y="135" type="line" smooth="yes"/>
      <point x="252.0" y="130"/>
      <point x="249.0" y="126"/>
      <point x="244.0" y="126" type="curve" smooth="yes"/>
    </contour>
    <contour>
      <point x="360.0" y="187" type="line"/>
      <point x="345.0" y="187"/>
      <point x="332.0" y="192"/>
      <point x="324.0" y="196" type="curve" smooth="yes"/>
      <point x="293.0" y="213" type="line"/>
      <point x="293.0" y="519" type="line"/>
      <point x="481.0" y="556" type="line"/>
      <point x="494.0" y="558"/>
      <point x="515.0" y="558"/>
      <point x="533.0" y="557" type="curve" smooth="yes"/>
      <point x="827.0" y="536" type="line" smooth="yes"/>
      <point x="832.0" y="536"/>
      <point x="838.0" y="532"/>
      <point x="838.0" y="524" type="curve" smooth="yes"/>
      <point x="838.0" y="494" type="line" smooth="yes"/>
      <point x="838.0" y="486"/>
      <point x="832.0" y="484"/>
      <point x="824.0" y="484" type="curve" smooth="yes"/>
      <point x="546.0" y="484" type="line"/>
      <point x="546.0" y="443" type="line"/>
      <point x="644.0" y="443" type="line" smooth="yes"/>
      <point x="648.0" y="443"/>
      <point x="649.0" y="440"/>
      <point x="649.0" y="437" type="curve" smooth="yes"/>
      <point x="649.0" y="403" type="line" smooth="yes"/>
      <point x="649.0" y="395"/>
      <point x="643.0" y="393"/>
      <point x="636.0" y="393" type="curve" smooth="yes"/>
      <point x="538.0" y="386" type="line"/>
      <point x="529.0" y="385" type="line"/>
      <point x="529.0" y="344" type="line"/>
      <point x="619.0" y="350" type="line"/>
      <point x="623.0" y="349"/>
      <point x="624.0" y="345"/>
      <point x="623.0" y="341" type="curve" smooth="yes"/>
      <point x="624.0" y="305" type="line" smooth="yes"/>
      <point x="624.0" y="298"/>
      <point x="619.0" y="295"/>
      <point x="611.0" y="295" type="curve" smooth="yes"/>
      <point x="519.0" y="288" type="line"/>
      <point x="510.0" y="287" type="line"/>
      <point x="510.0" y="246" type="line"/>
      <point x="599.0" y="252" type="line"/>
      <point x="603.0" y="253"/>
      <point x="602.0" y="247"/>
      <point x="602.0" y="245" type="curve" smooth="yes"/>
      <point x="602.0" y="207" type="line" smooth="yes"/>
      <point x="602.0" y="201"/>
      <point x="597.0" y="198"/>
      <point x="592.0" y="198" type="curve" smooth="yes"/>
    </contour>
    <contour>
      <point x="244.0" y="85" type="line" smooth="yes"/>
      <point x="276.0" y="85"/>
      <point x="293.0" y="104"/>
      <point x="293.0" y="133" type="curve" smooth="yes"/>
      <point x="293.0" y="165" type="line"/>
      <point x="303.0" y="160" type="line" smooth="yes"/>
      <point x="314.0" y="155"/>
      <point x="336.0" y="146"/>
      <point x="360.0" y="146" type="curve" smooth="yes"/>
      <point x="593.0" y="156" type="line" smooth="yes"/>
      <point x="622.0" y="157"/>
      <point x="643.0" y="178"/>
      <point x="643.0" y="207" type="curve" smooth="yes"/>
      <point x="643.0" y="247" type="line" smooth="yes"/>
      <point x="643.0" y="251"/>
      <point x="642.0" y="255"/>
      <point x="641.0" y="259" type="curve"/>
      <point x="657.0" y="267"/>
      <point x="665.0" y="283"/>
      <point x="665.0" y="305" type="curve" smooth="yes"/>
      <point x="665.0" y="344" type="line" smooth="yes"/>
      <point x="665.0" y="348"/>
      <point x="664.0" y="353"/>
      <point x="663.0" y="356" type="curve"/>
      <point x="681.0" y="364"/>
      <point x="690.0" y="380"/>
      <point x="690.0" y="403" type="curve" smooth="yes"/>
      <point x="690.0" y="439" type="line" smooth="yes"/>
      <point x="690.0" y="440"/>
      <point x="689.0" y="441"/>
      <point x="689.0" y="443" type="curve"/>
      <point x="824.0" y="443" type="line" smooth="yes"/>
      <point x="861.0" y="443"/>
      <point x="879.0" y="462"/>
      <point x="879.0" y="494" type="curve" smooth="yes"/>
      <point x="879.0" y="524" type="line" smooth="yes"/>
      <point x="879.0" y="558"/>
      <point x="861.0" y="576"/>
      <point x="830.0" y="577" type="curve" smooth="yes"/>
      <point x="537.0" y="598" type="line" smooth="yes"/>
      <point x="515.0" y="599"/>
      <point x="490.0" y="599"/>
      <point x="473.0" y="596" type="curve" smooth="yes"/>
      <point x="293.0" y="562" type="line"/>
      <point x="293.0" y="589" type="line" smooth="yes"/>
      <point x="293.0" y="618"/>
      <point x="276.0" y="637"/>
      <point x="244.0" y="637" type="curve" smooth="yes"/>
      <point x="169.0" y="637" type="line" smooth="yes"/>
      <point x="138.0" y="637"/>
      <point x="120.0" y="622"/>
      <point x="120.0" y="587" type="curve" smooth="yes"/>
      <point x="120.0" y="135" type="line" smooth="yes"/>
      <point x="120.0" y="102"/>
      <point x="138.0" y="85"/>
      <point x="169.0" y="85" type="curve" smooth="yes"/>
    </contour>
  </outline>
</glyph>
<glyph name="uni2B24" format="1">
  <advance width="1280"/>
  <unicode hex="2B24"/>
  <outline>
    <contour>
      <point x="650.0" y="-220.0" type="curve" smooth="yes"/>
      <point x="991.0" y="-220.0"/>
      <point x="1230.0" y="19.0"/>
      <point x="1230.0" y="360.0" type="curve" smooth="yes"/>
      <point x="1230.0" y="701.0"/>
      <point x="991.0" y="940.0"/>
      <point x="650.0" y="940.0" type="curve" smooth="yes"/>
      <point x="309.0" y="940.0"/>
      <point x="70.0" y="701.0"/>
      <point x="70.0" y="360.0" type="curve" smooth="yes"/>
      <point x="70.0" y="19.0"/>
      <point x="309.0" y="-220.0"/>
    </contour>
  </outline>
</glyph>
<glyph name="Aogonek.salt" format="1">
  <advance width="955"/>
  <unicode hex="E109"/>
  <outline>
    <contour>
      <point x="716" y="49" type="line" smooth="yes"/>
      <point x="748" y="49"/>
      <point x="762" y="63"/>
      <point x="762" y="95" type="curve" smooth="yes"/>
      <point x="762" y="242" type="line" smooth="yes"/>
      <point x="762" y="274"/>
      <point x="748" y="288"/>
      <point x="716" y="288" type="curve" smooth="yes"/>
      <point x="597" y="288" type="line"/>
      <point x="597" y="427" type="line"/>
      <point x="697" y="427" type="line"/>
      <point x="801" y="408" type="line" smooth="yes"/>
      <point x="904" y="393"/>
      <point x="948" y="426"/>
      <point x="948" y="519" type="curve" smooth="yes"/>
      <point x="948" y="630" type="line" smooth="yes"/>
      <point x="948" y="664"/>
      <point x="938" y="673"/>
      <point x="904" y="673" type="curve" smooth="yes"/>
      <point x="832" y="673" type="line" smooth="yes"/>
      <point x="799" y="673"/>
      <point x="788" y="663"/>
      <point x="788" y="627" type="curve" smooth="yes"/>
      <point x="788" y="598" type="line"/>
      <point x="762" y="602" type="line"/>
      <point x="762" y="625" type="line" smooth="yes"/>
      <point x="762" y="657"/>
      <point x="748" y="671"/>
      <point x="716" y="671" type="curve" smooth="yes"/>
      <point x="261" y="671" type="line" smooth="yes"/>
      <point x="136" y="671"/>
      <point x="47" y="620"/>
      <point x="47" y="359" type="curve" smooth="yes"/>
      <point x="47" y="99"/>
      <point x="136" y="49"/>
      <point x="261" y="49" type="curve" smooth="yes"/>
    </contour>
    <contour>
      <point x="295" y="288" type="line" smooth="yes"/>
      <point x="271" y="288"/>
      <point x="258" y="302"/>
      <point x="258" y="358" type="curve" smooth="yes"/>
      <point x="258" y="413"/>
      <point x="271" y="427"/>
      <point x="295" y="427" type="curve" smooth="yes"/>
      <point x="394" y="427" type="line"/>
      <point x="394" y="288" type="line"/>
    </contour>
  </outline>
</glyph>
<glyph name="Eogonek.salt" format="1">
  <advance width="955"/>
  <unicode hex="E112"/>
  <outline>
    <contour>
      <point x="548" y="46" type="line" smooth="yes"/>
      <point x="674" y="46"/>
      <point x="762" y="104"/>
      <point x="762" y="302" type="curve" smooth="yes"/>
      <point x="762" y="402" type="line"/>
      <point x="801" y="395" type="line" smooth="yes"/>
      <point x="904" y="380"/>
      <point x="948" y="413"/>
      <point x="948" y="506" type="curve" smooth="yes"/>
      <point x="948" y="617" type="line" smooth="yes"/>
      <point x="948" y="651"/>
      <point x="938" y="660"/>
      <point x="904" y="660" type="curve" smooth="yes"/>
      <point x="832" y="660" type="line" smooth="yes"/>
      <point x="799" y="660"/>
      <point x="788" y="650"/>
      <point x="788" y="614" type="curve" smooth="yes"/>
      <point x="788" y="585" type="line"/>
      <point x="762" y="589" type="line"/>
      <point x="762" y="614" type="line" smooth="yes"/>
      <point x="762" y="646"/>
      <point x="748" y="660"/>
      <point x="716" y="660" type="curve" smooth="yes"/>
      <point x="603" y="660" type="line" smooth="yes"/>
      <point x="571" y="660"/>
      <point x="557" y="646"/>
      <point x="557" y="614" type="curve" smooth="yes"/>
      <point x="557" y="341" type="line" smooth="yes"/>
      <point x="557" y="300"/>
      <point x="542" y="290"/>
      <point x="519" y="290" type="curve" smooth="yes"/>
      <point x="501" y="290" type="line"/>
      <point x="501" y="533" type="line" smooth="yes"/>
      <point x="501" y="565"/>
      <point x="487" y="579"/>
      <point x="455" y="579" type="curve" smooth="yes"/>
      <point x="360" y="579" type="line" smooth="yes"/>
      <point x="327" y="579"/>
      <point x="314" y="565"/>
      <point x="314" y="533" type="curve" smooth="yes"/>
      <point x="314" y="290" type="line"/>
      <point x="307" y="290" type="line" smooth="yes"/>
      <point x="285" y="290"/>
      <point x="267" y="299"/>
      <point x="267" y="341" type="curve" smooth="yes"/>
      <point x="267" y="614" type="line" smooth="yes"/>
      <point x="267" y="646"/>
      <point x="253" y="660"/>
      <point x="221" y="660" type="curve" smooth="yes"/>
      <point x="108" y="660" type="line" smooth="yes"/>
      <point x="76" y="660"/>
      <point x="62" y="646"/>
      <point x="62" y="614" type="curve" smooth="yes"/>
      <point x="62" y="302" type="line" smooth="yes"/>
      <point x="62" y="104"/>
      <point x="150" y="46"/>
      <point x="277" y="46" type="curve" smooth="yes"/>
    </contour>
  </outline>
</glyph>
<glyph name="Iogonek.salt" format="1">
  <advance width="938"/>
  <unicode hex="E11C"/>
  <outline>
    <contour>
      <point x="931" y="327" type="curve" smooth="yes"/>
      <point x="931" y="438" type="line" smooth="yes"/>
      <point x="931" y="472"/>
      <point x="921" y="481"/>
      <point x="887" y="481" type="curve" smooth="yes"/>
      <point x="815" y="481" type="line" smooth="yes"/>
      <point x="782" y="481"/>
      <point x="771" y="471"/>
      <point x="771" y="435" type="curve" smooth="yes"/>
      <point x="771" y="406" type="line"/>
      <point x="745" y="410" type="line"/>
      <point x="745" y="439" type="line" smooth="yes"/>
      <point x="745" y="471"/>
      <point x="731" y="485"/>
      <point x="699" y="485" type="curve" smooth="yes"/>
      <point x="91" y="485" type="line" smooth="yes"/>
      <point x="59" y="485"/>
      <point x="45" y="471"/>
      <point x="45" y="439" type="curve" smooth="yes"/>
      <point x="45" y="280" type="line" smooth="yes"/>
      <point x="45" y="248"/>
      <point x="59" y="234"/>
      <point x="91" y="234" type="curve" smooth="yes"/>
      <point x="685" y="234" type="line"/>
      <point x="784" y="216" type="line" smooth="yes"/>
      <point x="887" y="201"/>
      <point x="931" y="234"/>
    </contour>
  </outline>
</glyph>
<glyph name="L.salt" format="1">
  <advance width="855"/>
  <unicode hex="E11E"/>
  <outline>
    <contour>
      <point x="45" y="256" type="line" smooth="yes"/>
      <point x="45" y="288"/>
      <point x="59" y="302"/>
      <point x="91" y="302" type="curve" smooth="yes"/>
      <point x="582" y="302" type="line"/>
      <point x="572" y="292" type="line"/>
      <point x="572" y="619" type="line" smooth="yes"/>
      <point x="572" y="651"/>
      <point x="586" y="665"/>
      <point x="618" y="665" type="curve" smooth="yes"/>
      <point x="739" y="665" type="line" smooth="yes"/>
      <point x="771" y="665"/>
      <point x="785" y="651"/>
      <point x="785" y="619" type="curve" smooth="yes"/>
      <point x="785" y="101" type="line" smooth="yes"/>
      <point x="785" y="69"/>
      <point x="771" y="55"/>
      <point x="739" y="55" type="curve" smooth="yes"/>
      <point x="91" y="55" type="line" smooth="yes"/>
      <point x="59" y="55"/>
      <point x="45" y="69"/>
      <point x="45" y="101" type="curve" smooth="yes"/>
    </contour>
  </outline>
</glyph>
<glyph name="Lslash.salt" format="1">
  <advance width="855"/>
  <unicode hex="E123"/>
  <outline>
    <contour>
      <point x="349" y="-8" type="curve" smooth="yes"/>
      <point x="456" y="-8" type="line" smooth="yes"/>
      <point x="491" y="-8"/>
      <point x="507" y="8"/>
      <point x="502" y="40" type="curve" smooth="yes"/>
      <point x="500" y="55" type="line"/>
      <point x="739" y="55" type="line" smooth="yes"/>
      <point x="771" y="55"/>
      <point x="785" y="69"/>
      <point x="785" y="101" type="curve" smooth="yes"/>
      <point x="785" y="619" type="line" smooth="yes"/>
      <point x="785" y="651"/>
      <point x="771" y="665"/>
      <point x="739" y="665" type="curve" smooth="yes"/>
      <point x="618" y="665" type="line" smooth="yes"/>
      <point x="586" y="665"/>
      <point x="572" y="651"/>
      <point x="572" y="619" type="curve" smooth="yes"/>
      <point x="572" y="302" type="line"/>
      <point x="459" y="302" type="line"/>
      <point x="452" y="348" type="line" smooth="yes"/>
      <point x="447" y="379"/>
      <point x="438" y="392"/>
      <point x="406" y="392" type="curve" smooth="yes"/>
      <point x="299" y="392" type="line" smooth="yes"/>
      <point x="264" y="392"/>
      <point x="248" y="376"/>
      <point x="253" y="344" type="curve" smooth="yes"/>
      <point x="260" y="302" type="line"/>
      <point x="91" y="302" type="line" smooth="yes"/>
      <point x="59" y="302"/>
      <point x="45" y="288"/>
      <point x="45" y="256" type="curve" smooth="yes"/>
      <point x="45" y="101" type="line" smooth="yes"/>
      <point x="45" y="69"/>
      <point x="59" y="55"/>
      <point x="91" y="55" type="curve" smooth="yes"/>
      <point x="300" y="55" type="line"/>
      <point x="303" y="36" type="line" smooth="yes"/>
      <point x="308" y="5"/>
      <point x="318" y="-8"/>
    </contour>
  </outline>
</glyph>
<glyph name="M.salt" format="1">
  <advance width="882"/>
  <unicode hex="E124"/>
  <outline>
    <contour>
      <point x="271.0" y="1" type="curve" smooth="yes"/>
      <point x="766.0" y="1" type="line" smooth="yes"/>
      <point x="798.0" y="1"/>
      <point x="812.0" y="15"/>
      <point x="812.0" y="47" type="curve" smooth="yes"/>
      <point x="812.0" y="164" type="line" smooth="yes"/>
      <point x="812.0" y="197"/>
      <point x="798.0" y="210"/>
      <point x="766.0" y="210" type="curve" smooth="yes"/>
      <point x="303.0" y="210" type="line" smooth="yes"/>
      <point x="284.0" y="210"/>
      <point x="273.0" y="214"/>
      <point x="273.0" y="233" type="curve" smooth="yes"/>
      <point x="273.0" y="253"/>
      <point x="284.0" y="255"/>
      <point x="303.0" y="255" type="curve" smooth="yes"/>
      <point x="766.0" y="255" type="line" smooth="yes"/>
      <point x="798.0" y="255"/>
      <point x="812.0" y="269"/>
      <point x="812.0" y="301" type="curve" smooth="yes"/>
      <point x="812.0" y="418" type="line" smooth="yes"/>
      <point x="812.0" y="450"/>
      <point x="798.0" y="464"/>
      <point x="766.0" y="464" type="curve" smooth="yes"/>
      <point x="303.0" y="464" type="line" smooth="yes"/>
      <point x="284.0" y="464"/>
      <point x="273.0" y="467"/>
      <point x="273.0" y="486" type="curve" smooth="yes"/>
      <point x="273.0" y="506"/>
      <point x="284.0" y="509"/>
      <point x="303.0" y="509" type="curve" smooth="yes"/>
      <point x="766.0" y="509" type="line" smooth="yes"/>
      <point x="798.0" y="509"/>
      <point x="812.0" y="522"/>
      <point x="812.0" y="555" type="curve" smooth="yes"/>
      <point x="812.0" y="672" type="line" smooth="yes"/>
      <point x="812.0" y="704"/>
      <point x="798.0" y="718"/>
      <point x="766.0" y="718" type="curve" smooth="yes"/>
      <point x="271.0" y="718" type="line" smooth="yes"/>
      <point x="143.0" y="718"/>
      <point x="57.0" y="667"/>
      <point x="57.0" y="509" type="curve" smooth="yes"/>
      <point x="57.0" y="436"/>
      <point x="73.0" y="389"/>
      <point x="101.0" y="359" type="curve"/>
      <point x="73.0" y="330"/>
      <point x="57.0" y="283"/>
      <point x="57.0" y="210" type="curve" smooth="yes"/>
      <point x="57.0" y="52"/>
      <point x="143.0" y="1"/>
    </contour>
  </outline>
</glyph>
<glyph name="X.salt" format="1">
  <advance width="854"/>
  <unicode hex="E12F"/>
  <outline>
    <contour>
      <point x="470.0" y="42" type="curve" smooth="yes"/>
      <point x="751.0" y="42" type="line" smooth="yes"/>
      <point x="783.0" y="42"/>
      <point x="797.0" y="56"/>
      <point x="797.0" y="88" type="curve" smooth="yes"/>
      <point x="797.0" y="243" type="line" smooth="yes"/>
      <point x="797.0" y="275"/>
      <point x="783.0" y="289"/>
      <point x="751.0" y="289" type="curve" smooth="yes"/>
      <point x="557.0" y="289" type="line" smooth="yes"/>
      <point x="542.0" y="289"/>
      <point x="532.0" y="296"/>
      <point x="532.0" y="311" type="curve" smooth="yes"/>
      <point x="532.0" y="411" type="line" smooth="yes"/>
      <point x="532.0" y="426"/>
      <point x="542.0" y="433"/>
      <point x="557.0" y="433" type="curve" smooth="yes"/>
      <point x="751.0" y="433" type="line" smooth="yes"/>
      <point x="783.0" y="433"/>
      <point x="797.0" y="447"/>
      <point x="797.0" y="479" type="curve" smooth="yes"/>
      <point x="797.0" y="633" type="line" smooth="yes"/>
      <point x="797.0" y="665"/>
      <point x="783.0" y="679"/>
      <point x="751.0" y="679" type="curve" smooth="yes"/>
      <point x="470.0" y="679" type="line" smooth="yes"/>
      <point x="404.0" y="679"/>
      <point x="355.0" y="648"/>
      <point x="334.0" y="596" type="curve"/>
      <point x="105.0" y="658" type="line" smooth="yes"/>
      <point x="73.0" y="666"/>
      <point x="57.0" y="655"/>
      <point x="57.0" y="621" type="curve" smooth="yes"/>
      <point x="57.0" y="469" type="line" smooth="yes"/>
      <point x="57.0" y="437"/>
      <point x="69.0" y="424"/>
      <point x="100.0" y="416" type="curve" smooth="yes"/>
      <point x="323.0" y="370" type="line"/>
      <point x="323.0" y="353" type="line"/>
      <point x="100.0" y="307" type="line" smooth="yes"/>
      <point x="69.0" y="299"/>
      <point x="57.0" y="285"/>
      <point x="57.0" y="253" type="curve" smooth="yes"/>
      <point x="57.0" y="102" type="line" smooth="yes"/>
      <point x="57.0" y="69"/>
      <point x="73.0" y="58"/>
      <point x="105.0" y="66" type="curve" smooth="yes"/>
      <point x="334.0" y="128" type="line"/>
      <point x="353.0" y="74"/>
      <point x="403.0" y="42"/>
    </contour>
  </outline>
</glyph>
<glyph name="ampersand.salt" format="1">
  <advance width="1009"/>
  <unicode hex="E13A"/>
  <outline>
    <contour>
      <point x="608.0" y="46" type="curve" smooth="yes"/>
      <point x="716.0" y="46" type="line" smooth="yes"/>
      <point x="805.0" y="46"/>
      <point x="874.0" y="113"/>
      <point x="874.0" y="250" type="curve" smooth="yes"/>
      <point x="874.0" y="281" type="line"/>
      <point x="918.0" y="281" type="line" smooth="yes"/>
      <point x="950.0" y="281"/>
      <point x="964.0" y="295"/>
      <point x="964.0" y="327" type="curve" smooth="yes"/>
      <point x="964.0" y="472" type="line" smooth="yes"/>
      <point x="964.0" y="504"/>
      <point x="950.0" y="518"/>
      <point x="918.0" y="518" type="curve" smooth="yes"/>
      <point x="874.0" y="518" type="line"/>
      <point x="874.0" y="625" type="line" smooth="yes"/>
      <point x="874.0" y="657"/>
      <point x="860.0" y="671"/>
      <point x="828.0" y="671" type="curve" smooth="yes"/>
      <point x="711.0" y="671" type="line" smooth="yes"/>
      <point x="679.0" y="671"/>
      <point x="665.0" y="657"/>
      <point x="665.0" y="625" type="curve" smooth="yes"/>
      <point x="665.0" y="315" type="line" smooth="yes"/>
      <point x="665.0" y="294"/>
      <point x="657.0" y="287"/>
      <point x="645.0" y="287" type="curve" smooth="yes"/>
      <point x="618.0" y="287" type="line" smooth="yes"/>
      <point x="606.0" y="287"/>
      <point x="599.0" y="294"/>
      <point x="599.0" y="315" type="curve" smooth="yes"/>
      <point x="599.0" y="544" type="line" smooth="yes"/>
      <point x="599.0" y="576"/>
      <point x="585.0" y="590"/>
      <point x="553.0" y="590" type="curve" smooth="yes"/>
      <point x="446.0" y="590" type="line" smooth="yes"/>
      <point x="414.0" y="590"/>
      <point x="400.0" y="576"/>
      <point x="400.0" y="544" type="curve" smooth="yes"/>
      <point x="400.0" y="380" type="line" smooth="yes"/>
      <point x="400.0" y="359"/>
      <point x="392.0" y="352"/>
      <point x="380.0" y="352" type="curve" smooth="yes"/>
      <point x="363.0" y="352" type="line" smooth="yes"/>
      <point x="351.0" y="352"/>
      <point x="343.0" y="359"/>
      <point x="343.0" y="380" type="curve" smooth="yes"/>
      <point x="343.0" y="625" type="line" smooth="yes"/>
      <point x="343.0" y="657"/>
      <point x="329.0" y="671"/>
      <point x="297.0" y="671" type="curve" smooth="yes"/>
      <point x="180.0" y="671" type="line" smooth="yes"/>
      <point x="148.0" y="671"/>
      <point x="134.0" y="657"/>
      <point x="134.0" y="625" type="curve" smooth="yes"/>
      <point x="134.0" y="518" type="line"/>
      <point x="90.0" y="518" type="line" smooth="yes"/>
      <point x="58.0" y="518"/>
      <point x="44.0" y="504"/>
      <point x="44.0" y="472" type="curve" smooth="yes"/>
      <point x="44.0" y="327" type="line" smooth="yes"/>
      <point x="44.0" y="295"/>
      <point x="58.0" y="281"/>
      <point x="90.0" y="281" type="curve" smooth="yes"/>
      <point x="135.0" y="281" type="line"/>
      <point x="146.0" y="161"/>
      <point x="212.0" y="113"/>
      <point x="297.0" y="113" type="curve" smooth="yes"/>
      <point x="345.0" y="113" type="line" smooth="yes"/>
      <point x="390.0" y="113"/>
      <point x="425.0" y="124"/>
      <point x="448.0" y="153" type="curve"/>
      <point x="465.0" y="91"/>
      <point x="520.0" y="46"/>
    </contour>
  </outline>
</glyph>
<glyph name="indexupright" format="1">
  <advance width="1000"/>
  <unicode hex="E13F"/>
  <outline>
    <contour>
      <point x="571.0" y="42" type="curve"/>
      <point x="905.0" y="376" type="line"/>
      <point x="918.0" y="390"/>
      <point x="917.0" y="406"/>
      <point x="906.0" y="416" type="curve" smooth="yes"/>
      <point x="839.0" y="484" type="line" smooth="yes"/>
      <point x="828.0" y="495"/>
      <point x="811.0" y="496"/>
      <point x="799.0" y="483" type="curve" smooth="yes"/>
      <point x="756.0" y="440" type="line"/>
      <point x="744.0" y="474" type="line"/>
      <point x="745.0" y="473" type="line"/>
      <point x="743.0" y="484"/>
      <point x="735.0" y="500"/>
      <point x="720.0" y="515" type="curve"/>
      <point x="544.0" y="679" type="line" smooth="yes"/>
      <point x="532.0" y="689"/>
      <point x="512.0" y="690"/>
      <point x="500.0" y="680" type="curve"/>
      <point x="465.0" y="645" type="line"/>
      <point x="465.0" y="646" type="line"/>
      <point x="460.0" y="641"/>
      <point x="457.0" y="635"/>
      <point x="456.0" y="626" type="curve"/>
      <point x="441.0" y="637"/>
      <point x="428.0" y="639"/>
      <point x="414.0" y="626" type="curve" smooth="yes"/>
      <point x="382.0" y="594" type="line"/>
      <point x="376.0" y="587"/>
      <point x="373.0" y="581"/>
      <point x="372.0" y="573" type="curve"/>
      <point x="357.0" y="585"/>
      <point x="343.0" y="587"/>
      <point x="329.0" y="575" type="curve" smooth="yes"/>
      <point x="328.0" y="574" type="line"/>
      <point x="298.0" y="543" type="line"/>
      <point x="293.0" y="538"/>
      <point x="290.0" y="534"/>
      <point x="288.0" y="528" type="curve"/>
      <point x="177.0" y="639" type="line" smooth="yes"/>
      <point x="162.0" y="654"/>
      <point x="143.0" y="657"/>
      <point x="131.0" y="643" type="curve"/>
      <point x="95.0" y="607" type="line" smooth="yes"/>
      <point x="81.0" y="593"/>
      <point x="86.0" y="573"/>
      <point x="94.0" y="562" type="curve" smooth="yes"/>
      <point x="293.0" y="335" type="line" smooth="yes"/>
      <point x="306.0" y="319"/>
      <point x="323.0" y="303"/>
      <point x="334.0" y="295" type="curve" smooth="yes"/>
      <point x="499.0" y="183" type="line"/>
      <point x="465.0" y="149" type="line"/>
      <point x="450.0" y="136"/>
      <point x="452.0" y="120"/>
      <point x="464.0" y="108" type="curve" smooth="yes"/>
      <point x="531.0" y="41" type="line" smooth="yes"/>
      <point x="542.0" y="30"/>
      <point x="559.0" y="28"/>
    </contour>
  </outline>
</glyph>
<glyph name="indexdownleft" format="1">
  <advance width="1000"/>
  <unicode hex="E140"/>
  <outline>
    <contour>
      <point x="747.0" y="-45" type="curve" smooth="yes"/>
      <point x="783.0" y="-9" type="line"/>
      <point x="797.0" y="3"/>
      <point x="794.0" y="22"/>
      <point x="779.0" y="37" type="curve" smooth="yes"/>
      <point x="668.0" y="148" type="line"/>
      <point x="673.0" y="149"/>
      <point x="678.0" y="152"/>
      <point x="683.0" y="158" type="curve"/>
      <point x="714.0" y="188" type="line"/>
      <point x="715.0" y="189" type="line" smooth="yes"/>
      <point x="727.0" y="202"/>
      <point x="725.0" y="216"/>
      <point x="713.0" y="232" type="curve"/>
      <point x="720.0" y="233"/>
      <point x="727.0" y="236"/>
      <point x="734.0" y="242" type="curve"/>
      <point x="766.0" y="274" type="line" smooth="yes"/>
      <point x="779.0" y="288"/>
      <point x="777.0" y="300"/>
      <point x="767.0" y="316" type="curve"/>
      <point x="774.0" y="316"/>
      <point x="780.0" y="319"/>
      <point x="785.0" y="325" type="curve"/>
      <point x="821.0" y="360" type="line"/>
      <point x="830.0" y="372"/>
      <point x="829.0" y="392"/>
      <point x="818.0" y="404" type="curve" smooth="yes"/>
      <point x="655.0" y="580" type="line" smooth="yes"/>
      <point x="640.0" y="595"/>
      <point x="624.0" y="603"/>
      <point x="613.0" y="605" type="curve"/>
      <point x="614.0" y="604" type="line"/>
      <point x="579.0" y="616" type="line"/>
      <point x="622.0" y="659" type="line"/>
      <point x="636.0" y="671"/>
      <point x="635.0" y="688"/>
      <point x="624.0" y="699" type="curve"/>
      <point x="556.0" y="766" type="line" smooth="yes"/>
      <point x="545.0" y="777"/>
      <point x="528.0" y="778"/>
      <point x="516.0" y="765" type="curve" smooth="yes"/>
      <point x="182.0" y="431" type="line"/>
      <point x="168.0" y="419"/>
      <point x="170.0" y="402"/>
      <point x="181.0" y="391" type="curve" smooth="yes"/>
      <point x="248.0" y="324" type="line" smooth="yes"/>
      <point x="260.0" y="312"/>
      <point x="276.0" y="310"/>
      <point x="289.0" y="325" type="curve"/>
      <point x="323.0" y="359" type="line"/>
      <point x="323.0" y="359" type="line"/>
      <point x="435.0" y="194" type="line" smooth="yes"/>
      <point x="443.0" y="183"/>
      <point x="459.0" y="166"/>
      <point x="474.0" y="153" type="curve" smooth="yes"/>
      <point x="702.0" y="-46" type="line" smooth="yes"/>
      <point x="713.0" y="-54"/>
      <point x="733.0" y="-59"/>
    </contour>
  </outline>
</glyph>
<glyph name="indexupright.outline" format="1">
  <advance width="1000"/>
  <unicode hex="E145"/>
  <outline>
    <contour>
      <point x="587.0" y="42" type="curve" smooth="yes"/>
      <point x="906.0" y="361" type="line" smooth="yes"/>
      <point x="930.0" y="385"/>
      <point x="930.0" y="409"/>
      <point x="907.0" y="431" type="curve" smooth="yes"/>
      <point x="853.0" y="484" type="line" smooth="yes"/>
      <point x="832.0" y="506"/>
      <point x="806.0" y="504"/>
      <point x="786.0" y="485" type="curve" smooth="yes"/>
      <point x="763.0" y="462" type="line"/>
      <point x="760.0" y="473" type="line"/>
      <point x="755.0" y="485"/>
      <point x="745.0" y="507"/>
      <point x="729.0" y="523" type="curve" smooth="yes"/>
      <point x="557.0" y="681" type="line" smooth="yes"/>
      <point x="537.0" y="700"/>
      <point x="506.0" y="701"/>
      <point x="486.0" y="681" type="curve" smooth="yes"/>
      <point x="457.0" y="653" type="line"/>
      <point x="456.0" y="653" type="line" smooth="yes"/>
      <point x="453.0" y="649"/>
      <point x="450.0" y="645"/>
      <point x="448.0" y="641" type="curve"/>
      <point x="431.0" y="648"/>
      <point x="415.0" y="642"/>
      <point x="401.0" y="626" type="curve"/>
      <point x="373.0" y="599" type="line" smooth="yes"/>
      <point x="370.0" y="596"/>
      <point x="367.0" y="592"/>
      <point x="365.0" y="588" type="curve"/>
      <point x="347.0" y="596"/>
      <point x="330.0" y="590"/>
      <point x="314.0" y="574" type="curve" smooth="yes"/>
      <point x="289.0" y="549" type="line"/>
      <point x="288.0" y="548"/>
      <point x="287.0" y="547"/>
      <point x="286.0" y="545" type="curve"/>
      <point x="190.0" y="641" type="line" smooth="yes"/>
      <point x="164.0" y="667"/>
      <point x="139.0" y="666"/>
      <point x="116.0" y="643" type="curve" smooth="yes"/>
      <point x="95.0" y="622" type="line" smooth="yes"/>
      <point x="71.0" y="598"/>
      <point x="71.0" y="574"/>
      <point x="92.0" y="550" type="curve" smooth="yes"/>
      <point x="284.0" y="328" type="line" smooth="yes"/>
      <point x="300.0" y="312"/>
      <point x="318.0" y="294"/>
      <point x="331.0" y="285" type="curve" smooth="yes"/>
      <point x="483.0" y="181" type="line"/>
      <point x="464.0" y="162" type="line" smooth="yes"/>
      <point x="443.0" y="141"/>
      <point x="442.0" y="117"/>
      <point x="465.0" y="94" type="curve" smooth="yes"/>
      <point x="517.0" y="41" type="line" smooth="yes"/>
      <point x="539.0" y="18"/>
      <point x="562.0" y="17"/>
    </contour>
    <contour>
      <point x="354.0" y="319" type="line" smooth="yes"/>
      <point x="343.0" y="327"/>
      <point x="328.0" y="341"/>
      <point x="317.0" y="355" type="curve" smooth="yes"/>
      <point x="124.0" y="578" type="line" smooth="yes"/>
      <point x="120.0" y="582"/>
      <point x="118.0" y="587"/>
      <point x="124.0" y="593" type="curve" smooth="yes"/>
      <point x="145.0" y="614" type="line"/>
      <point x="150.0" y="620"/>
      <point x="156.0" y="617"/>
      <point x="161.0" y="612" type="curve" smooth="yes"/>
      <point x="358.0" y="415" type="line"/>
      <point x="387.0" y="444" type="line"/>
      <point x="323.0" y="508" type="line"/>
      <point x="318.0" y="514" type="line" smooth="yes"/>
      <point x="315.0" y="518"/>
      <point x="317.0" y="520"/>
      <point x="320.0" y="522" type="curve"/>
      <point x="319.0" y="522" type="line"/>
      <point x="343.0" y="545" type="line" smooth="yes"/>
      <point x="349.0" y="551"/>
      <point x="354.0" y="549"/>
      <point x="359.0" y="544" type="curve" smooth="yes"/>
      <point x="433.0" y="479" type="line"/>
      <point x="440.0" y="473" type="line"/>
      <point x="470.0" y="503" type="line"/>
      <point x="401.0" y="561" type="line"/>
      <point x="400.0" y="565"/>
      <point x="401.0" y="568"/>
      <point x="404.0" y="572" type="curve" smooth="yes"/>
      <point x="429.0" y="598" type="line"/>
      <point x="434.0" y="603"/>
      <point x="439.0" y="601"/>
      <point x="445.0" y="596" type="curve" smooth="yes"/>
      <point x="515.0" y="535" type="line"/>
      <point x="522.0" y="530" type="line"/>
      <point x="553.0" y="557" type="line"/>
      <point x="491.0" y="609" type="line"/>
      <point x="484.0" y="616" type="line" smooth="yes"/>
      <point x="481.0" y="619"/>
      <point x="486.0" y="622"/>
      <point x="487.0" y="624" type="curve" smooth="yes"/>
      <point x="514.0" y="651" type="line" smooth="yes"/>
      <point x="518.0" y="655"/>
      <point x="524.0" y="655"/>
      <point x="528.0" y="651" type="curve" smooth="yes"/>
      <point x="700.0" y="494" type="line"/>
      <point x="710.0" y="483"/>
      <point x="717.0" y="470"/>
      <point x="719.0" y="462" type="curve"/>
      <point x="728.0" y="427" type="line"/>
      <point x="513.0" y="211" type="line"/>
    </contour>
    <contour>
      <point x="516.0" y="101" type="curve"/>
      <point x="516.0" y="100"/>
      <point x="498.0" y="117"/>
      <point x="494.0" y="121" type="curve"/>
      <point x="490.0" y="126"/>
      <point x="489.0" y="131"/>
      <point x="493.0" y="135" type="curve"/>
      <point x="814.0" y="454" type="line"/>
      <point x="818.0" y="458"/>
      <point x="822.0" y="457"/>
      <point x="825.0" y="454" type="curve"/>
      <point x="825.0" y="455" type="line"/>
      <point x="848.0" y="432" type="line"/>
      <point x="851.0" y="429"/>
      <point x="851.0" y="424"/>
      <point x="847.0" y="420" type="curve" smooth="yes"/>
      <point x="528.0" y="100" type="line"/>
      <point x="524.0" y="97"/>
      <point x="520.0" y="97"/>
    </contour>
  </outline>
</glyph>
<glyph name="uni261E.salt" format="1">
  <advance width="1022"/>
  <unicode hex="E150"/>
  <outline>
    <contour>
      <point x="289.0" y="313" type="line" smooth="yes"/>
      <point x="279.0" y="335"/>
      <point x="279.0" y="355"/>
      <point x="283.0" y="376" type="curve" smooth="yes"/>
      <point x="329.0" y="705" type="line" smooth="yes"/>
      <point x="329.0" y="708"/>
      <point x="333.0" y="710"/>
      <point x="337.0" y="710" type="curve" smooth="yes"/>
      <point x="369.0" y="710" type="line" smooth="yes"/>
      <point x="374.0" y="710"/>
      <point x="377.0" y="706"/>
      <point x="377.0" y="701" type="curve" smooth="yes"/>
      <point x="389.0" y="413" type="line" smooth="yes"/>
      <point x="390.0" y="379"/>
      <point x="408.0" y="358"/>
      <point x="437.0" y="347" type="curve" smooth="yes"/>
      <point x="494.0" y="325" type="line" smooth="yes"/>
      <point x="528.0" y="313"/>
      <point x="551.0" y="317"/>
      <point x="586.0" y="330" type="curve" smooth="yes"/>
      <point x="709.0" y="377" type="line" smooth="yes"/>
      <point x="715.0" y="379"/>
      <point x="721.0" y="381"/>
      <point x="725.0" y="375" type="curve"/>
      <point x="743.0" y="342" type="line"/>
      <point x="744.0" y="341" type="line"/>
      <point x="745.0" y="340"/>
      <point x="744.0" y="339"/>
      <point x="743.0" y="339" type="curve" smooth="yes"/>
      <point x="743.0" y="338" type="line"/>
      <point x="668.0" y="284" type="line" smooth="yes"/>
      <point x="641.0" y="266"/>
      <point x="615.0" y="249"/>
      <point x="595.0" y="225" type="curve" smooth="yes"/>
      <point x="545.0" y="165" type="line"/>
      <point x="355.0" y="165" type="line"/>
    </contour>
    <contour>
      <point x="519.0" y="386" type="curve" smooth="yes"/>
      <point x="519.0" y="396" type="line"/>
      <point x="494.0" y="396" type="line"/>
      <point x="494.0" y="386" type="line" smooth="yes"/>
      <point x="494.0" y="379"/>
      <point x="494.0" y="373"/>
      <point x="492.0" y="369" type="curve"/>
      <point x="453.0" y="384" type="line" smooth="yes"/>
      <point x="438.0" y="391"/>
      <point x="431.0" y="400"/>
      <point x="430.0" y="416" type="curve" smooth="yes"/>
      <point x="428.0" y="455" type="line"/>
      <point x="521.0" y="455" type="line" smooth="yes"/>
      <point x="540.0" y="455"/>
      <point x="555.0" y="450"/>
      <point x="564.0" y="432" type="curve" smooth="yes"/>
      <point x="592.0" y="375" type="line"/>
      <point x="571.0" y="367" type="line" smooth="yes"/>
      <point x="554.0" y="361"/>
      <point x="542.0" y="357"/>
      <point x="529.0" y="358" type="curve"/>
      <point x="522.0" y="364"/>
      <point x="519.0" y="375"/>
    </contour>
    <contour>
      <point x="285.0" y="-8" type="curve" smooth="yes"/>
      <point x="652.0" y="-8" type="line" smooth="yes"/>
      <point x="685.0" y="-8"/>
      <point x="702.0" y="10"/>
      <point x="702.0" y="41" type="curve" smooth="yes"/>
      <point x="702.0" y="117" type="line" smooth="yes"/>
      <point x="702.0" y="149"/>
      <point x="682.0" y="165"/>
      <point x="654.0" y="165" type="curve" smooth="yes"/>
      <point x="600.0" y="165" type="line"/>
      <point x="629.0" y="199" type="line" smooth="yes"/>
      <point x="647.0" y="221"/>
      <point x="670.0" y="235"/>
      <point x="692.0" y="252" type="curve" smooth="yes"/>
      <point x="768.0" y="306" type="line" smooth="yes"/>
      <point x="790.0" y="322"/>
      <point x="792.0" y="344"/>
      <point x="779.0" y="363" type="curve"/>
      <point x="756.0" y="401" type="line" smooth="yes"/>
      <point x="743.0" y="422"/>
      <point x="722.0" y="424"/>
      <point x="695.0" y="414" type="curve" smooth="yes"/>
      <point x="631.0" y="390" type="line"/>
      <point x="602.0" y="448" type="line" smooth="yes"/>
      <point x="583.0" y="488"/>
      <point x="554.0" y="496"/>
      <point x="518.0" y="496" type="curve" smooth="yes"/>
      <point x="426.0" y="496" type="line"/>
      <point x="416.0" y="712" type="line" smooth="yes"/>
      <point x="415.0" y="736"/>
      <point x="397.0" y="751"/>
      <point x="374.0" y="751" type="curve" smooth="yes"/>
      <point x="336.0" y="751" type="line" smooth="yes"/>
      <point x="311.0" y="751"/>
      <point x="293.0" y="741"/>
      <point x="289.0" y="713" type="curve" smooth="yes"/>
      <point x="243.0" y="385" type="line" smooth="yes"/>
      <point x="238.0" y="356"/>
      <point x="238.0" y="327"/>
      <point x="252.0" y="296" type="curve" smooth="yes"/>
      <point x="311.0" y="165" type="line"/>
      <point x="283.0" y="165" type="line" smooth="yes"/>
      <point x="253.0" y="165"/>
      <point x="235.0" y="148"/>
      <point x="235.0" y="116" type="curve" smooth="yes"/>
      <point x="235.0" y="41" type="line" smooth="yes"/>
      <point x="235.0" y="10"/>
      <point x="250.0" y="-8"/>
    </contour>
    <contour>
      <point x="661.0" y="83" type="line" smooth="yes"/>
      <point x="661.0" y="78"/>
      <point x="656.0" y="75"/>
      <point x="651.0" y="75" type="curve" smooth="yes"/>
      <point x="284.0" y="75" type="line" smooth="yes"/>
      <point x="279.0" y="75"/>
      <point x="276.0" y="79"/>
      <point x="276.0" y="83" type="curve" smooth="yes"/>
      <point x="276.0" y="116" type="line" smooth="yes"/>
      <point x="276.0" y="121"/>
      <point x="279.0" y="124"/>
      <point x="284.0" y="124" type="curve" smooth="yes"/>
      <point x="652.0" y="124" type="line" smooth="yes"/>
      <point x="657.0" y="124"/>
      <point x="661.0" y="122"/>
      <point x="661.0" y="117" type="curve" smooth="yes"/>
    </contour>
  </outline>
</glyph>
<glyph name="uni261F.salt" format="1">
  <advance width="999"/>
  <unicode hex="E151"/>
  <outline>
    <contour>
      <point x="491.0" y="93" type="curve"/>
      <point x="529.0" y="116" type="line" smooth="yes"/>
      <point x="550.0" y="129"/>
      <point x="552.0" y="150"/>
      <point x="542.0" y="177" type="curve" smooth="yes"/>
      <point x="517.0" y="240" type="line"/>
      <point x="576.0" y="270" type="line" smooth="yes"/>
      <point x="616.0" y="289"/>
      <point x="624.0" y="318"/>
      <point x="624.0" y="354" type="curve" smooth="yes"/>
      <point x="624.0" y="445" type="line"/>
      <point x="840.0" y="456" type="line" smooth="yes"/>
      <point x="864.0" y="457"/>
      <point x="879.0" y="476"/>
      <point x="879.0" y="497" type="curve" smooth="yes"/>
      <point x="879.0" y="536" type="line" smooth="yes"/>
      <point x="879.0" y="561"/>
      <point x="869.0" y="579"/>
      <point x="841.0" y="583" type="curve" smooth="yes"/>
      <point x="513.0" y="629" type="line" smooth="yes"/>
      <point x="484.0" y="633"/>
      <point x="455.0" y="633"/>
      <point x="424.0" y="620" type="curve" smooth="yes"/>
      <point x="293.0" y="561" type="line"/>
      <point x="293.0" y="589" type="line" smooth="yes"/>
      <point x="293.0" y="619"/>
      <point x="276.0" y="637"/>
      <point x="244.0" y="637" type="curve" smooth="yes"/>
      <point x="169.0" y="637" type="line" smooth="yes"/>
      <point x="138.0" y="637"/>
      <point x="120.0" y="622"/>
      <point x="120.0" y="587" type="curve" smooth="yes"/>
      <point x="120.0" y="220" type="line" smooth="yes"/>
      <point x="120.0" y="187"/>
      <point x="138.0" y="170"/>
      <point x="169.0" y="170" type="curve" smooth="yes"/>
      <point x="245.0" y="170" type="line" smooth="yes"/>
      <point x="277.0" y="170"/>
      <point x="293.0" y="190"/>
      <point x="293.0" y="218" type="curve" smooth="yes"/>
      <point x="293.0" y="272" type="line"/>
      <point x="327.0" y="243" type="line" smooth="yes"/>
      <point x="349.0" y="225"/>
      <point x="363.0" y="202"/>
      <point x="380.0" y="180" type="curve" smooth="yes"/>
      <point x="434.0" y="104" type="line" smooth="yes"/>
      <point x="450.0" y="82"/>
      <point x="472.0" y="80"/>
    </contour>
    <contour>
      <point x="211.0" y="211" type="line" smooth="yes"/>
      <point x="206.0" y="211"/>
      <point x="203.0" y="216"/>
      <point x="203.0" y="221" type="curve" smooth="yes"/>
      <point x="203.0" y="588" type="line" smooth="yes"/>
      <point x="203.0" y="593"/>
      <point x="207.0" y="596"/>
      <point x="211.0" y="596" type="curve" smooth="yes"/>
      <point x="244.0" y="596" type="line" smooth="yes"/>
      <point x="249.0" y="596"/>
      <point x="252.0" y="593"/>
      <point x="252.0" y="588" type="curve" smooth="yes"/>
      <point x="252.0" y="220" type="line" smooth="yes"/>
      <point x="252.0" y="215"/>
      <point x="250.0" y="211"/>
      <point x="245.0" y="211" type="curve" smooth="yes"/>
    </contour>
    <contour>
      <point x="467.0" y="129" type="curve" smooth="yes"/>
      <point x="466.0" y="129" type="line"/>
      <point x="412.0" y="204" type="line" smooth="yes"/>
      <point x="394.0" y="230"/>
      <point x="377.0" y="257"/>
      <point x="353.0" y="277" type="curve" smooth="yes"/>
      <point x="293.0" y="326" type="line"/>
      <point x="293.0" y="516" type="line"/>
      <point x="441.0" y="583" type="line" smooth="yes"/>
      <point x="463.0" y="593"/>
      <point x="483.0" y="592"/>
      <point x="505.0" y="589" type="curve" smooth="yes"/>
      <point x="833.0" y="543" type="line" smooth="yes"/>
      <point x="836.0" y="543"/>
      <point x="838.0" y="539"/>
      <point x="838.0" y="535" type="curve" smooth="yes"/>
      <point x="838.0" y="503" type="line" smooth="yes"/>
      <point x="838.0" y="498"/>
      <point x="834.0" y="495"/>
      <point x="829.0" y="495" type="curve" smooth="yes"/>
      <point x="541.0" y="483" type="line" smooth="yes"/>
      <point x="507.0" y="482"/>
      <point x="486.0" y="463"/>
      <point x="475.0" y="435" type="curve" smooth="yes"/>
      <point x="453.0" y="378" type="line" smooth="yes"/>
      <point x="441.0" y="344"/>
      <point x="445.0" y="321"/>
      <point x="458.0" y="286" type="curve" smooth="yes"/>
      <point x="505.0" y="163" type="line" smooth="yes"/>
      <point x="507.0" y="157"/>
      <point x="509.0" y="151"/>
      <point x="503.0" y="147" type="curve"/>
      <point x="470.0" y="128" type="line" smooth="yes"/>
      <point x="469.0" y="127"/>
      <point x="467.0" y="128"/>
    </contour>
    <contour>
      <point x="495.0" y="301" type="line" smooth="yes"/>
      <point x="488.0" y="317"/>
      <point x="484.0" y="330"/>
      <point x="485.0" y="343" type="curve"/>
      <point x="492.0" y="350"/>
      <point x="502.0" y="352"/>
      <point x="514.0" y="353" type="curve" smooth="yes"/>
      <point x="524.0" y="353" type="line"/>
      <point x="524.0" y="378" type="line"/>
      <point x="514.0" y="378" type="line" smooth="yes"/>
      <point x="507.0" y="378"/>
      <point x="500.0" y="378"/>
      <point x="496.0" y="379" type="curve"/>
      <point x="512.0" y="419" type="line" smooth="yes"/>
      <point x="519.0" y="434"/>
      <point x="528.0" y="441"/>
      <point x="544.0" y="442" type="curve" smooth="yes"/>
      <point x="583.0" y="443" type="line"/>
      <point x="583.0" y="350" type="line" smooth="yes"/>
      <point x="583.0" y="332"/>
      <point x="578.0" y="317"/>
      <point x="560.0" y="308" type="curve" smooth="yes"/>
      <point x="502.0" y="280" type="line"/>
    </contour>
  </outline>
</glyph>
<glyph name="indexdownleft.salt_outline" format="1">
  <advance width="1000"/>
  <unicode hex="E152"/>
  <outline>
    <contour>
      <point x="768.0" y="-18" type="curve"/>
      <point x="797.0" y="10" type="line" smooth="yes"/>
      <point x="812.0" y="24"/>
      <point x="814.0" y="48"/>
      <point x="799.0" y="66" type="curve" smooth="yes"/>
      <point x="653.0" y="226" type="line"/>
      <point x="718.0" y="291" type="line" smooth="yes"/>
      <point x="744.0" y="316"/>
      <point x="758.0" y="343"/>
      <point x="743.0" y="383" type="curve" smooth="yes"/>
      <point x="722.0" y="446" type="line"/>
      <point x="784.0" y="474" type="line" smooth="yes"/>
      <point x="810.0" y="485"/>
      <point x="825.0" y="503"/>
      <point x="820.0" y="526" type="curve" smooth="yes"/>
      <point x="809.0" y="570" type="line" smooth="yes"/>
      <point x="804.0" y="593"/>
      <point x="787.0" y="606"/>
      <point x="759.0" y="602" type="curve" smooth="yes"/>
      <point x="669.0" y="587" type="line" smooth="yes"/>
      <point x="640.0" y="583"/>
      <point x="614.0" y="577"/>
      <point x="587.0" y="579" type="curve" smooth="yes"/>
      <point x="540.0" y="582" type="line"/>
      <point x="564.0" y="606"/>
      <point x="579.0" y="621"/>
      <point x="579.0" y="621" type="curve"/>
      <point x="599.0" y="639"/>
      <point x="602.0" y="666"/>
      <point x="579.0" y="689" type="curve" smooth="yes"/>
      <point x="526.0" y="742" type="line" smooth="yes"/>
      <point x="504.0" y="764"/>
      <point x="480.0" y="765"/>
      <point x="456.0" y="742" type="curve" smooth="yes"/>
      <point x="197.0" y="482" type="line" smooth="yes"/>
      <point x="172.0" y="457"/>
      <point x="174.0" y="436"/>
      <point x="197.0" y="413" type="curve" smooth="yes"/>
      <point x="249.0" y="360" type="line" smooth="yes"/>
      <point x="272.0" y="337"/>
      <point x="295.0" y="337"/>
      <point x="318.0" y="359" type="curve" smooth="yes"/>
      <point x="318.0" y="359"/>
      <point x="325.0" y="366"/>
      <point x="337.0" y="378" type="curve"/>
      <point x="388.0" y="245" type="line" smooth="yes"/>
      <point x="402.0" y="212"/>
      <point x="422.0" y="192"/>
      <point x="445.0" y="174" type="curve" smooth="yes"/>
      <point x="710.0" y="-25" type="line" smooth="yes"/>
      <point x="733.0" y="-43"/>
      <point x="753.0" y="-35"/>
    </contour>
    <contour>
      <point x="278.0" y="389" type="curve" smooth="yes"/>
      <point x="255.0" y="412" type="line" smooth="yes"/>
      <point x="252.0" y="415"/>
      <point x="252.0" y="419"/>
      <point x="255.0" y="423" type="curve" smooth="yes"/>
      <point x="514.0" y="683" type="line"/>
      <point x="518.0" y="686"/>
      <point x="523.0" y="687"/>
      <point x="527.0" y="683" type="curve"/>
      <point x="527.0" y="684" type="line"/>
      <point x="551.0" y="659" type="line" smooth="yes"/>
      <point x="555.0" y="655"/>
      <point x="552.0" y="651"/>
      <point x="549.0" y="647" type="curve"/>
      <point x="289.0" y="389" type="line" smooth="yes"/>
      <point x="285.0" y="386"/>
      <point x="282.0" y="386"/>
    </contour>
    <contour>
      <point x="732.0" y="10" type="curve" smooth="yes"/>
      <point x="467.0" y="208" type="line" smooth="yes"/>
      <point x="449.0" y="222"/>
      <point x="436.0" y="237"/>
      <point x="426.0" y="259" type="curve"/>
      <point x="369.0" y="410" type="line"/>
      <point x="407.0" y="448"/>
      <point x="459.0" y="501"/>
      <point x="502.0" y="544" type="curve"/>
      <point x="581.0" y="538" type="line" smooth="yes"/>
      <point x="612.0" y="535"/>
      <point x="642.0" y="541"/>
      <point x="675.0" y="546" type="curve" smooth="yes"/>
      <point x="766.0" y="561" type="line"/>
      <point x="767.0" y="561" type="line" smooth="yes"/>
      <point x="767.0" y="562"/>
      <point x="768.0" y="562"/>
      <point x="768.0" y="560" type="curve"/>
      <point x="779.0" y="522" type="line"/>
      <point x="780.0" y="516"/>
      <point x="775.0" y="514"/>
      <point x="769.0" y="511" type="curve" smooth="yes"/>
      <point x="768.0" y="511" type="line"/>
      <point x="648.0" y="456" type="line" smooth="yes"/>
      <point x="614.0" y="441"/>
      <point x="595.0" y="428"/>
      <point x="580.0" y="395" type="curve" smooth="yes"/>
      <point x="555.0" y="339" type="line" smooth="yes"/>
      <point x="543.0" y="312"/>
      <point x="545.0" y="282"/>
      <point x="568.0" y="258" type="curve" smooth="yes"/>
      <point x="763.0" y="46" type="line"/>
      <point x="763.0" y="45" type="line" smooth="yes"/>
      <point x="767.0" y="43"/>
      <point x="767.0" y="38"/>
      <point x="764.0" y="35" type="curve" smooth="yes"/>
      <point x="741.0" y="13" type="line"/>
      <point x="739.0" y="10"/>
      <point x="735.0" y="7"/>
    </contour>
    <contour>
      <point x="599.0" y="284" type="line"/>
      <point x="589.0" y="297"/>
      <point x="587.0" y="309"/>
      <point x="593.0" y="323" type="curve" smooth="yes"/>
      <point x="610.0" y="363" type="line"/>
      <point x="614.0" y="361"/>
      <point x="619.0" y="356"/>
      <point x="623.0" y="352" type="curve" smooth="yes"/>
      <point x="630.0" y="345" type="line"/>
      <point x="647.0" y="361" type="line"/>
      <point x="641.0" y="368" type="line" smooth="yes"/>
      <point x="634.0" y="377"/>
      <point x="629.0" y="386"/>
      <point x="628.0" y="396" type="curve"/>
      <point x="637.0" y="406"/>
      <point x="648.0" y="412"/>
      <point x="665.0" y="419" type="curve" smooth="yes"/>
      <point x="685.0" y="428" type="line"/>
      <point x="705.0" y="368" type="line" smooth="yes"/>
      <point x="712.0" y="350"/>
      <point x="704.0" y="334"/>
      <point x="691.0" y="322" type="curve" smooth="yes"/>
      <point x="625.0" y="255" type="line"/>
    </contour>
  </outline>
</glyph>
<glyph name="uni2B24.salt" format="1">
  <advance width="1280"/>
  <unicode hex="E15D"/>
  <outline>
    <contour>
      <point x="305.0" y="910.0" type="line"/>
      <point x="303.0" y="908.0" type="line" smooth="yes"/>
      <point x="141.0" y="774.0"/>
      <point x="60.0" y="567.0"/>
      <point x="60.0" y="360.0" type="curve" smooth="yes"/>
      <point x="60.0" y="153.0"/>
      <point x="141.0" y="-54.0"/>
      <point x="303.0" y="-188.0" type="curve" smooth="yes"/>
      <point x="305.0" y="-190.0" type="line"/>
      <point x="975.0" y="-190.0" type="line"/>
      <point x="977.0" y="-188.0" type="line" smooth="yes"/>
      <point x="1138.0" y="-57.0"/>
      <point x="1220.0" y="153.0"/>
      <point x="1220.0" y="363.0" type="curve" smooth="yes"/>
      <point x="1220.0" y="571.0"/>
      <point x="1140.0" y="778.0"/>
      <point x="977.0" y="908.0" type="curve" smooth="yes"/>
      <point x="975.0" y="910.0" type="line"/>
    </contour>
  </outline>
</glyph>
<glyph name="uni25DD.curve" format="1">
  <advance width="1280.0"/>
  <unicode hex="E15E"/>
  <outline>
    <contour>
      <point x="1150.0" y="-190.0" type="line" smooth="yes"/>
      <point x="1173.0" y="-190.0"/>
      <point x="1190.0" y="-173.0"/>
      <point x="1190.0" y="-150.0" type="curve" smooth="yes"/>
      <point x="1190.0" y="864.0" type="line" smooth="yes"/>
      <point x="1190.0" y="896.0"/>
      <point x="1176.0" y="910.0"/>
      <point x="1144.0" y="910.0" type="curve" smooth="yes"/>
      <point x="581.0" y="910.0" type="line" smooth="yes"/>
      <point x="269.0" y="910.0"/>
      <point x="90.0" y="731.0"/>
      <point x="90.0" y="420.0" type="curve" smooth="yes"/>
      <point x="90.0" y="-144.0" type="line" smooth="yes"/>
      <point x="90.0" y="-176.0"/>
      <point x="104.0" y="-190.0"/>
      <point x="136.0" y="-190.0" type="curve" smooth="yes"/>
    </contour>
  </outline>
</glyph>
<glyph name="uni2B1B.trapezoid_e" format="1">
  <advance width="1280.0"/>
  <unicode hex="E15F"/>
  <outline>
    <contour>
      <point x="1146.0" y="810.0" type="curve" smooth="yes"/>
      <point x="138.0" y="1010.0" type="line" smooth="yes"/>
      <point x="106.0" y="1016.0"/>
      <point x="90.0" y="998.0"/>
      <point x="90.0" y="964.0" type="curve" smooth="yes"/>
      <point x="90.0" y="-144.0" type="line" smooth="yes"/>
      <point x="90.0" y="-176.0"/>
      <point x="104.0" y="-190.0"/>
      <point x="136.0" y="-190.0" type="curve" smooth="yes"/>
      <point x="1144.0" y="-190.0" type="line" smooth="yes"/>
      <point x="1176.0" y="-190.0"/>
      <point x="1190.0" y="-176.0"/>
      <point x="1190.0" y="-144.0" type="curve" smooth="yes"/>
      <point x="1190.0" y="764.0" type="line" smooth="yes"/>
      <point x="1190.0" y="795.0"/>
      <point x="1178.0" y="803.0"/>
    </contour>
  </outline>
</glyph>
<glyph name="uni2B1B.trapezoid_w" format="1">
  <advance width="1280.0"/>
  <unicode hex="E160"/>
  <outline>
    <contour>
      <point x="1145" y="-190" type="line" smooth="yes"/>
      <point x="1177" y="-190"/>
      <point x="1191" y="-176"/>
      <point x="1191" y="-144" type="curve" smooth="yes"/>
      <point x="1191" y="864" type="line" smooth="yes"/>
      <point x="1191" y="896"/>
      <point x="1177" y="910"/>
      <point x="1145" y="910" type="curve" smooth="yes"/>
      <point x="37" y="910" type="line" smooth="yes"/>
      <point x="3" y="910"/>
      <point x="-15" y="894"/>
      <point x="-9" y="862" type="curve" smooth="yes"/>
      <point x="191" y="-146" type="line" smooth="yes"/>
      <point x="198" y="-178"/>
      <point x="206" y="-190"/>
      <point x="237" y="-190" type="curve" smooth="yes"/>
    </contour>
  </outline>
</glyph>
<glyph name="uni21AC.arrow" format="1">
  <advance width="1000.0"/>
  <unicode hex="E17A"/>
  <outline>
    <contour>
      <point x="-40" y="-190" type="line"/>
      <point x="259" y="-190" type="line" smooth="yes"/>
      <point x="706" y="-190"/>
      <point x="1003" y="60"/>
      <point x="1003" y="620" type="curve" smooth="yes"/>
      <point x="1003" y="998" type="line"/>
      <point x="1146" y="998" type="line" smooth="yes"/>
      <point x="1176" y="998"/>
      <point x="1192" y="1016"/>
      <point x="1192" y="1039" type="curve" smooth="yes"/>
      <point x="1192" y="1056"/>
      <point x="1184" y="1076"/>
      <point x="1163" y="1095" type="curve" smooth="yes"/>
      <point x="614" y="1611" type="line" smooth="yes"/>
      <point x="590" y="1634"/>
      <point x="569" y="1644"/>
      <point x="547" y="1644" type="curve" smooth="yes"/>
      <point x="526" y="1644"/>
      <point x="505" y="1635"/>
      <point x="480" y="1611" type="curve" smooth="yes"/>
      <point x="-61" y="1095" type="line" smooth="yes"/>
      <point x="-82" y="1076"/>
      <point x="-90" y="1055"/>
      <point x="-90" y="1039" type="curve" smooth="yes"/>
      <point x="-90" y="1016"/>
      <point x="-74" y="998"/>
      <point x="-44" y="998" type="curve" smooth="yes"/>
      <point x="83" y="998" type="line"/>
      <point x="83" y="961" type="line" smooth="yes"/>
      <point x="83" y="921"/>
      <point x="62" y="910"/>
      <point x="19" y="910" type="curve" smooth="yes"/>
      <point x="-40" y="910" type="line"/>
    </contour>
  </outline>
</glyph>
<glyph name="uni2B1B.chevron_e" format="1">
  <advance width="1280.0"/>
  <unicode hex="E181"/>
  <outline>
    <contour>
      <point x="37" y="-190" type="curve" smooth="yes"/>
      <point x="1045" y="-190" type="line" smooth="yes"/>
      <point x="1075" y="-190"/>
      <point x="1079" y="-178"/>
      <point x="1090" y="-148" type="curve" smooth="yes"/>
      <point x="1279" y="326" type="line" smooth="yes"/>
      <point x="1284" y="336"/>
      <point x="1285" y="348"/>
      <point x="1285" y="359" type="curve" smooth="yes"/>
      <point x="1285" y="369"/>
      <point x="1284" y="381"/>
      <point x="1279" y="391" type="curve" smooth="yes"/>
      <point x="1090" y="868" type="line" smooth="yes"/>
      <point x="1079" y="898"/>
      <point x="1075" y="910"/>
      <point x="1045" y="910" type="curve" smooth="yes"/>
      <point x="37" y="910" type="line" smooth="yes"/>
      <point x="10" y="910"/>
      <point x="-10" y="893"/>
      <point x="-10" y="873" type="curve" smooth="yes"/>
      <point x="-10" y="868"/>
      <point x="-8" y="861"/>
      <point x="-6" y="856" type="curve" smooth="yes"/>
      <point x="190" y="360" type="line"/>
      <point x="-6" y="-136" type="line"/>
      <point x="-9" y="-141"/>
      <point x="-10" y="-148"/>
      <point x="-10" y="-153" type="curve" smooth="yes"/>
      <point x="-10" y="-173"/>
      <point x="10" y="-190"/>
    </contour>
  </outline>
</glyph>
<glyph name="A.salt" format="1">
  <advance width="860"/>
  <outline>
    <contour>
      <point x="261.0" y="50" type="curve" smooth="yes"/>
      <point x="756.0" y="50" type="line" smooth="yes"/>
      <point x="788.0" y="50"/>
      <point x="803.0" y="64"/>
      <point x="803.0" y="96" type="curve" smooth="yes"/>
      <point x="803.0" y="243" type="line" smooth="yes"/>
      <point x="803.0" y="275"/>
      <point x="788.0" y="289"/>
      <point x="756.0" y="289" type="curve" smooth="yes"/>
      <point x="617.0" y="289" type="line"/>
      <point x="617.0" y="426" type="line"/>
      <point x="756.0" y="426" type="line" smooth="yes"/>
      <point x="788.0" y="426"/>
      <point x="803.0" y="440"/>
      <point x="803.0" y="472" type="curve" smooth="yes"/>
      <point x="803.0" y="624" type="line" smooth="yes"/>
      <point x="803.0" y="656"/>
      <point x="788.0" y="670"/>
      <point x="756.0" y="670" type="curve" smooth="yes"/>
      <point x="261.0" y="670" type="line" smooth="yes"/>
      <point x="136.0" y="670"/>
      <point x="47.0" y="620"/>
      <point x="47.0" y="359" type="curve" smooth="yes"/>
      <point x="47.0" y="99"/>
      <point x="136.0" y="50"/>
    </contour>
    <contour>
      <point x="295" y="289" type="line" smooth="yes"/>
      <point x="271" y="289"/>
      <point x="258" y="302"/>
      <point x="258" y="358" type="curve" smooth="yes"/>
      <point x="258" y="413"/>
      <point x="271" y="426"/>
      <point x="295" y="426" type="curve" smooth="yes"/>
      <point x="414" y="426" type="line"/>
      <point x="414" y="289" type="line"/>
    </contour>
    <contour>
      <point x="46.0" y="359.0" type="move" name="top"/>
    </contour>
    <contour>
      <point x="46.0" y="359.0" type="move" name="top"/>
    </contour>
    <contour>
      <point x="793.0" y="359.0" type="move" name="bottom"/>
    </contour>
    <contour>
      <point x="793.0" y="359.0" type="move" name="bottom"/>
    </contour>
    <contour>
      <point x="46.0" y="359.0" type="move" name="top"/>
    </contour>
    <contour>
      <point x="46.0" y="359.0" type="move" name="top"/>
    </contour>
    <contour>
      <point x="793.0" y="359.0" type="move" name="bottom"/>
    </contour>
    <contour>
      <point x="793.0" y="359.0" type="move" name="bottom"/>
    </contour>
  </outline>
</glyph>
<glyph name="D.s" format="1">
  <advance width="824"/>
  <outline>
    <contour>
      <point x="548.0" y="675" type="curve" smooth="yes"/>
      <point x="276.0" y="675" type="line" smooth="yes"/>
      <point x="150.0" y="675"/>
      <point x="62.0" y="617"/>
      <point x="62.0" y="419" type="curve" smooth="yes"/>
      <point x="62.0" y="96" type="line" smooth="yes"/>
      <point x="62.0" y="64"/>
      <point x="76.0" y="50"/>
      <point x="108.0" y="50" type="curve" smooth="yes"/>
      <point x="716.0" y="50" type="line" smooth="yes"/>
      <point x="748.0" y="50"/>
      <point x="762.0" y="64"/>
      <point x="762.0" y="96" type="curve" smooth="yes"/>
      <point x="762.0" y="419" type="line" smooth="yes"/>
      <point x="762.0" y="617"/>
      <point x="674.0" y="675"/>
    </contour>
    <contour>
      <point x="273.0" y="392" type="line" smooth="yes"/>
      <point x="273.0" y="424"/>
      <point x="291.0" y="429"/>
      <point x="311.0" y="429" type="curve" smooth="yes"/>
      <point x="514.0" y="429" type="line" smooth="yes"/>
      <point x="535.0" y="429"/>
      <point x="553.0" y="424"/>
      <point x="553.0" y="392" type="curve" smooth="yes"/>
      <point x="553.0" y="297" type="line"/>
      <point x="273.0" y="297" type="line"/>
    </contour>
  </outline>
</glyph>
<glyph name="I.s" format="1">
  <advance width="840"/>
  <outline>
    <contour>
      <point x="116.0" y="59" type="curve" smooth="yes"/>
      <point x="237.0" y="59" type="line" smooth="yes"/>
      <point x="269.0" y="59"/>
      <point x="283.0" y="73"/>
      <point x="283.0" y="105" type="curve" smooth="yes"/>
      <point x="283.0" y="229" type="line"/>
      <point x="559.0" y="229" type="line"/>
      <point x="559.0" y="105" type="line" smooth="yes"/>
      <point x="559.0" y="73"/>
      <point x="573.0" y="59"/>
      <point x="605.0" y="59" type="curve" smooth="yes"/>
      <point x="724.0" y="59" type="line" smooth="yes"/>
      <point x="756.0" y="59"/>
      <point x="770.0" y="73"/>
      <point x="770.0" y="105" type="curve" smooth="yes"/>
      <point x="770.0" y="615" type="line" smooth="yes"/>
      <point x="770.0" y="647"/>
      <point x="756.0" y="661"/>
      <point x="724.0" y="661" type="curve" smooth="yes"/>
      <point x="605.0" y="661" type="line" smooth="yes"/>
      <point x="573.0" y="661"/>
      <point x="559.0" y="647"/>
      <point x="559.0" y="615" type="curve" smooth="yes"/>
      <point x="559.0" y="491" type="line"/>
      <point x="283.0" y="491" type="line"/>
      <point x="283.0" y="615" type="line" smooth="yes"/>
      <point x="283.0" y="647"/>
      <point x="269.0" y="661"/>
      <point x="237.0" y="661" type="curve" smooth="yes"/>
      <point x="116.0" y="661" type="line" smooth="yes"/>
      <point x="84.0" y="661"/>
      <point x="70.0" y="647"/>
      <point x="70.0" y="615" type="curve" smooth="yes"/>
      <point x="70.0" y="105" type="line" smooth="yes"/>
      <point x="70.0" y="73"/>
      <point x="84.0" y="59"/>
    </contour>
  </outline>
</glyph>
<glyph name="I.salt" format="1">
  <advance width="830"/>
  <outline>
    <contour>
      <point x="739.0" y="485" type="curve" smooth="yes"/>
      <point x="91.0" y="485" type="line" smooth="yes"/>
      <point x="59.0" y="485"/>
      <point x="45.0" y="471"/>
      <point x="45.0" y="439" type="curve" smooth="yes"/>
      <point x="45.0" y="280" type="line" smooth="yes"/>
      <point x="45.0" y="248"/>
      <point x="59.0" y="234"/>
      <point x="91.0" y="234" type="curve" smooth="yes"/>
      <point x="739.0" y="234" type="line" smooth="yes"/>
      <point x="771.0" y="234"/>
      <point x="785.0" y="248"/>
      <point x="785.0" y="280" type="curve" smooth="yes"/>
      <point x="785.0" y="439" type="line" smooth="yes"/>
      <point x="785.0" y="471"/>
      <point x="771.0" y="485"/>
    </contour>
    <contour>
      <point x="28.0" y="359.0" type="move" name="top"/>
    </contour>
    <contour>
      <point x="775.0" y="359.0" type="move" name="bottom"/>
    </contour>
  </outline>
</glyph>
<glyph name="I.salt_s" format="1">
  <advance width="790"/>
  <outline>
    <contour>
      <point x="699.0" y="485" type="curve" smooth="yes"/>
      <point x="91.0" y="485" type="line" smooth="yes"/>
      <point x="59.0" y="485"/>
      <point x="45.0" y="471"/>
      <point x="45.0" y="439" type="curve" smooth="yes"/>
      <point x="45.0" y="280" type="line" smooth="yes"/>
      <point x="45.0" y="248"/>
      <point x="59.0" y="234"/>
      <point x="91.0" y="234" type="curve" smooth="yes"/>
      <point x="699.0" y="234" type="line" smooth="yes"/>
      <point x="731.0" y="234"/>
      <point x="745.0" y="248"/>
      <point x="745.0" y="280" type="curve" smooth="yes"/>
      <point x="745.0" y="439" type="line" smooth="yes"/>
      <point x="745.0" y="471"/>
      <point x="731.0" y="485"/>
    </contour>
  </outline>
</glyph>
<glyph name="L.salt_s" format="1">
  <advance width="815.0"/>
  <outline>
    <contour>
      <point x="45" y="256" type="line" smooth="yes"/>
      <point x="45" y="288"/>
      <point x="59" y="302"/>
      <point x="91" y="302" type="curve" smooth="yes"/>
      <point x="542" y="302" type="line"/>
      <point x="532" y="292" type="line"/>
      <point x="532" y="619" type="line" smooth="yes"/>
      <point x="532" y="651"/>
      <point x="546" y="665"/>
      <point x="578" y="665" type="curve" smooth="yes"/>
      <point x="699" y="665" type="line" smooth="yes"/>
      <point x="731" y="665"/>
      <point x="745" y="651"/>
      <point x="745" y="619" type="curve" smooth="yes"/>
      <point x="745" y="101" type="line" smooth="yes"/>
      <point x="745" y="69"/>
      <point x="731" y="55"/>
      <point x="699" y="55" type="curve" smooth="yes"/>
      <point x="91" y="55" type="line" smooth="yes"/>
      <point x="59" y="55"/>
      <point x="45" y="69"/>
      <point x="45" y="101" type="curve" smooth="yes"/>
    </contour>
  </outline>
</glyph>
<glyph name="N.s" format="1">
  <advance width="814"/>
  <outline>
    <contour>
      <point x="103.0" y="50" type="curve" smooth="yes"/>
      <point x="711.0" y="50" type="line" smooth="yes"/>
      <point x="743.0" y="50"/>
      <point x="757.0" y="64"/>
      <point x="757.0" y="96" type="curve" smooth="yes"/>
      <point x="757.0" y="246" type="line" smooth="yes"/>
      <point x="757.0" y="278"/>
      <point x="743.0" y="292"/>
      <point x="711.0" y="292" type="curve" smooth="yes"/>
      <point x="448.0" y="292" type="line"/>
      <point x="612.0" y="429" type="line"/>
      <point x="711.0" y="429" type="line" smooth="yes"/>
      <point x="743.0" y="429"/>
      <point x="757.0" y="443"/>
      <point x="757.0" y="475" type="curve" smooth="yes"/>
      <point x="757.0" y="625" type="line" smooth="yes"/>
      <point x="757.0" y="657"/>
      <point x="743.0" y="671"/>
      <point x="711.0" y="671" type="curve" smooth="yes"/>
      <point x="103.0" y="671" type="line" smooth="yes"/>
      <point x="71.0" y="671"/>
      <point x="57.0" y="657"/>
      <point x="57.0" y="625" type="curve" smooth="yes"/>
      <point x="57.0" y="475" type="line" smooth="yes"/>
      <point x="57.0" y="443"/>
      <point x="71.0" y="429"/>
      <point x="103.0" y="429" type="curve" smooth="yes"/>
      <point x="270.0" y="429" type="line"/>
      <point x="87.0" y="266" type="line" smooth="yes"/>
      <point x="65.0" y="247"/>
      <point x="57.0" y="229"/>
      <point x="57.0" y="200" type="curve" smooth="yes"/>
      <point x="57.0" y="96" type="line" smooth="yes"/>
      <point x="57.0" y="64"/>
      <point x="71.0" y="50"/>
    </contour>
  </outline>
</glyph>
<glyph name="W.s" format="1">
  <advance width="814"/>
  <outline>
    <contour>
      <point x="103.0" y="28" type="curve" smooth="yes"/>
      <point x="429.0" y="32" type="line"/>
      <point x="492.0" y="32"/>
      <point x="506.0" y="32"/>
      <point x="576.0" y="50" type="curve" smooth="yes"/>
      <point x="714.0" y="86" type="line" smooth="yes"/>
      <point x="742.0" y="94"/>
      <point x="757.0" y="112"/>
      <point x="757.0" y="142" type="curve" smooth="yes"/>
      <point x="757.0" y="250" type="line" smooth="yes"/>
      <point x="757.0" y="288"/>
      <point x="744.0" y="302"/>
      <point x="720.0" y="310" type="curve" smooth="yes"/>
      <point x="551.0" y="361" type="line"/>
      <point x="551.0" y="369" type="line"/>
      <point x="720.0" y="420" type="line" smooth="yes"/>
      <point x="745.0" y="428"/>
      <point x="757.0" y="442"/>
      <point x="757.0" y="480" type="curve" smooth="yes"/>
      <point x="757.0" y="580" type="line" smooth="yes"/>
      <point x="757.0" y="610"/>
      <point x="743.0" y="626"/>
      <point x="713.0" y="634" type="curve" smooth="yes"/>
      <point x="578.0" y="670" type="line" smooth="yes"/>
      <point x="508.0" y="688"/>
      <point x="493.0" y="688"/>
      <point x="431.0" y="688" type="curve" smooth="yes"/>
      <point x="103.0" y="692" type="line" smooth="yes"/>
      <point x="71.0" y="692"/>
      <point x="57.0" y="679"/>
      <point x="57.0" y="646" type="curve" smooth="yes"/>
      <point x="57.0" y="513" type="line" smooth="yes"/>
      <point x="57.0" y="481"/>
      <point x="70.0" y="472"/>
      <point x="103.0" y="472" type="curve"/>
      <point x="347.0" y="469" type="line"/>
      <point x="284.0" y="448" type="line"/>
      <point x="283.0" y="448" type="line" smooth="yes"/>
      <point x="257.0" y="432"/>
      <point x="247.0" y="416"/>
      <point x="247.0" y="386" type="curve" smooth="yes"/>
      <point x="247.0" y="355" type="line" smooth="yes"/>
      <point x="247.0" y="325"/>
      <point x="257.0" y="309"/>
      <point x="283.0" y="293" type="curve" smooth="yes"/>
      <point x="284.0" y="293" type="line"/>
      <point x="348.0" y="272" type="line"/>
      <point x="103.0" y="268" type="line" smooth="yes"/>
      <point x="71.0" y="268"/>
      <point x="57.0" y="254"/>
      <point x="57.0" y="222" type="curve" smooth="yes"/>
      <point x="57.0" y="74" type="line" smooth="yes"/>
      <point x="57.0" y="42"/>
      <point x="71.0" y="28"/>
    </contour>
  </outline>
</glyph>
<glyph name="W.salt_s" format="1">
  <advance width="842"/>
  <outline>
    <contour>
      <point x="116.0" y="1" type="curve" smooth="yes"/>
      <point x="571.0" y="1" type="line" smooth="yes"/>
      <point x="699.0" y="1"/>
      <point x="785.0" y="52"/>
      <point x="785.0" y="210" type="curve" smooth="yes"/>
      <point x="785.0" y="283"/>
      <point x="769.0" y="330"/>
      <point x="741.0" y="360" type="curve"/>
      <point x="769.0" y="389"/>
      <point x="785.0" y="436"/>
      <point x="785.0" y="509" type="curve" smooth="yes"/>
      <point x="785.0" y="667"/>
      <point x="699.0" y="718"/>
      <point x="571.0" y="718" type="curve" smooth="yes"/>
      <point x="116.0" y="718" type="line" smooth="yes"/>
      <point x="84.0" y="718"/>
      <point x="70.0" y="704"/>
      <point x="70.0" y="672" type="curve" smooth="yes"/>
      <point x="70.0" y="555" type="line" smooth="yes"/>
      <point x="70.0" y="522"/>
      <point x="84.0" y="509"/>
      <point x="116.0" y="509" type="curve" smooth="yes"/>
      <point x="539.0" y="509" type="line" smooth="yes"/>
      <point x="558.0" y="509"/>
      <point x="569.0" y="506"/>
      <point x="569.0" y="486" type="curve" smooth="yes"/>
      <point x="569.0" y="467"/>
      <point x="558.0" y="464"/>
      <point x="539.0" y="464" type="curve" smooth="yes"/>
      <point x="116.0" y="464" type="line" smooth="yes"/>
      <point x="84.0" y="464"/>
      <point x="70.0" y="450"/>
      <point x="70.0" y="418" type="curve" smooth="yes"/>
      <point x="70.0" y="301" type="line" smooth="yes"/>
      <point x="70.0" y="269"/>
      <point x="84.0" y="255"/>
      <point x="116.0" y="255" type="curve" smooth="yes"/>
      <point x="539.0" y="255" type="line" smooth="yes"/>
      <point x="558.0" y="255"/>
      <point x="569.0" y="253"/>
      <point x="569.0" y="233" type="curve" smooth="yes"/>
      <point x="569.0" y="214"/>
      <point x="558.0" y="210"/>
      <point x="539.0" y="210" type="curve" smooth="yes"/>
      <point x="116.0" y="210" type="line" smooth="yes"/>
      <point x="84.0" y="210"/>
      <point x="70.0" y="197"/>
      <point x="70.0" y="164" type="curve" smooth="yes"/>
      <point x="70.0" y="47" type="line" smooth="yes"/>
      <point x="70.0" y="15"/>
      <point x="84.0" y="1"/>
    </contour>
  </outline>
</glyph>
<glyph name="arrowleft.chevron" format="1">
  <advance width="992"/>
  <outline>
    <contour>
      <point x="1220.0" y="288" type="curve" smooth="yes"/>
      <point x="1220.0" y="316"/>
      <point x="1202.0" y="336"/>
      <point x="1179.0" y="336" type="curve" smooth="yes"/>
      <point x="1050.0" y="336" type="line"/>
      <point x="1050.0" y="987" type="line" smooth="yes"/>
      <point x="1050.0" y="1014"/>
      <point x="1033.0" y="1034"/>
      <point x="1013.0" y="1034" type="curve" smooth="yes"/>
      <point x="1008.0" y="1034"/>
      <point x="1001.0" y="1033"/>
      <point x="996.0" y="1030" type="curve"/>
      <point x="500.0" y="834" type="line"/>
      <point x="4.0" y="1030" type="line"/>
      <point x="-1.0" y="1033"/>
      <point x="-8.0" y="1034"/>
      <point x="-13.0" y="1034" type="curve" smooth="yes"/>
      <point x="-33.0" y="1034"/>
      <point x="-50.0" y="1014"/>
      <point x="-50.0" y="987" type="curve" smooth="yes"/>
      <point x="-50.0" y="336" type="line"/>
      <point x="-181.0" y="336" type="line" smooth="yes"/>
      <point x="-211.0" y="336"/>
      <point x="-228.0" y="317"/>
      <point x="-228.0" y="293" type="curve" smooth="yes"/>
      <point x="-228.0" y="276"/>
      <point x="-219.0" y="256"/>
      <point x="-197.0" y="238" type="curve" smooth="yes"/>
      <point x="433.0" y="-278" type="line" smooth="yes"/>
      <point x="458.0" y="-298"/>
      <point x="478.0" y="-308"/>
      <point x="499.0" y="-308" type="curve" smooth="yes"/>
      <point x="519.0" y="-308"/>
      <point x="540.0" y="-298"/>
      <point x="565.0" y="-278" type="curve" smooth="yes"/>
      <point x="1195.0" y="238" type="line" smooth="yes"/>
      <point x="1213.0" y="252"/>
      <point x="1220.0" y="271"/>
    </contour>
  </outline>
</glyph>
<glyph name="arrowright.chevron" format="1">
  <advance width="992"/>
  <outline>
    <contour>
      <point x="1220.0" y="432" type="curve" smooth="yes"/>
      <point x="1220.0" y="449"/>
      <point x="1213.0" y="468"/>
      <point x="1195.0" y="482" type="curve" smooth="yes"/>
      <point x="565.0" y="998" type="line" smooth="yes"/>
      <point x="540.0" y="1019"/>
      <point x="519.0" y="1028"/>
      <point x="499.0" y="1028" type="curve" smooth="yes"/>
      <point x="478.0" y="1028"/>
      <point x="458.0" y="1019"/>
      <point x="433.0" y="998" type="curve" smooth="yes"/>
      <point x="-197.0" y="482" type="line" smooth="yes"/>
      <point x="-219.0" y="464"/>
      <point x="-228.0" y="444"/>
      <point x="-228.0" y="427" type="curve" smooth="yes"/>
      <point x="-228.0" y="403"/>
      <point x="-211.0" y="384"/>
      <point x="-181.0" y="384" type="curve" smooth="yes"/>
      <point x="-50.0" y="384" type="line"/>
      <point x="-50.0" y="-267" type="line" smooth="yes"/>
      <point x="-50.0" y="-294"/>
      <point x="-33.0" y="-314"/>
      <point x="-13.0" y="-314" type="curve"/>
      <point x="-8.0" y="-314"/>
      <point x="-1.0" y="-313"/>
      <point x="4.0" y="-310" type="curve"/>
      <point x="500.0" y="-114" type="line"/>
      <point x="996.0" y="-310" type="line"/>
      <point x="1001.0" y="-313"/>
      <point x="1008.0" y="-314"/>
      <point x="1013.0" y="-314" type="curve"/>
      <point x="1033.0" y="-314"/>
      <point x="1050.0" y="-294"/>
      <point x="1050.0" y="-267" type="curve" smooth="yes"/>
      <point x="1050.0" y="384" type="line"/>
      <point x="1179.0" y="384" type="line" smooth="yes"/>
      <point x="1202.0" y="384"/>
      <point x="1220.0" y="404"/>
    </contour>
  </outline>
</glyph>
<glyph name="arrowup.chevron" format="1">
  <advance width="1014"/>
  <outline>
    <contour>
      <point x="1224.0" y="873" type="curve" smooth="yes"/>
      <point x="1224.0" y="893"/>
      <point x="1204.0" y="910"/>
      <point x="1177.0" y="910" type="curve" smooth="yes"/>
      <point x="434.0" y="910" type="line"/>
      <point x="434.0" y="1043" type="line" smooth="yes"/>
      <point x="434.0" y="1066"/>
      <point x="414.0" y="1084"/>
      <point x="386.0" y="1084" type="curve" smooth="yes"/>
      <point x="369.0" y="1084"/>
      <point x="350.0" y="1077"/>
      <point x="336.0" y="1059" type="curve" smooth="yes"/>
      <point x="-180.0" y="425" type="line" smooth="yes"/>
      <point x="-201.0" y="400"/>
      <point x="-210.0" y="379"/>
      <point x="-210.0" y="359" type="curve" smooth="yes"/>
      <point x="-210.0" y="338"/>
      <point x="-201.0" y="318"/>
      <point x="-180.0" y="293" type="curve" smooth="yes"/>
      <point x="336.0" y="-333" type="line" smooth="yes"/>
      <point x="355.0" y="-356"/>
      <point x="375.0" y="-364"/>
      <point x="391.0" y="-364" type="curve" smooth="yes"/>
      <point x="415.0" y="-364"/>
      <point x="434.0" y="-347"/>
      <point x="434.0" y="-317" type="curve" smooth="yes"/>
      <point x="434.0" y="-190" type="line"/>
      <point x="1177.0" y="-190" type="line" smooth="yes"/>
      <point x="1204.0" y="-190"/>
      <point x="1224.0" y="-173"/>
      <point x="1224.0" y="-153" type="curve" smooth="yes"/>
      <point x="1224.0" y="-148"/>
      <point x="1223.0" y="-141"/>
      <point x="1220.0" y="-136" type="curve"/>
      <point x="1024.0" y="360" type="line"/>
      <point x="1220.0" y="856" type="line"/>
      <point x="1223.0" y="861"/>
      <point x="1224.0" y="868"/>
    </contour>
  </outline>
</glyph>
